<?xml version="1.0" encoding="utf-8"?>
<!-- Generator: Adobe Illustrator 16.0.0, SVG Export Plug-In . SVG Version: 6.00 Build 0)  -->
<!DOCTYPE svg PUBLIC "-//W3C//DTD SVG 1.1//EN" "http://www.w3.org/Graphics/SVG/1.1/DTD/svg11.dtd">
<svg version="1.1" id="Layer_1" xmlns="http://www.w3.org/2000/svg" xmlns:xlink="http://www.w3.org/1999/xlink" x="0px" y="0px"
	 width="954px" height="810px" viewBox="0 0 954 810" enable-background="new 0 0 954 810" xml:space="preserve">
<polygon fill="#1D1D1B" points="707.479,322.911 707.48,315.085 699.652,315.084 699.653,322.911 699.652,330.737 699.652,338.563 
	707.48,338.563 707.479,330.737 "/>
<polygon fill="#1D1D1B" points="699.652,299.433 699.652,291.607 691.826,291.607 691.826,299.433 691.826,307.259 691.827,315.085 
	699.652,315.084 699.652,307.259 "/>
<polygon fill="#1D1D1B" points="691.826,275.955 691.824,268.128 691.826,260.302 684,260.302 684,268.128 684,275.955 684,283.781 
	684,291.606 691.826,291.607 691.825,283.781 "/>
<rect x="676.172" y="252.477" fill="#1D1D1B" width="7.828" height="7.825"/>
<polygon fill="#1D1D1B" points="676.172,236.825 676.172,228.999 683.998,228.999 691.824,228.999 699.652,228.998 707.477,228.998 
	707.479,221.171 699.65,221.172 691.826,221.172 684,221.173 676.172,221.172 668.346,221.172 668.346,228.999 668.346,236.825 
	668.346,244.65 668.348,252.477 676.172,252.477 676.172,244.65 "/>
<polygon fill="#1D1D1B" points="715.305,236.824 715.304,244.65 715.305,252.476 715.305,260.301 715.304,268.127 723.129,268.127 
	723.129,260.302 723.129,252.475 723.129,244.65 723.129,236.824 723.129,228.998 723.129,221.171 723.129,213.345 723.127,205.52 
	723.129,197.693 723.129,189.867 723.127,182.041 723.129,174.215 723.127,166.389 723.127,158.563 723.127,150.737 
	723.127,142.911 723.127,135.084 723.127,127.258 723.127,119.432 723.125,111.606 715.301,111.606 715.301,119.433 
	715.301,127.258 715.301,135.084 715.303,142.911 715.301,150.737 715.303,158.562 715.303,166.389 715.301,174.215 
	715.303,182.042 715.301,189.868 715.304,197.694 715.303,205.52 715.303,213.345 715.304,221.172 715.303,228.998 707.477,228.998 
	707.477,236.824 "/>
<polygon fill="#1D1D1B" points="824.871,338.56 824.87,346.386 824.871,354.213 817.045,354.213 809.219,354.213 801.393,354.213 
	793.566,354.213 785.74,354.214 777.914,354.214 770.089,354.214 762.262,354.214 754.438,354.214 746.611,354.214 738.785,354.215 
	730.957,354.215 723.131,354.215 715.307,354.215 715.307,346.388 715.307,338.563 707.48,338.563 707.48,346.389 707.48,354.215 
	707.48,362.042 715.307,362.042 723.132,362.041 730.957,362.041 738.785,362.041 746.61,362.04 754.438,362.041 762.262,362.04 
	770.089,362.04 777.914,362.04 785.74,362.04 793.566,362.04 801.392,362.039 809.219,362.04 817.045,362.039 824.871,362.039 
	832.699,362.039 832.697,354.213 832.697,346.387 832.697,338.56 832.697,330.734 824.871,330.735 "/>
<polygon fill="#1D1D1B" points="832.695,299.43 832.697,307.256 832.695,315.083 832.697,322.908 832.697,330.734 840.521,330.735 
	840.521,322.908 840.521,315.083 840.521,307.256 840.521,299.43 840.521,291.604 832.697,291.604 "/>
<polygon fill="#1D1D1B" points="848.348,236.821 848.346,228.995 848.346,221.169 848.346,213.342 840.521,213.343 840.521,221.169 
	840.518,228.995 840.521,236.821 840.521,244.647 840.521,252.474 840.521,260.299 840.521,268.126 840.521,275.952 
	840.521,283.778 840.521,291.604 848.348,291.603 848.348,283.778 848.348,275.952 848.348,268.125 848.348,260.299 
	848.346,252.473 848.348,244.647 "/>
<rect x="832.697" y="205.517" fill="#1D1D1B" width="7.822" height="7.826"/>
<polygon fill="#1D1D1B" points="746.605,127.257 746.605,135.083 746.606,142.911 746.605,150.736 746.606,158.562 746.606,166.388 
	746.605,174.215 746.606,182.04 746.606,189.867 746.607,197.693 746.606,205.519 746.606,213.345 746.607,221.171 746.606,228.998 
	754.434,228.997 754.434,221.17 754.432,213.344 754.434,205.519 754.434,197.693 754.432,189.867 762.258,189.866 770.086,189.866 
	777.91,189.866 777.91,182.04 770.086,182.04 762.26,182.041 754.434,182.041 754.432,174.214 754.434,166.388 754.432,158.562 
	754.434,150.736 754.432,142.911 754.432,135.084 754.434,127.258 754.432,119.432 754.432,111.605 746.606,111.605 
	746.605,119.432 "/>
<polygon fill="#1D1D1B" points="738.779,111.606 746.606,111.605 746.605,103.78 738.779,103.78 730.953,103.78 723.127,103.78 
	723.125,111.606 730.953,111.606 "/>
<polygon fill="#1D1D1B" points="777.91,205.518 777.91,213.344 777.912,221.17 777.91,228.997 777.91,236.823 785.738,236.823 
	785.736,228.997 785.738,221.171 785.736,213.344 785.736,205.518 785.738,197.692 793.562,197.692 801.389,197.692 
	809.217,197.691 809.215,189.865 801.389,189.865 793.562,189.866 785.736,189.865 777.91,189.866 777.912,197.692 "/>
<polygon fill="#1D1D1B" points="809.215,213.344 809.217,221.169 809.217,228.997 809.217,236.822 809.217,244.647 817.044,244.647 
	817.043,236.822 817.044,228.996 817.043,221.17 817.043,213.343 817.043,205.518 824.867,205.518 832.695,205.517 832.695,197.691 
	824.867,197.692 817.043,197.692 809.217,197.691 809.217,205.517 "/>
<polygon fill="#1D1D1B" points="349.139,478.023 349.14,476.133 347.25,476.133 347.25,478.023 347.25,479.913 347.252,481.803 
	349.139,481.803 349.14,479.913 "/>
<polygon fill="#1D1D1B" points="347.25,472.353 347.252,470.463 345.36,470.463 345.359,472.353 345.361,474.243 345.359,476.133 
	347.25,476.133 347.252,474.243 "/>
<polygon fill="#1D1D1B" points="345.359,466.684 345.359,464.793 345.36,462.904 343.469,462.904 343.469,464.793 343.469,466.684 
	343.469,468.574 343.469,470.463 345.36,470.463 345.359,468.573 "/>
<rect x="341.579" y="461.015" fill="#1D1D1B" width="1.89" height="1.889"/>
<polygon fill="#1D1D1B" points="341.578,457.234 341.577,455.344 343.468,455.344 345.359,455.344 347.25,455.343 349.139,455.344 
	349.139,453.455 347.252,453.455 345.36,453.455 343.469,453.455 341.579,453.455 339.689,453.455 339.688,455.344 339.689,457.234 
	339.69,459.125 339.689,461.014 341.578,461.015 341.578,459.124 "/>
<polygon fill="#1D1D1B" points="351.029,457.234 351.029,459.124 351.027,461.014 351.029,462.903 351.029,464.793 352.92,464.793 
	352.918,462.903 352.918,461.014 352.918,459.124 352.918,457.233 352.92,455.343 352.918,453.455 352.918,451.563 352.918,449.674 
	352.918,447.785 352.918,445.895 352.918,444.004 352.918,442.114 352.918,440.224 352.918,438.335 352.918,436.445 
	352.918,434.555 352.918,432.665 352.918,430.775 352.918,428.885 352.918,426.995 351.028,426.995 351.028,428.885 
	351.029,430.775 351.029,432.665 351.029,434.555 351.028,436.445 351.029,438.335 351.029,440.224 351.029,442.114 
	351.029,444.004 351.028,445.894 351.029,447.785 351.028,449.674 351.029,451.564 351.028,453.454 351.029,455.343 
	349.139,455.344 349.139,457.234 "/>
<polygon fill="#1D1D1B" points="379.379,472.352 379.379,474.243 379.377,476.133 379.379,478.022 379.378,479.913 381.268,479.913 
	381.268,478.022 381.268,476.132 381.268,474.243 381.268,472.352 381.266,470.462 379.379,470.462 "/>
<polygon fill="#1D1D1B" points="381.268,455.343 381.268,457.233 381.268,459.123 381.266,461.013 381.266,462.903 381.268,464.793 
	381.268,466.683 381.268,468.573 381.266,470.462 383.156,470.462 383.156,468.573 383.156,466.683 383.156,464.792 
	383.156,462.903 383.155,461.013 383.156,459.123 383.156,457.233 383.156,455.343 383.155,453.453 383.156,451.563 
	381.268,451.563 381.266,453.453 "/>
<rect x="379.379" y="449.674" fill="#1D1D1B" width="1.888" height="1.889"/>
<polygon fill="#1D1D1B" points="358.589,430.775 358.588,432.665 358.588,434.554 358.588,436.445 358.588,438.335 358.59,440.224 
	358.588,442.114 358.589,444.004 358.588,445.894 358.588,447.785 358.588,449.674 358.59,451.564 358.589,453.455 358.59,455.343 
	360.479,455.343 360.478,453.455 360.479,451.564 360.479,449.674 360.479,447.785 360.48,445.894 362.367,445.895 364.258,445.894 
	366.148,445.895 366.147,444.004 364.257,444.004 362.366,444.004 360.479,444.004 360.479,442.114 360.479,440.224 
	360.479,438.334 360.479,436.445 360.479,434.554 360.479,432.666 360.479,430.774 360.479,428.885 360.479,426.995 
	358.589,426.995 358.588,428.885 "/>
<polygon fill="#1D1D1B" points="356.698,426.995 358.589,426.995 358.588,425.105 356.697,425.105 354.809,425.105 352.918,425.105 
	352.918,426.995 354.808,426.995 "/>
<polygon fill="#1D1D1B" points="366.148,449.674 366.149,451.563 366.147,453.454 366.148,455.343 366.148,457.233 368.039,457.233 
	368.039,455.343 368.039,453.454 368.04,451.563 368.039,449.674 368.039,447.785 369.927,447.785 371.818,447.784 373.709,447.785 
	373.709,445.894 371.818,445.894 369.928,445.894 368.039,445.894 366.148,445.895 366.148,447.785 "/>
<polygon fill="#1D1D1B" points="373.71,451.563 373.709,453.454 373.709,455.343 373.709,457.233 373.709,459.124 375.598,459.124 
	375.598,457.233 375.598,455.343 375.598,453.454 375.597,451.563 375.598,449.674 377.486,449.674 379.378,449.674 
	379.377,447.785 377.488,447.785 375.598,447.784 373.709,447.785 373.709,449.673 "/>
<rect x="238.498" y="378.088" fill="#1D1D1B" width="9.001" height="9"/>
<rect x="256.501" y="522.087" fill="#1D1D1B" width="9" height="9"/>
<rect x="265.501" y="531.087" fill="#1D1D1B" width="9.002" height="9"/>
<polygon fill="#1D1D1B" points="274.502,540.086 274.502,549.086 283.502,549.086 292.502,549.087 292.5,540.086 283.5,540.087 "/>
<polygon fill="#1D1D1B" points="292.5,540.086 301.502,540.086 301.502,531.086 301.502,522.086 292.502,522.086 292.5,531.086 "/>
<rect x="247.502" y="531.087" fill="#1D1D1B" width="9" height="9"/>
<rect x="238.5" y="540.088" fill="#1D1D1B" width="9.002" height="9"/>
<polygon fill="#1D1D1B" points="229.502,558.088 229.502,567.088 238.502,567.087 238.502,558.087 238.5,549.088 229.5,549.088 "/>
<polygon fill="#1D1D1B" points="220.502,576.088 220.502,585.087 220.502,594.088 229.502,594.087 229.502,585.088 229.502,576.088 
	229.502,567.088 220.502,567.088 "/>
<polygon fill="#1D1D1B" points="211.502,603.088 211.502,612.088 211.502,621.088 220.502,621.088 220.502,612.088 220.502,603.088 
	220.502,594.088 211.502,594.088 "/>
<polygon fill="#1D1D1B" points="193.502,621.088 193.502,630.088 202.502,630.088 211.502,630.088 211.502,621.088 202.502,621.088 
	"/>
<polygon fill="#1D1D1B" points="184.502,639.088 184.504,648.088 193.502,648.088 193.502,639.088 193.502,630.088 184.502,630.089 
	"/>
<rect x="175.502" y="648.089" fill="#1D1D1B" width="9.002" height="9"/>
<polygon fill="#1D1D1B" points="166.502,666.088 157.504,666.089 148.502,666.089 139.502,666.089 130.504,666.09 130.502,675.09 
	139.504,675.089 148.504,675.089 157.502,675.089 166.502,675.088 175.502,675.088 175.502,666.089 175.502,657.089 
	166.502,657.089 "/>
<polygon fill="#1D1D1B" points="265.498,378.086 274.498,378.087 283.498,378.087 292.498,378.086 301.497,378.086 310.498,378.086 
	319.498,378.085 328.496,378.085 337.498,378.085 346.498,378.085 355.496,378.085 364.498,378.085 373.5,378.085 382.498,378.085 
	391.496,378.084 400.498,378.085 409.497,378.084 418.497,378.084 427.498,378.084 436.497,378.083 445.497,378.083 
	454.498,378.083 463.498,378.083 472.496,378.083 481.498,378.083 490.498,378.083 499.498,378.083 499.496,369.083 
	490.498,369.083 481.497,369.083 472.498,369.083 463.498,369.083 454.498,369.083 445.497,369.083 436.497,369.083 
	427.498,369.083 418.497,369.084 409.497,369.084 400.496,369.084 391.498,369.084 382.496,369.084 373.498,369.084 
	364.498,369.085 355.496,369.085 346.498,369.085 337.498,369.085 328.496,369.085 319.497,369.085 310.498,369.085 
	301.498,369.086 292.498,369.086 283.498,369.086 274.498,369.087 265.498,369.087 256.498,369.086 247.497,369.087 
	247.498,378.087 256.498,378.087 "/>
<rect x="499.498" y="378.083" fill="#1D1D1B" width="9" height="9"/>
<polygon fill="#1D1D1B" points="220.5,513.088 229.5,513.088 229.5,504.087 238.5,504.087 238.5,495.087 247.5,495.087 
	247.5,486.087 238.5,486.087 238.5,477.088 238.5,468.087 229.5,468.088 229.5,477.087 229.5,486.087 229.5,495.087 
	220.502,495.088 211.5,495.088 211.5,504.088 220.5,504.088 "/>
<polygon fill="#1D1D1B" points="202.5,513.088 211.5,513.088 211.5,504.088 202.5,504.088 193.5,504.088 193.5,513.088 "/>
<polygon fill="#1D1D1B" points="229.498,414.088 229.498,414.087 238.498,414.087 238.498,405.087 238.498,396.087 238.498,387.087 
	229.497,387.087 229.498,396.086 229.498,405.087 229.498,405.088 220.498,405.088 211.498,405.088 211.498,414.088 
	220.498,414.088 "/>
<polygon fill="#1D1D1B" points="202.5,468.088 202.5,477.088 211.5,477.088 211.5,468.088 211.5,459.088 202.498,459.088 "/>
<rect x="193.5" y="477.088" fill="#1D1D1B" width="9" height="9"/>
<polygon fill="#1D1D1B" points="184.5,495.088 184.5,504.088 193.5,504.088 193.502,495.088 193.5,486.088 184.5,486.088 "/>
<polygon fill="#1D1D1B" points="184.5,504.088 175.5,504.089 175.5,513.089 175.5,522.088 184.502,522.088 184.5,513.088 "/>
<rect x="184.502" y="522.088" fill="#1D1D1B" width="9" height="9"/>
<polygon fill="#1D1D1B" points="193.502,531.088 193.502,540.088 193.5,549.088 202.5,549.088 202.5,540.088 211.5,540.088 
	211.5,531.088 202.5,531.088 "/>
<polygon fill="#1D1D1B" points="166.502,531.089 157.502,531.089 157.502,540.089 166.5,540.089 175.5,540.088 175.5,531.089 "/>
<rect x="175.5" y="540.088" fill="#1D1D1B" width="9" height="9.001"/>
<polygon fill="#1D1D1B" points="211.498,423.087 211.498,414.088 202.498,414.088 193.498,414.088 193.498,423.088 202.498,423.088 
	"/>
<rect x="184.498" y="423.089" fill="#1D1D1B" width="9" height="9"/>
<rect x="175.5" y="432.089" fill="#1D1D1B" width="8.998" height="9"/>
<rect x="166.499" y="441.089" fill="#1D1D1B" width="9.002" height="9"/>
<rect x="157.499" y="450.089" fill="#1D1D1B" width="9" height="9"/>
<rect x="148.5" y="459.089" fill="#1D1D1B" width="8.998" height="9"/>
<rect x="139.5" y="468.089" fill="#1D1D1B" width="9" height="9"/>
<rect x="130.499" y="477.089" fill="#1D1D1B" width="9.002" height="9"/>
<rect x="121.499" y="486.09" fill="#1D1D1B" width="9" height="9"/>
<polygon fill="#1D1D1B" points="121.5,513.09 121.498,504.09 121.498,495.09 112.5,495.09 112.502,504.09 112.502,513.09 
	112.502,522.09 121.502,522.089 "/>
<polygon fill="#1D1D1B" points="112.502,549.09 112.502,540.09 112.502,531.09 112.502,522.09 103.502,522.09 103.502,531.09 
	103.502,540.09 103.502,549.091 103.502,558.09 112.502,558.09 "/>
<polygon fill="#1D1D1B" points="103.502,639.09 103.504,630.09 103.502,621.09 103.502,612.09 103.502,603.09 103.502,594.09 
	103.502,585.09 103.502,576.09 103.502,567.09 103.502,558.09 94.5,558.09 94.502,567.09 94.502,576.09 94.502,585.09 
	94.502,594.09 94.502,603.09 94.502,612.09 94.502,621.09 94.502,630.09 94.504,639.09 94.504,648.09 103.504,648.09 "/>
<polygon fill="#1D1D1B" points="121.504,657.09 112.504,657.09 103.504,657.09 94.504,657.09 94.504,648.09 85.502,648.091 
	85.502,657.09 85.502,666.09 94.502,666.09 103.504,666.09 112.504,666.09 121.502,666.09 130.504,666.09 130.504,657.09 "/>
<polygon fill="#1D1D1B" points="211.502,522.088 211.5,531.088 220.502,531.088 220.5,522.088 220.5,513.088 211.5,513.088 "/>
<rect x="184.5" y="549.089" fill="#1D1D1B" width="9" height="9"/>
<rect x="175.499" y="558.089" fill="#1D1D1B" width="9.002" height="8.999"/>
<polygon fill="#1D1D1B" points="265.5,486.087 274.5,486.087 274.5,477.087 265.5,477.087 256.5,477.087 247.5,477.087 
	247.5,486.087 256.5,486.087 "/>
<rect x="265.501" y="513.087" fill="#1D1D1B" width="9" height="9"/>
<polygon fill="#1D1D1B" points="495,432.083 494.998,423.083 485.998,423.083 485.998,432.083 486,441.083 486,450.083 486,459.083 
	495,459.083 494.998,450.083 495,441.083 "/>
<polygon fill="#1D1D1B" points="301.498,396.086 310.498,396.086 319.498,396.085 328.498,396.085 337.498,396.085 346.496,396.085 
	355.5,396.085 364.498,396.085 373.497,396.085 382.498,396.084 391.497,396.084 400.497,396.084 409.498,396.084 418.498,396.083 
	427.498,396.083 436.498,396.083 445.498,396.083 449.998,396.083 449.998,391.583 445.498,391.583 436.498,391.583 
	427.498,391.584 418.498,391.584 409.498,391.584 400.497,391.584 391.498,391.584 382.497,391.585 373.498,391.584 364.5,391.585 
	355.496,391.585 346.498,391.585 337.498,391.585 328.497,391.586 319.496,391.586 310.498,391.586 301.498,391.586 
	296.997,391.586 296.998,396.086 "/>
<polygon fill="#1D1D1B" points="432,486.084 423,486.084 414,486.084 405,486.084 396,486.084 387,486.084 379.379,486.085 
	379.379,485.582 379.379,483.692 379.379,481.802 379.378,479.913 377.488,479.913 377.488,481.803 377.488,483.692 
	377.489,485.582 375.597,485.582 373.71,485.582 371.817,485.582 369.929,485.582 368.039,485.583 366.148,485.582 364.258,485.582 
	362.367,485.583 360.479,485.582 358.59,485.582 356.699,485.583 354.809,485.583 352.918,485.583 351.029,485.583 351.029,483.692 
	351.029,481.803 349.139,481.803 349.14,483.693 349.139,485.583 349.139,486.085 341.998,486.085 333,486.085 324,486.085 
	314.998,486.086 306,486.086 297,486.086 297,490.586 306,490.586 315,490.586 324,490.585 332.998,490.586 342,490.585 
	351,490.585 360.002,490.585 369,490.584 378,490.584 387,490.584 396,490.584 405,490.584 414,490.584 423,490.584 432,490.584 
	441,490.583 449.998,490.583 450,486.083 441,486.083 "/>
<polygon fill="#1D1D1B" points="247.498,432.087 247.498,441.088 247.5,450.087 256.5,450.087 265.5,450.087 265.5,441.087 
	265.5,432.087 256.498,432.087 "/>
<path fill="#1D1D1B" d="M481.5,504.083h-9h-9h-9l-9,0l-9,0h-9l-9,0h-9h-9h-9h-9h-9l-9,0.001h-9l-8.998,0l-9.002,0h-9.002l-8.998,0
	h-9l-9,0h-9l-9,0.001v-4.501l4.5,0.001l9-0.001l9,0h9l9.002,0l8.998,0h9l9,0h9.002H369l9-0.001h9.002H396h9h9l9,0l9,0h9l9,0h9l4.5,0
	v-9v-9.001v-8.999v-9v-9v-9v-9l-0.002-9v-9v-9v-9v-8.999v-9h-4.502h-8.998h-9.001l-9,0h-8.999l-9.001,0l-9,0l-9,0h-8.999h-9.001
	l-8.999,0.001h-9h-9.002h-9h-8.999h-8.999l-9,0l-9.001,0h-8.999l-9,0.001l-4.502-0.001l0.002,9v9v9v9v9.001l0.002,9v9v8.999
	l-0.002,9l0.002,9v9.001v8.999v4.501l-0.002-9H274.5v9v9v9l9-0.001v9h9.002l-0.002-8.999l9.002-0.001l8.998,0h9.002l9,0h8.998h9h9h9
	h9l9.002-0.001h8.998h9l9.002,0h8.998l9,0l9,0l9,0l9,0h9l9,0h9h9h9v-9h-9L481.5,504.083z M288,481.586v-9l-0.002-8.999l0.002-9.001
	v-9v-9l-0.002-9v-9v-9v-9v-9v-4.5l9,0h8.999l9.001,0l9,0l8.998,0h9.002h9l9-0.001h9h9h8.999h9h9h9.001l9-0.001h8.999l9.001,0l9,0
	h8.999l0.001,4.499v9.001v9v9v9v9l0.002,9v9l-0.002,9l0.002,9v9v9v4.5h-9h-9l-9,0h-9l-9,0l-9,0.001h-9l-9,0.001h-9h-9h-9h-9h-9.002
	H333l-9,0l-9,0h-9h-9h-9v-4.499V481.586z"/>
<rect x="499.5" y="495.083" fill="#1D1D1B" width="9" height="9"/>
<polygon fill="#1D1D1B" points="508.498,405.082 508.498,414.082 517.498,414.082 517.496,405.082 517.498,396.083 517.498,396.083 
	517.498,387.082 508.497,387.083 508.498,396.083 "/>
<polygon fill="#1D1D1B" points="229.5,423.088 229.498,432.087 229.498,441.087 229.498,450.087 220.5,450.088 211.498,450.088 
	211.5,459.088 220.5,459.088 229.5,459.087 229.5,468.087 238.498,468.087 238.5,459.087 238.498,450.087 238.498,441.087 
	238.498,432.087 238.497,423.087 238.498,414.087 229.498,414.088 "/>
<polygon fill="#1D1D1B" points="517.5,423.082 517.498,414.083 508.498,414.082 508.5,423.082 508.497,432.083 508.498,441.083 
	508.5,450.082 508.498,459.083 508.498,468.083 508.498,477.083 508.5,486.082 508.5,495.083 517.5,495.082 517.498,486.083 
	517.5,477.083 517.5,468.083 517.5,459.082 517.5,450.083 517.498,441.082 517.498,432.082 "/>
<rect x="368.941" y="410.456" fill="#1D1D1B" width="6.699" height="6.701"/>
</svg>
