<?xml version="1.0" encoding="utf-8"?>
<!-- Generator: Adobe Illustrator 16.0.0, SVG Export Plug-In . SVG Version: 6.00 Build 0)  -->
<!DOCTYPE svg PUBLIC "-//W3C//DTD SVG 1.1//EN" "http://www.w3.org/Graphics/SVG/1.1/DTD/svg11.dtd">
<svg version="1.1" id="Layer_1" xmlns="http://www.w3.org/2000/svg" xmlns:xlink="http://www.w3.org/1999/xlink" x="0px" y="0px"
	 width="954px" height="810px" viewBox="0 0 954 810" enable-background="new 0 0 954 810" xml:space="preserve">
<polygon fill="#1D1D1B" points="134.812,490.951 134.812,482.803 134.812,474.654 134.812,466.507 123.175,466.507 123.175,458.359 
	111.533,458.359 111.533,450.211 111.533,442.062 123.175,442.062 134.812,442.062 134.812,433.914 134.812,425.767 
	134.812,417.618 123.175,417.618 123.175,425.767 111.533,425.767 111.533,417.618 123.175,417.618 123.175,409.471 
	111.533,409.471 99.895,409.471 99.895,417.618 99.895,425.767 99.895,433.914 99.895,442.062 99.895,450.211 88.254,450.211 
	88.254,442.062 76.613,442.062 64.974,442.062 64.974,450.211 76.613,450.211 76.613,458.359 76.613,466.507 76.613,474.654 
	76.613,482.803 76.613,490.951 76.613,499.1 76.613,507.246 76.613,515.395 76.613,523.543 76.613,531.691 76.613,539.838 
	76.613,547.986 76.613,556.135 76.613,564.281 76.613,572.43 76.613,580.578 88.254,580.578 99.895,580.578 99.895,572.43 
	88.254,572.43 88.254,564.281 88.254,556.135 88.254,547.986 88.254,539.838 88.254,531.691 88.254,523.543 88.254,515.395 
	99.895,515.395 99.895,523.543 111.533,523.543 111.533,531.691 111.533,539.838 111.533,547.986 111.533,556.135 111.533,564.281 
	111.533,572.43 111.533,580.578 111.533,588.727 111.533,596.875 123.175,596.875 134.812,596.875 134.812,588.727 123.175,588.727 
	123.175,580.578 123.175,572.43 123.175,564.281 123.175,556.135 123.175,547.986 123.175,539.838 123.175,531.691 123.175,523.543 
	123.175,515.395 123.175,507.246 134.812,507.246 134.812,499.1 "/>
<polygon fill="#1D1D1B" points="146.452,507.246 134.812,507.246 134.812,515.395 134.812,523.543 146.452,523.543 146.452,515.395 
	"/>
<polygon fill="#1D1D1B" points="146.452,523.543 146.452,531.691 158.094,531.691 169.733,531.691 169.733,523.543 158.094,523.543 
	"/>
<polygon fill="#1D1D1B" points="53.333,417.618 53.333,409.471 53.333,401.323 41.693,401.323 41.693,409.471 41.693,417.618 
	41.693,425.767 41.693,433.914 53.333,433.914 53.333,425.767 "/>
<rect x="53.333" y="393.175" fill="#1D1D1B" width="11.641" height="8.148"/>
<rect x="53.333" y="433.914" fill="#1D1D1B" width="11.641" height="8.148"/>
<polygon fill="#1D1D1B" points="209.516,622.729 209.516,630.877 221.155,630.877 221.155,622.729 221.155,614.58 209.516,614.58 
	"/>
<polygon fill="#1D1D1B" points="186.234,630.877 186.234,639.025 197.874,639.025 209.516,639.025 209.516,630.877 197.874,630.877 
	"/>
<polygon fill="#1D1D1B" points="302.635,516.805 302.635,524.951 302.635,533.1 302.635,541.248 314.274,541.248 314.274,533.1 
	314.274,524.951 314.274,516.805 314.274,508.656 302.635,508.656 "/>
<rect x="290.994" y="500.508" fill="#1D1D1B" width="11.641" height="8.148"/>
<rect x="290.994" y="541.248" fill="#1D1D1B" width="11.641" height="8.148"/>
<polygon fill="#1D1D1B" points="267.714,549.396 267.714,557.545 256.073,557.545 256.073,549.396 256.073,541.248 256.073,533.1 
	256.073,524.951 256.073,516.805 244.435,516.805 232.793,516.805 232.793,524.951 244.435,524.951 244.435,533.1 232.793,533.1 
	232.793,524.951 221.155,524.951 221.155,533.1 221.155,541.248 221.155,549.396 232.793,549.396 244.435,549.396 244.435,557.545 
	244.435,565.693 232.793,565.693 232.793,573.84 221.155,573.84 221.155,581.988 221.155,590.137 221.155,598.285 221.155,606.434 
	221.155,614.58 232.793,614.58 232.793,622.729 232.793,630.877 232.793,639.025 232.793,647.172 232.793,655.32 232.793,663.469 
	232.793,671.615 232.793,679.764 232.793,687.912 232.793,696.061 221.155,696.061 221.155,704.209 232.793,704.209 
	244.435,704.209 244.435,696.061 244.435,687.912 244.435,679.764 244.435,671.615 244.435,663.469 244.435,655.32 244.435,647.172 
	244.435,639.025 244.435,630.877 256.073,630.877 256.073,622.729 267.714,622.729 267.714,630.877 267.714,639.025 
	267.714,647.172 267.714,655.32 267.714,663.469 267.714,671.615 267.714,679.764 256.073,679.764 256.073,687.912 267.714,687.912 
	279.354,687.912 279.354,679.764 279.354,671.615 279.354,663.469 279.354,655.32 279.354,647.172 279.354,639.025 279.354,630.877 
	279.354,622.729 279.354,614.58 279.354,606.434 279.354,598.285 279.354,590.137 279.354,581.988 279.354,573.84 279.354,565.693 
	279.354,557.545 290.994,557.545 290.994,549.396 279.354,549.396 "/>
<polygon fill="#1D1D1B" points="739.091,200.638 744.724,200.638 744.724,196.694 744.724,192.751 739.091,192.751 739.091,196.694 
	"/>
<polygon fill="#1D1D1B" points="750.357,204.581 755.991,204.581 755.991,200.638 750.357,200.638 744.724,200.638 744.724,204.581 
	"/>
<polygon fill="#1D1D1B" points="699.657,149.374 699.657,145.431 699.657,141.487 694.024,141.487 694.024,145.431 694.024,149.374 
	694.024,153.317 694.024,157.26 699.657,157.26 699.657,153.317 "/>
<rect x="699.657" y="137.544" fill="#1D1D1B" width="5.633" height="3.943"/>
<rect x="699.657" y="157.26" fill="#1D1D1B" width="5.633" height="3.944"/>
<polygon fill="#1D1D1B" points="710.925,165.147 710.925,169.091 710.925,173.034 710.925,176.978 710.925,180.921 710.925,184.864 
	710.925,188.808 710.925,192.751 710.925,196.694 710.925,200.638 710.925,204.581 710.925,208.524 710.925,212.467 
	710.925,216.411 710.925,220.354 710.925,224.297 710.925,228.24 716.558,228.24 722.192,228.24 722.192,224.297 716.558,224.297 
	716.558,220.354 716.558,216.411 716.558,212.467 716.558,208.524 716.558,204.581 716.558,200.638 716.558,196.694 
	722.192,196.694 722.192,200.638 727.824,200.638 727.824,204.581 727.824,208.524 727.824,212.467 727.824,216.411 
	727.824,220.354 727.824,224.297 727.824,228.24 727.824,232.185 727.824,236.127 733.458,236.127 739.091,236.127 739.091,232.185 
	733.458,232.185 733.458,228.24 733.458,224.297 733.458,220.354 733.458,216.411 733.458,212.467 733.458,208.524 733.458,204.581 
	733.458,200.638 733.458,196.694 733.458,192.751 739.091,192.751 739.091,188.808 739.091,184.864 739.091,180.921 
	739.091,176.978 739.091,173.034 733.458,173.034 733.458,169.091 727.824,169.091 727.824,165.147 727.824,161.204 
	733.458,161.204 739.091,161.204 739.091,157.26 739.091,153.317 739.091,149.374 733.458,149.374 733.458,153.317 727.824,153.317 
	727.824,149.374 733.458,149.374 733.458,145.431 727.824,145.431 722.192,145.431 722.192,149.374 722.192,153.317 722.192,157.26 
	722.192,161.204 722.192,165.147 716.558,165.147 716.558,161.204 710.925,161.204 705.29,161.204 705.29,165.147 "/>
<polygon fill="#1D1D1B" points="840.358,243.41 834.725,243.41 834.725,247.354 829.093,247.354 829.093,251.297 829.093,255.24 
	829.093,259.184 829.093,263.127 829.093,267.07 834.725,267.07 834.725,271.014 834.725,274.957 834.725,278.9 834.725,282.843 
	834.725,286.786 834.725,290.729 834.725,294.673 834.725,298.616 834.725,302.56 834.725,306.503 829.093,306.503 829.093,310.446 
	834.725,310.446 840.358,310.446 840.358,306.503 840.358,302.56 840.358,298.616 840.358,294.673 840.358,290.729 840.358,286.786 
	840.358,282.843 840.358,278.9 840.358,274.957 845.991,274.957 845.991,271.014 851.625,271.014 851.625,274.957 851.625,278.9 
	851.625,282.843 851.625,286.786 851.625,290.729 851.625,294.673 851.625,298.616 845.991,298.616 845.991,302.56 851.625,302.56 
	857.259,302.56 857.259,298.616 857.259,294.673 857.259,290.729 857.259,286.786 857.259,282.843 857.259,278.9 857.259,274.957 
	857.259,271.014 857.259,267.07 857.259,263.127 857.259,259.184 857.259,255.24 857.259,251.297 857.259,247.354 857.259,243.41 
	857.259,239.467 862.892,239.467 862.892,235.523 857.259,235.523 851.625,235.523 851.625,239.467 845.991,239.467 
	845.991,235.523 845.991,231.579 845.991,227.637 845.991,223.693 845.991,219.75 840.358,219.75 834.725,219.75 834.725,223.693 
	840.358,223.693 840.358,227.637 834.725,227.637 834.725,223.693 829.093,223.693 829.093,227.637 829.093,231.579 
	829.093,235.523 834.725,235.523 840.358,235.523 840.358,239.467 "/>
<polygon fill="#1D1D1B" points="823.459,271.014 823.459,274.957 829.093,274.957 829.093,271.014 829.093,267.07 823.459,267.07 
	"/>
<polygon fill="#1D1D1B" points="812.192,274.957 812.192,278.9 817.825,278.9 823.459,278.9 823.459,274.957 817.825,274.957 "/>
<polygon fill="#1D1D1B" points="874.158,227.637 874.158,223.693 874.158,219.75 874.158,215.807 868.524,215.807 868.524,219.75 
	868.524,223.693 868.524,227.637 868.524,231.579 874.158,231.579 "/>
<rect x="862.892" y="211.863" fill="#1D1D1B" width="5.633" height="3.943"/>
<rect x="862.892" y="231.579" fill="#1D1D1B" width="5.633" height="3.944"/>
<rect x="545.349" y="422.425" fill="#1D1D1B" width="4.218" height="2.953"/>
<rect x="549.566" y="419.474" fill="#1D1D1B" width="4.217" height="2.951"/>
<rect x="553.783" y="416.521" fill="#1D1D1B" width="4.217" height="2.953"/>
<rect x="558" y="413.568" fill="#1D1D1B" width="4.218" height="2.952"/>
<rect x="562.218" y="410.616" fill="#1D1D1B" width="4.218" height="2.952"/>
<rect x="566.436" y="407.665" fill="#1D1D1B" width="4.217" height="2.951"/>
<rect x="570.652" y="404.712" fill="#1D1D1B" width="4.217" height="2.953"/>
<rect x="574.869" y="401.76" fill="#1D1D1B" width="4.218" height="2.952"/>
<rect x="579.087" y="398.808" fill="#1D1D1B" width="4.218" height="2.952"/>
<rect x="583.305" y="395.855" fill="#1D1D1B" width="4.217" height="2.952"/>
<rect x="587.521" y="392.903" fill="#1D1D1B" width="4.219" height="2.952"/>
<rect x="591.74" y="389.951" fill="#1D1D1B" width="4.217" height="2.952"/>
<rect x="595.957" y="387" fill="#1D1D1B" width="4.218" height="2.951"/>
<rect x="600.175" y="384.047" fill="#1D1D1B" width="4.217" height="2.953"/>
<rect x="604.392" y="381.095" fill="#1D1D1B" width="4.217" height="2.952"/>
<rect x="608.608" y="378.143" fill="#1D1D1B" width="4.217" height="2.952"/>
<rect x="612.825" y="375.19" fill="#1D1D1B" width="4.219" height="2.952"/>
<rect x="541.131" y="384.047" fill="#1D1D1B" width="4.218" height="2.953"/>
<rect x="532.694" y="384.047" fill="#1D1D1B" width="4.22" height="2.953"/>
<rect x="528.478" y="381.095" fill="#1D1D1B" width="4.217" height="2.952"/>
<rect x="524.261" y="378.143" fill="#1D1D1B" width="4.217" height="2.952"/>
<rect x="528.478" y="422.425" fill="#1D1D1B" width="4.217" height="2.953"/>
<rect x="524.261" y="419.474" fill="#1D1D1B" width="4.217" height="2.951"/>
<rect x="520.042" y="375.19" fill="#1D1D1B" width="4.219" height="2.952"/>
<rect x="515.825" y="372.238" fill="#1D1D1B" width="4.217" height="2.952"/>
<rect x="511.608" y="369.286" fill="#1D1D1B" width="4.217" height="2.952"/>
<rect x="520.042" y="416.521" fill="#1D1D1B" width="4.219" height="2.953"/>
<rect x="515.825" y="413.568" fill="#1D1D1B" width="4.217" height="2.952"/>
<rect x="511.608" y="410.616" fill="#1D1D1B" width="4.217" height="2.952"/>
<rect x="507.392" y="366.334" fill="#1D1D1B" width="4.217" height="2.952"/>
<rect x="503.175" y="363.382" fill="#1D1D1B" width="4.217" height="2.952"/>
<rect x="498.957" y="360.43" fill="#1D1D1B" width="4.218" height="2.952"/>
<rect x="507.392" y="407.665" fill="#1D1D1B" width="4.217" height="2.951"/>
<rect x="503.175" y="404.712" fill="#1D1D1B" width="4.217" height="2.953"/>
<rect x="498.957" y="401.76" fill="#1D1D1B" width="4.218" height="2.952"/>
<rect x="494.74" y="357.478" fill="#1D1D1B" width="4.217" height="2.952"/>
<rect x="490.522" y="354.525" fill="#1D1D1B" width="4.218" height="2.952"/>
<rect x="486.305" y="351.573" fill="#1D1D1B" width="4.218" height="2.952"/>
<rect x="494.74" y="398.808" fill="#1D1D1B" width="4.217" height="2.952"/>
<rect x="490.522" y="395.855" fill="#1D1D1B" width="4.218" height="2.952"/>
<rect x="486.305" y="392.903" fill="#1D1D1B" width="4.218" height="2.952"/>
<rect x="482.088" y="348.621" fill="#1D1D1B" width="4.217" height="2.952"/>
<rect x="477.869" y="345.669" fill="#1D1D1B" width="4.219" height="2.952"/>
<rect x="473.652" y="342.717" fill="#1D1D1B" width="4.217" height="2.952"/>
<rect x="482.088" y="389.951" fill="#1D1D1B" width="4.217" height="2.952"/>
<rect x="477.869" y="387" fill="#1D1D1B" width="4.219" height="2.951"/>
<rect x="473.652" y="384.047" fill="#1D1D1B" width="4.217" height="2.953"/>
<rect x="469.435" y="339.765" fill="#1D1D1B" width="4.218" height="2.952"/>
<rect x="465.219" y="336.812" fill="#1D1D1B" width="4.216" height="2.952"/>
<rect x="461" y="333.86" fill="#1D1D1B" width="4.219" height="2.952"/>
<rect x="469.435" y="381.095" fill="#1D1D1B" width="4.218" height="2.952"/>
<rect x="465.219" y="378.143" fill="#1D1D1B" width="4.216" height="2.952"/>
<rect x="461" y="375.19" fill="#1D1D1B" width="4.219" height="2.952"/>
<rect x="456.783" y="330.908" fill="#1D1D1B" width="4.217" height="2.952"/>
<rect x="452.565" y="327.956" fill="#1D1D1B" width="4.218" height="2.952"/>
<rect x="448.348" y="325.004" fill="#1D1D1B" width="4.218" height="2.952"/>
<rect x="456.783" y="372.238" fill="#1D1D1B" width="4.217" height="2.952"/>
<rect x="452.565" y="369.286" fill="#1D1D1B" width="4.218" height="2.952"/>
<rect x="448.348" y="366.334" fill="#1D1D1B" width="4.218" height="2.952"/>
<rect x="444.131" y="322.051" fill="#1D1D1B" width="4.217" height="2.953"/>
<rect x="439.914" y="319.1" fill="#1D1D1B" width="4.217" height="2.951"/>
<polygon fill="#1D1D1B" points="591.74,304.339 591.74,301.386 591.74,298.434 591.74,295.481 587.521,295.481 587.521,298.434 
	587.521,301.386 587.521,304.339 587.521,307.291 591.74,307.291 "/>
<polygon fill="#1D1D1B" points="595.957,292.529 595.957,289.577 595.957,286.625 595.957,283.673 591.74,283.673 591.74,286.625 
	591.74,289.577 591.74,292.529 591.74,295.481 595.957,295.481 "/>
<polygon fill="#1D1D1B" points="600.175,280.721 600.175,277.769 600.175,274.816 600.175,271.864 595.957,271.864 595.957,274.816 
	595.957,277.769 595.957,280.721 595.957,283.673 600.175,283.673 "/>
<polygon fill="#1D1D1B" points="604.392,268.912 604.392,265.96 604.392,263.008 604.392,260.056 600.175,260.056 600.175,263.008 
	600.175,265.96 600.175,268.912 600.175,271.864 604.392,271.864 "/>
<polygon fill="#1D1D1B" points="608.608,257.104 608.608,254.151 608.608,251.199 608.608,248.247 604.392,248.247 604.392,251.199 
	604.392,254.151 604.392,257.104 604.392,260.056 608.608,260.056 "/>
<polygon fill="#1D1D1B" points="612.825,245.295 612.825,242.343 612.825,239.391 612.825,236.438 608.608,236.438 608.608,239.391 
	608.608,242.343 608.608,245.295 608.608,248.247 612.825,248.247 "/>
<polygon fill="#1D1D1B" points="617.044,233.486 617.044,230.534 617.044,227.582 617.044,224.63 612.825,224.63 612.825,227.582 
	612.825,230.534 612.825,233.486 612.825,236.438 617.044,236.438 "/>
<polygon fill="#1D1D1B" points="621.261,221.678 621.261,218.725 621.261,215.773 621.261,212.82 617.044,212.82 617.044,215.773 
	617.044,218.725 617.044,221.678 617.044,224.63 621.261,224.63 "/>
<polygon fill="#1D1D1B" points="625.478,209.869 625.478,206.916 625.478,203.965 625.478,201.012 621.261,201.012 621.261,203.965 
	621.261,206.916 621.261,209.869 621.261,212.82 625.478,212.82 "/>
<polygon fill="#1D1D1B" points="629.694,198.06 629.694,195.108 629.694,192.155 629.694,189.204 625.478,189.204 625.478,192.155 
	625.478,195.108 625.478,198.06 625.478,201.012 629.694,201.012 "/>
<polygon fill="#1D1D1B" points="633.913,186.251 633.913,183.3 633.913,180.347 633.913,177.395 629.694,177.395 629.694,180.347 
	629.694,183.3 629.694,186.251 629.694,189.204 633.913,189.204 "/>
<polygon fill="#1D1D1B" points="638.131,174.442 638.131,171.491 638.131,168.538 638.131,165.586 633.913,165.586 633.913,168.538 
	633.913,171.491 633.913,174.442 633.913,177.395 638.131,177.395 "/>
<polygon fill="#1D1D1B" points="642.348,162.634 642.348,159.682 642.348,156.729 642.348,153.777 638.131,153.777 638.131,156.729 
	638.131,159.682 638.131,162.634 638.131,165.586 642.348,165.586 "/>
<polygon fill="#1D1D1B" points="646.566,150.825 646.566,147.873 646.566,144.921 646.566,141.969 642.348,141.969 642.348,144.921 
	642.348,147.873 642.348,150.825 642.348,153.777 646.566,153.777 "/>
<polygon fill="#1D1D1B" points="650.782,139.017 650.782,136.064 650.782,133.112 650.782,130.16 646.566,130.16 646.566,133.112 
	646.566,136.064 646.566,139.017 646.566,141.969 650.782,141.969 "/>
<polygon fill="#1D1D1B" points="655.001,127.208 655.001,124.256 655.001,121.304 655.001,118.352 650.782,118.352 650.782,121.304 
	650.782,124.256 650.782,127.208 650.782,130.16 655.001,130.16 "/>
<polygon fill="#1D1D1B" points="659.218,115.399 659.218,112.447 659.218,109.495 659.218,106.543 655.001,106.543 655.001,109.495 
	655.001,112.447 655.001,115.399 655.001,118.352 659.218,118.352 "/>
<polygon fill="#1D1D1B" points="663.436,103.591 663.436,100.639 663.436,97.687 663.436,94.733 659.218,94.733 659.218,97.687 
	659.218,100.639 659.218,103.591 659.218,106.543 663.436,106.543 "/>
<polygon fill="#1D1D1B" points="667.652,91.782 667.652,88.829 667.652,85.878 667.652,82.925 663.436,82.925 663.436,85.878 
	663.436,88.829 663.436,91.782 663.436,94.733 667.652,94.733 "/>
<polygon fill="#1D1D1B" points="671.87,79.974 671.87,77.021 671.87,74.068 671.87,71.116 667.652,71.116 667.652,74.068 
	667.652,77.021 667.652,79.974 667.652,82.925 671.87,82.925 "/>
<polygon fill="#1D1D1B" points="676.087,68.165 676.087,65.212 676.087,62.26 676.087,59.308 671.87,59.308 671.87,62.26 
	671.87,65.212 671.87,68.165 671.87,71.116 676.087,71.116 "/>
<polygon fill="#1D1D1B" points="591.74,313.195 591.74,316.147 595.957,316.147 595.957,319.1 600.175,319.1 600.175,322.051 
	604.392,322.051 604.392,325.004 608.608,325.004 608.608,327.956 612.825,327.956 612.825,330.908 617.044,330.908 
	617.044,327.956 617.044,325.004 612.825,325.004 612.825,322.051 608.608,322.051 608.608,319.1 604.392,319.1 604.392,316.147 
	600.175,316.147 600.175,313.195 595.957,313.195 595.957,310.242 591.74,310.242 587.521,310.242 587.521,313.195 "/>
<rect x="583.305" y="307.291" fill="#1D1D1B" width="4.217" height="2.951"/>
<rect x="579.087" y="304.339" fill="#1D1D1B" width="4.218" height="2.952"/>
<rect x="574.869" y="301.386" fill="#1D1D1B" width="4.218" height="2.953"/>
<rect x="570.652" y="298.434" fill="#1D1D1B" width="4.217" height="2.952"/>
<rect x="566.436" y="295.481" fill="#1D1D1B" width="4.217" height="2.952"/>
<rect x="562.218" y="292.529" fill="#1D1D1B" width="4.218" height="2.952"/>
<rect x="558" y="289.577" fill="#1D1D1B" width="4.218" height="2.952"/>
<rect x="553.783" y="286.625" fill="#1D1D1B" width="4.217" height="2.952"/>
<rect x="549.566" y="283.673" fill="#1D1D1B" width="4.217" height="2.952"/>
<rect x="545.349" y="280.721" fill="#1D1D1B" width="4.218" height="2.952"/>
<rect x="541.131" y="277.769" fill="#1D1D1B" width="4.218" height="2.952"/>
<rect x="536.914" y="274.816" fill="#1D1D1B" width="4.217" height="2.952"/>
<rect x="532.694" y="271.864" fill="#1D1D1B" width="4.22" height="2.952"/>
<rect x="528.478" y="268.912" fill="#1D1D1B" width="4.217" height="2.952"/>
<rect x="524.261" y="265.96" fill="#1D1D1B" width="4.217" height="2.952"/>
<rect x="520.042" y="263.008" fill="#1D1D1B" width="4.219" height="2.952"/>
<rect x="515.825" y="260.056" fill="#1D1D1B" width="4.217" height="2.952"/>
<rect x="444.131" y="363.382" fill="#1D1D1B" width="4.217" height="2.952"/>
<rect x="439.914" y="360.43" fill="#1D1D1B" width="4.217" height="2.952"/>
<rect x="435.696" y="357.478" fill="#1D1D1B" width="4.218" height="2.952"/>
<rect x="545.349" y="381.095" fill="#1D1D1B" width="4.218" height="2.952"/>
<rect x="549.566" y="378.143" fill="#1D1D1B" width="4.217" height="2.952"/>
<rect x="553.783" y="375.19" fill="#1D1D1B" width="4.217" height="2.952"/>
<rect x="558" y="372.238" fill="#1D1D1B" width="4.218" height="2.952"/>
<rect x="562.218" y="369.286" fill="#1D1D1B" width="4.218" height="2.952"/>
<rect x="566.436" y="366.334" fill="#1D1D1B" width="4.217" height="2.952"/>
<rect x="570.652" y="363.382" fill="#1D1D1B" width="4.217" height="2.952"/>
<rect x="574.869" y="360.43" fill="#1D1D1B" width="4.218" height="2.952"/>
<rect x="579.087" y="357.478" fill="#1D1D1B" width="4.218" height="2.952"/>
<rect x="583.305" y="354.525" fill="#1D1D1B" width="4.217" height="2.952"/>
<rect x="587.521" y="351.573" fill="#1D1D1B" width="4.219" height="2.952"/>
<rect x="591.74" y="348.621" fill="#1D1D1B" width="4.217" height="2.952"/>
<rect x="595.957" y="345.669" fill="#1D1D1B" width="4.218" height="2.952"/>
<rect x="600.175" y="342.717" fill="#1D1D1B" width="4.217" height="2.952"/>
<rect x="604.392" y="339.765" fill="#1D1D1B" width="4.217" height="2.952"/>
<rect x="608.608" y="336.812" fill="#1D1D1B" width="4.217" height="2.952"/>
<rect x="435.696" y="310.242" fill="#1D1D1B" width="4.218" height="2.953"/>
<rect x="439.914" y="307.291" fill="#1D1D1B" width="4.217" height="2.951"/>
<rect x="444.131" y="304.339" fill="#1D1D1B" width="4.217" height="2.952"/>
<rect x="448.348" y="301.386" fill="#1D1D1B" width="4.218" height="2.953"/>
<rect x="452.565" y="298.434" fill="#1D1D1B" width="4.218" height="2.952"/>
<rect x="456.783" y="295.481" fill="#1D1D1B" width="4.217" height="2.952"/>
<rect x="461" y="292.529" fill="#1D1D1B" width="4.219" height="2.952"/>
<rect x="465.219" y="289.577" fill="#1D1D1B" width="4.216" height="2.952"/>
<rect x="469.435" y="286.625" fill="#1D1D1B" width="4.218" height="2.952"/>
<rect x="473.652" y="283.673" fill="#1D1D1B" width="4.217" height="2.952"/>
<rect x="477.869" y="280.721" fill="#1D1D1B" width="4.219" height="2.952"/>
<rect x="482.088" y="277.769" fill="#1D1D1B" width="4.217" height="2.952"/>
<rect x="486.305" y="274.816" fill="#1D1D1B" width="4.218" height="2.952"/>
<rect x="490.522" y="271.864" fill="#1D1D1B" width="4.218" height="2.952"/>
<rect x="494.74" y="268.912" fill="#1D1D1B" width="4.217" height="2.952"/>
<rect x="498.957" y="265.96" fill="#1D1D1B" width="4.218" height="2.952"/>
<rect x="503.175" y="263.008" fill="#1D1D1B" width="4.217" height="2.952"/>
<rect x="507.392" y="260.056" fill="#1D1D1B" width="4.217" height="2.952"/>
<rect x="511.608" y="257.104" fill="#1D1D1B" width="4.217" height="2.952"/>
<polygon fill="#1D1D1B" points="541.131,422.425 541.131,419.474 541.131,416.521 541.131,413.568 541.131,410.616 541.131,407.665 
	541.131,404.712 541.131,401.76 541.131,398.808 541.131,395.855 541.131,392.903 541.131,389.951 541.131,387 536.914,387 
	536.914,389.951 536.914,392.903 536.914,395.855 536.914,398.808 536.914,401.76 536.914,404.712 536.914,407.665 536.914,410.616 
	536.914,413.568 536.914,416.521 536.914,419.474 536.914,422.425 536.914,425.378 532.694,425.378 532.694,428.33 536.914,428.33 
	536.914,431.282 541.131,431.282 541.131,428.33 545.349,428.33 545.349,425.378 541.131,425.378 "/>
<polygon fill="#1D1D1B" points="435.696,351.573 439.914,351.573 439.914,348.621 435.696,348.621 435.696,345.669 435.696,342.717 
	435.696,339.765 435.696,336.812 435.696,333.86 435.696,330.908 435.696,327.956 435.696,325.004 435.696,322.051 435.696,319.1 
	439.914,319.1 439.914,316.147 435.696,316.147 435.696,313.195 431.478,313.195 431.478,316.147 431.478,319.1 431.478,322.051 
	431.478,325.004 431.478,327.956 431.478,330.908 431.478,333.86 431.478,336.812 431.478,339.765 431.478,342.717 427.261,342.717 
	427.261,345.669 431.478,345.669 431.478,348.621 431.478,351.573 431.478,354.525 431.478,357.478 435.696,357.478 
	435.696,354.525 "/>
<polygon fill="#1D1D1B" points="646.566,357.478 642.348,357.478 638.131,357.478 633.913,357.478 629.694,357.478 625.478,357.478 
	621.261,357.478 621.261,354.525 621.261,351.573 621.261,348.621 621.261,345.669 621.261,342.717 621.261,339.765 
	621.261,336.812 621.261,333.86 621.261,330.908 617.044,330.908 617.044,333.86 612.825,333.86 612.825,336.812 617.044,336.812 
	617.044,339.765 617.044,342.717 617.044,345.669 617.044,348.621 617.044,351.573 617.044,354.525 617.044,357.478 617.044,360.43 
	617.044,363.382 617.044,366.334 617.044,369.286 617.044,372.238 617.044,375.19 621.261,375.19 621.261,372.238 621.261,369.286 
	621.261,366.334 621.261,363.382 621.261,360.43 625.478,360.43 629.694,360.43 633.913,360.43 638.131,360.43 642.348,360.43 
	646.566,360.43 650.782,360.43 650.782,357.478 "/>
<polygon fill="#1D1D1B" points="676.087,360.43 671.87,360.43 667.652,360.43 663.436,360.43 659.218,360.43 655.001,360.43 
	650.782,360.43 650.782,363.382 655.001,363.382 659.218,363.382 663.436,363.382 667.652,363.382 671.87,363.382 676.087,363.382 
	680.304,363.382 680.304,360.43 "/>
<polygon fill="#1D1D1B" points="705.608,363.382 701.392,363.382 697.175,363.382 692.957,363.382 688.739,363.382 684.521,363.382 
	680.304,363.382 680.304,366.334 684.521,366.334 688.739,366.334 692.957,366.334 697.175,366.334 701.392,366.334 
	705.608,366.334 709.825,366.334 709.825,363.382 "/>
<polygon fill="#1D1D1B" points="735.131,366.334 730.913,366.334 726.696,366.334 722.479,366.334 718.262,366.334 714.044,366.334 
	709.825,366.334 709.825,369.286 714.044,369.286 718.262,369.286 722.479,369.286 726.696,369.286 730.913,369.286 
	735.131,369.286 739.348,369.286 739.348,366.334 "/>
<polygon fill="#1D1D1B" points="764.652,369.286 760.436,369.286 756.219,369.286 752,369.286 747.782,369.286 743.565,369.286 
	739.348,369.286 739.348,372.238 743.565,372.238 747.782,372.238 752,372.238 756.219,372.238 760.436,372.238 764.652,372.238 
	768.87,372.238 768.87,369.286 "/>
<polygon fill="#1D1D1B" points="794.175,372.238 789.957,372.238 785.739,372.238 781.521,372.238 777.304,372.238 773.087,372.238 
	768.87,372.238 768.87,375.19 773.087,375.19 777.304,375.19 781.521,375.19 785.739,375.19 789.957,375.19 794.175,375.19 
	798.392,375.19 798.392,372.238 "/>
<polygon fill="#1D1D1B" points="823.696,375.19 819.479,375.19 815.262,375.19 811.045,375.19 806.825,375.19 802.608,375.19 
	798.392,375.19 798.392,378.143 802.608,378.143 806.825,378.143 811.045,378.143 815.262,378.143 819.479,378.143 823.696,378.143 
	827.914,378.143 827.914,375.19 "/>
<polygon fill="#1D1D1B" points="853.218,378.143 849,378.143 844.782,378.143 840.565,378.143 836.348,378.143 832.131,378.143 
	827.914,378.143 827.914,381.095 832.131,381.095 836.348,381.095 840.565,381.095 844.782,381.095 849,381.095 853.218,381.095 
	857.436,381.095 857.436,378.143 "/>
<polygon fill="#1D1D1B" points="882.74,381.095 878.522,381.095 874.304,381.095 870.087,381.095 865.869,381.095 861.652,381.095 
	857.436,381.095 857.436,384.047 861.652,384.047 865.869,384.047 870.087,384.047 874.304,384.047 878.522,384.047 882.74,384.047 
	886.957,384.047 886.957,381.095 "/>
<polygon fill="#1D1D1B" points="891.175,384.047 886.957,384.047 886.957,387 891.175,387 895.392,387 899.608,387 899.608,384.047 
	895.392,384.047 "/>
<rect x="444.131" y="401.76" fill="#1D1D1B" width="4.217" height="2.952"/>
<rect x="439.914" y="398.808" fill="#1D1D1B" width="4.217" height="2.952"/>
<rect x="435.696" y="395.855" fill="#1D1D1B" width="4.218" height="2.952"/>
<rect x="431.478" y="392.903" fill="#1D1D1B" width="4.219" height="2.952"/>
<rect x="427.261" y="389.951" fill="#1D1D1B" width="4.217" height="2.952"/>
<rect x="423.042" y="387" fill="#1D1D1B" width="4.219" height="2.951"/>
<rect x="418.825" y="384.047" fill="#1D1D1B" width="4.217" height="2.953"/>
<rect x="414.608" y="381.095" fill="#1D1D1B" width="4.217" height="2.952"/>
<rect x="410.392" y="378.143" fill="#1D1D1B" width="4.217" height="2.952"/>
<rect x="452.565" y="395.855" fill="#1D1D1B" width="4.218" height="2.952"/>
<rect x="448.348" y="392.903" fill="#1D1D1B" width="4.218" height="2.952"/>
<rect x="444.131" y="389.951" fill="#1D1D1B" width="4.217" height="2.952"/>
<polygon fill="#1D1D1B" points="359.783,658.6 359.783,661.551 359.783,664.502 359.783,667.455 364,667.455 364,664.502 
	364,661.551 364,658.6 364,655.646 359.783,655.646 "/>
<polygon fill="#1D1D1B" points="364,646.791 364,649.742 364,652.695 364,655.646 368.218,655.646 368.218,652.695 368.218,649.742 
	368.218,646.791 368.218,643.838 364,643.838 "/>
<polygon fill="#1D1D1B" points="368.218,634.982 368.218,637.934 368.218,640.885 368.218,643.838 372.436,643.838 372.436,640.885 
	372.436,637.934 372.436,634.982 372.436,632.029 368.218,632.029 "/>
<polygon fill="#1D1D1B" points="372.436,623.172 372.436,626.125 372.436,629.076 372.436,632.029 376.652,632.029 376.652,629.076 
	376.652,626.125 376.652,623.172 376.652,620.221 372.436,620.221 "/>
<polygon fill="#1D1D1B" points="376.652,611.365 376.652,614.316 376.652,617.268 376.652,620.221 380.87,620.221 380.87,617.268 
	380.87,614.316 380.87,611.365 380.87,608.412 376.652,608.412 "/>
<polygon fill="#1D1D1B" points="380.87,599.555 380.87,602.508 380.87,605.459 380.87,608.412 385.088,608.412 385.088,605.459 
	385.088,602.508 385.088,599.555 385.088,596.604 380.87,596.604 "/>
<polygon fill="#1D1D1B" points="385.088,587.746 385.088,590.699 385.088,593.65 385.088,596.604 389.305,596.604 389.305,593.65 
	389.305,590.699 389.305,587.746 389.305,584.795 385.088,584.795 "/>
<polygon fill="#1D1D1B" points="389.305,575.938 389.305,578.891 389.305,581.842 389.305,584.795 393.522,584.795 393.522,581.842 
	393.522,578.891 393.522,575.938 393.522,572.986 389.305,572.986 "/>
<polygon fill="#1D1D1B" points="393.522,564.129 393.522,567.082 393.522,570.035 393.522,572.986 397.739,572.986 397.739,570.035 
	397.739,567.082 397.739,564.129 397.739,561.178 393.522,561.178 "/>
<polygon fill="#1D1D1B" points="397.739,552.32 397.739,555.273 397.739,558.225 397.739,561.178 401.957,561.178 401.957,558.225 
	401.957,555.273 401.957,552.32 401.957,549.367 397.739,549.367 "/>
<polygon fill="#1D1D1B" points="401.957,540.512 401.957,543.465 401.957,546.416 401.957,549.367 406.175,549.367 406.175,546.416 
	406.175,543.465 406.175,540.512 406.175,537.561 401.957,537.561 "/>
<polygon fill="#1D1D1B" points="406.175,528.703 406.175,531.654 406.175,534.607 406.175,537.561 410.392,537.561 410.392,534.607 
	410.392,531.654 410.392,528.703 410.392,525.752 406.175,525.752 "/>
<polygon fill="#1D1D1B" points="410.392,516.895 410.392,519.848 410.392,522.799 410.392,525.752 414.608,525.752 414.608,522.799 
	414.608,519.848 414.608,516.895 414.608,513.943 410.392,513.943 "/>
<polygon fill="#1D1D1B" points="414.608,505.086 414.608,508.037 414.608,510.99 414.608,513.943 418.825,513.943 418.825,510.99 
	418.825,508.037 418.825,505.086 418.825,502.135 414.608,502.135 "/>
<polygon fill="#1D1D1B" points="418.825,493.277 418.825,496.23 418.825,499.182 418.825,502.135 423.042,502.135 423.042,499.182 
	423.042,496.23 423.042,493.277 423.042,490.326 418.825,490.326 "/>
<polygon fill="#1D1D1B" points="423.042,481.469 423.042,484.42 423.042,487.373 423.042,490.326 427.261,490.326 427.261,487.373 
	427.261,484.42 427.261,481.469 427.261,478.518 423.042,478.518 "/>
<polygon fill="#1D1D1B" points="427.261,469.66 427.261,472.611 427.261,475.564 427.261,478.518 431.478,478.518 431.478,475.564 
	431.478,472.611 431.478,469.66 431.478,466.708 427.261,466.708 "/>
<polygon fill="#1D1D1B" points="431.478,457.852 431.478,460.804 431.478,463.756 431.478,466.708 435.696,466.708 435.696,463.756 
	435.696,460.804 435.696,457.852 435.696,454.899 431.478,454.899 "/>
<polygon fill="#1D1D1B" points="435.696,446.043 435.696,448.995 435.696,451.947 435.696,454.899 439.914,454.899 439.914,451.947 
	439.914,448.995 439.914,446.043 439.914,443.091 435.696,443.091 "/>
<polygon fill="#1D1D1B" points="448.348,428.33 448.348,425.378 448.348,422.425 448.348,419.474 444.131,419.474 444.131,422.425 
	444.131,425.378 444.131,428.33 444.131,431.282 448.348,431.282 "/>
<polygon fill="#1D1D1B" points="186.869,387 182.652,387 178.436,387 174.218,387 170,387 165.783,387 161.565,387 161.565,389.951 
	165.783,389.951 170,389.951 174.218,389.951 178.436,389.951 182.652,389.951 186.869,389.951 191.088,389.951 191.088,387 "/>
<polygon fill="#1D1D1B" points="216.392,389.951 212.175,389.951 207.957,389.951 203.74,389.951 199.522,389.951 195.305,389.951 
	191.088,389.951 191.088,392.903 195.305,392.903 199.522,392.903 203.74,392.903 207.957,392.903 212.175,392.903 216.392,392.903 
	220.608,392.903 220.608,389.951 "/>
<polygon fill="#1D1D1B" points="127.825,381.095 123.608,381.095 119.392,381.095 115.175,381.095 110.957,381.095 106.739,381.095 
	102.521,381.095 102.521,384.047 106.739,384.047 110.957,384.047 115.175,384.047 119.392,384.047 123.608,384.047 
	127.825,384.047 132.044,384.047 132.044,381.095 "/>
<polygon fill="#1D1D1B" points="157.348,384.047 153.131,384.047 148.914,384.047 144.696,384.047 140.478,384.047 136.261,384.047 
	132.044,384.047 132.044,387 136.261,387 140.478,387 144.696,387 148.914,387 153.131,387 157.348,387 161.565,387 
	161.565,384.047 "/>
<polygon fill="#1D1D1B" points="245.914,392.903 241.694,392.903 237.478,392.903 233.261,392.903 229.044,392.903 224.825,392.903 
	220.608,392.903 220.608,395.855 224.825,395.855 229.044,395.855 233.261,395.855 237.478,395.855 241.694,395.855 
	245.914,395.855 250.131,395.855 250.131,392.903 "/>
<polygon fill="#1D1D1B" points="275.436,395.855 271.218,395.855 267,395.855 262.783,395.855 258.564,395.855 254.349,395.855 
	250.131,395.855 250.131,398.808 254.349,398.808 258.564,398.808 262.783,398.808 267,398.808 271.218,398.808 275.436,398.808 
	279.652,398.808 279.652,395.855 "/>
<polygon fill="#1D1D1B" points="304.957,398.808 300.74,398.808 296.521,398.808 292.305,398.808 288.088,398.808 283.87,398.808 
	279.652,398.808 279.652,401.76 283.87,401.76 288.088,401.76 292.305,401.76 296.521,401.76 300.74,401.76 304.957,401.76 
	309.175,401.76 309.175,398.808 "/>
<polygon fill="#1D1D1B" points="334.478,401.76 330.261,401.76 326.044,401.76 321.825,401.76 317.608,401.76 313.391,401.76 
	309.175,401.76 309.175,404.712 313.391,404.712 317.608,404.712 321.825,404.712 326.044,404.712 330.261,404.712 334.478,404.712 
	338.696,404.712 338.696,401.76 "/>
<polygon fill="#1D1D1B" points="364,404.712 359.783,404.712 355.566,404.712 351.348,404.712 347.131,404.712 342.913,404.712 
	338.696,404.712 338.696,407.665 342.913,407.665 347.131,407.665 351.348,407.665 355.566,407.665 359.783,407.665 364,407.665 
	368.218,407.665 368.218,404.712 "/>
<polygon fill="#1D1D1B" points="393.522,407.665 389.305,407.665 385.088,407.665 380.87,407.665 376.652,407.665 372.436,407.665 
	368.218,407.665 368.218,410.616 372.436,410.616 376.652,410.616 380.87,410.616 385.088,410.616 389.305,410.616 393.522,410.616 
	397.739,410.616 397.739,407.665 "/>
<polygon fill="#1D1D1B" points="423.042,413.568 427.261,413.568 427.261,410.616 423.042,410.616 418.825,410.616 414.608,410.616 
	410.392,410.616 410.392,407.665 410.392,404.712 406.175,404.712 406.175,407.665 406.175,410.616 401.957,410.616 
	397.739,410.616 397.739,413.568 401.957,413.568 406.175,413.568 410.392,413.568 414.608,413.568 414.608,416.521 
	418.825,416.521 418.825,413.568 "/>
<polygon fill="#1D1D1B" points="431.478,416.521 435.696,416.521 439.914,416.521 439.914,413.568 435.696,413.568 431.478,413.568 
	427.261,413.568 427.261,416.521 "/>
<rect x="439.914" y="387" fill="#1D1D1B" width="4.217" height="2.951"/>
<rect x="435.696" y="384.047" fill="#1D1D1B" width="4.218" height="2.953"/>
<rect x="431.478" y="381.095" fill="#1D1D1B" width="4.219" height="2.952"/>
<rect x="427.261" y="378.143" fill="#1D1D1B" width="4.217" height="2.952"/>
<rect x="423.042" y="375.19" fill="#1D1D1B" width="4.219" height="2.952"/>
<rect x="418.825" y="372.238" fill="#1D1D1B" width="4.217" height="2.952"/>
<polygon fill="#1D1D1B" points="418.825,372.238 418.825,369.286 414.608,369.286 410.392,369.286 410.392,372.238 414.608,372.238 
	"/>
<rect x="435.696" y="428.33" fill="#1D1D1B" width="4.218" height="2.952"/>
<rect x="431.478" y="425.378" fill="#1D1D1B" width="4.219" height="2.952"/>
<rect x="427.261" y="422.425" fill="#1D1D1B" width="4.217" height="2.953"/>
<rect x="423.042" y="419.474" fill="#1D1D1B" width="4.219" height="2.951"/>
<rect x="418.825" y="416.521" fill="#1D1D1B" width="4.217" height="2.953"/>
<polygon fill="#1D1D1B" points="456.783,431.282 456.783,428.33 456.783,425.378 456.783,422.425 456.783,419.474 456.783,416.521 
	456.783,413.568 456.783,410.616 452.565,410.616 452.565,413.568 452.565,416.521 452.565,419.474 452.565,422.425 
	452.566,422.425 452.566,425.378 452.565,425.378 452.565,428.33 452.565,431.282 452.565,434.234 452.565,437.187 448.348,437.187 
	448.348,440.139 452.565,440.139 456.783,440.139 456.783,437.187 461,437.187 461,434.234 456.783,434.234 "/>
<polygon fill="#1D1D1B" points="461,410.616 461,413.568 461,416.521 461,419.474 461,422.425 461,425.378 461,428.33 461,431.282 
	461,434.234 465.219,434.234 465.219,431.282 465.219,428.33 465.219,425.378 465.219,422.425 465.219,419.474 465.219,416.521 
	465.219,413.568 465.219,410.616 465.219,407.665 465.219,404.712 461,404.712 461,407.665 "/>
<polygon fill="#1D1D1B" points="456.783,404.712 461,404.712 461,401.76 461,398.808 456.783,398.808 456.783,401.76 "/>
<polygon fill="#1D1D1B" points="448.348,410.616 452.565,410.616 452.565,407.665 452.565,404.712 448.348,404.712 448.348,407.665 
	"/>
<rect x="444.131" y="413.568" fill="#1D1D1B" width="4.217" height="2.952"/>
<polygon fill="#1D1D1B" points="401.957,384.047 401.957,387 401.957,389.951 401.957,392.903 401.957,395.855 401.957,398.808 
	401.957,401.76 401.957,404.712 406.175,404.712 406.175,401.76 406.175,398.808 406.175,395.855 406.175,392.903 406.175,389.951 
	406.177,389.951 406.177,387 406.175,387 406.175,384.047 406.175,381.095 406.175,378.143 410.392,378.143 410.392,375.19 
	410.392,372.238 406.175,372.238 406.175,375.19 401.957,375.19 401.957,378.143 401.957,381.095 397.739,381.095 397.739,384.047 
	"/>
<rect x="393.522" y="378.143" fill="#1D1D1B" width="4.217" height="2.952"/>
<rect x="389.305" y="375.19" fill="#1D1D1B" width="4.218" height="2.952"/>
<rect x="385.088" y="372.238" fill="#1D1D1B" width="4.217" height="2.952"/>
<rect x="380.87" y="369.286" fill="#1D1D1B" width="4.218" height="2.952"/>
<rect x="376.652" y="366.334" fill="#1D1D1B" width="4.218" height="2.952"/>
<rect x="372.436" y="363.382" fill="#1D1D1B" width="4.217" height="2.952"/>
<rect x="380.87" y="351.573" fill="#1D1D1B" width="4.218" height="2.952"/>
<rect x="385.088" y="348.621" fill="#1D1D1B" width="4.217" height="2.952"/>
<rect x="389.305" y="345.669" fill="#1D1D1B" width="4.218" height="2.952"/>
<rect x="368.218" y="360.43" fill="#1D1D1B" width="4.218" height="2.952"/>
<rect x="372.436" y="357.478" fill="#1D1D1B" width="4.217" height="2.952"/>
<rect x="376.652" y="354.525" fill="#1D1D1B" width="4.218" height="2.952"/>
<rect x="401.957" y="336.812" fill="#1D1D1B" width="4.218" height="2.952"/>
<rect x="406.175" y="333.86" fill="#1D1D1B" width="4.217" height="2.952"/>
<rect x="410.392" y="330.908" fill="#1D1D1B" width="4.217" height="2.952"/>
<rect x="414.608" y="333.86" fill="#1D1D1B" width="4.217" height="2.952"/>
<rect x="418.825" y="336.812" fill="#1D1D1B" width="4.217" height="2.952"/>
<rect x="423.042" y="339.765" fill="#1D1D1B" width="4.219" height="2.952"/>
<rect x="439.914" y="351.573" fill="#1D1D1B" width="4.217" height="2.952"/>
<rect x="444.131" y="354.525" fill="#1D1D1B" width="4.217" height="2.952"/>
<rect x="448.348" y="351.573" fill="#1D1D1B" width="4.218" height="2.952"/>
<polygon fill="#1D1D1B" points="456.783,354.525 461,354.525 461,351.573 465.219,351.573 465.219,348.621 461,348.621 461,345.669 
	456.783,345.669 456.783,342.717 452.565,342.717 452.565,345.669 448.348,345.669 448.348,348.621 452.565,348.621 
	452.565,351.573 456.783,351.573 "/>
<rect x="393.522" y="342.717" fill="#1D1D1B" width="4.217" height="2.952"/>
<rect x="397.739" y="339.765" fill="#1D1D1B" width="4.218" height="2.952"/>
<polygon fill="#1D1D1B" points="444.131,434.234 444.131,431.282 439.914,431.282 439.914,434.234 439.914,437.187 439.914,440.139 
	439.914,443.091 444.131,443.091 444.131,440.139 444.131,437.187 448.348,437.187 448.348,434.234 "/>
<rect x="891.175" y="203.965" fill="#1D1D1B" width="4.217" height="2.951"/>
<rect x="886.957" y="201.012" fill="#1D1D1B" width="4.218" height="2.953"/>
<rect x="882.74" y="198.06" fill="#1D1D1B" width="4.217" height="2.952"/>
<rect x="878.522" y="195.108" fill="#1D1D1B" width="4.218" height="2.951"/>
<rect x="874.304" y="192.155" fill="#1D1D1B" width="4.219" height="2.953"/>
<rect x="870.087" y="189.204" fill="#1D1D1B" width="4.217" height="2.951"/>
<rect x="865.869" y="186.251" fill="#1D1D1B" width="4.218" height="2.953"/>
<rect x="861.652" y="183.3" fill="#1D1D1B" width="4.217" height="2.951"/>
<rect x="857.436" y="180.347" fill="#1D1D1B" width="4.217" height="2.953"/>
<rect x="853.218" y="177.395" fill="#1D1D1B" width="4.218" height="2.952"/>
<rect x="849" y="174.442" fill="#1D1D1B" width="4.218" height="2.952"/>
<rect x="844.782" y="171.491" fill="#1D1D1B" width="4.218" height="2.951"/>
<rect x="840.565" y="168.538" fill="#1D1D1B" width="4.217" height="2.953"/>
<rect x="836.348" y="165.586" fill="#1D1D1B" width="4.218" height="2.952"/>
<rect x="832.131" y="162.634" fill="#1D1D1B" width="4.217" height="2.952"/>
<rect x="827.914" y="159.682" fill="#1D1D1B" width="4.217" height="2.952"/>
<rect x="823.696" y="156.729" fill="#1D1D1B" width="4.218" height="2.952"/>
<rect x="819.479" y="153.777" fill="#1D1D1B" width="4.218" height="2.952"/>
<rect x="815.262" y="150.825" fill="#1D1D1B" width="4.217" height="2.952"/>
<rect x="811.045" y="147.873" fill="#1D1D1B" width="4.217" height="2.952"/>
<rect x="806.825" y="144.921" fill="#1D1D1B" width="4.22" height="2.952"/>
<rect x="802.608" y="141.969" fill="#1D1D1B" width="4.217" height="2.952"/>
<rect x="798.392" y="139.017" fill="#1D1D1B" width="4.217" height="2.952"/>
<rect x="794.175" y="136.064" fill="#1D1D1B" width="4.217" height="2.952"/>
<rect x="789.957" y="133.112" fill="#1D1D1B" width="4.218" height="2.952"/>
<rect x="785.739" y="130.16" fill="#1D1D1B" width="4.218" height="2.952"/>
<rect x="781.521" y="127.208" fill="#1D1D1B" width="4.219" height="2.952"/>
<rect x="777.304" y="124.256" fill="#1D1D1B" width="4.217" height="2.952"/>
<rect x="773.087" y="121.304" fill="#1D1D1B" width="4.217" height="2.952"/>
<rect x="768.87" y="118.352" fill="#1D1D1B" width="4.217" height="2.952"/>
<rect x="764.652" y="115.399" fill="#1D1D1B" width="4.218" height="2.952"/>
<rect x="760.436" y="112.447" fill="#1D1D1B" width="4.217" height="2.952"/>
<rect x="756.219" y="109.495" fill="#1D1D1B" width="4.217" height="2.952"/>
<rect x="752" y="106.543" fill="#1D1D1B" width="4.219" height="2.952"/>
<rect x="747.782" y="103.591" fill="#1D1D1B" width="4.218" height="2.952"/>
<rect x="743.565" y="100.639" fill="#1D1D1B" width="4.217" height="2.952"/>
<rect x="739.348" y="97.687" fill="#1D1D1B" width="4.218" height="2.952"/>
<rect x="735.131" y="94.733" fill="#1D1D1B" width="4.217" height="2.953"/>
<rect x="730.913" y="91.782" fill="#1D1D1B" width="4.218" height="2.951"/>
<rect x="726.696" y="88.829" fill="#1D1D1B" width="4.217" height="2.953"/>
<rect x="722.479" y="85.878" fill="#1D1D1B" width="4.218" height="2.951"/>
<rect x="718.262" y="82.925" fill="#1D1D1B" width="4.217" height="2.953"/>
<rect x="714.044" y="79.974" fill="#1D1D1B" width="4.218" height="2.951"/>
<rect x="709.825" y="77.021" fill="#1D1D1B" width="4.219" height="2.953"/>
<rect x="705.608" y="74.068" fill="#1D1D1B" width="4.217" height="2.952"/>
<rect x="701.392" y="71.116" fill="#1D1D1B" width="4.217" height="2.952"/>
<rect x="697.175" y="68.165" fill="#1D1D1B" width="4.217" height="2.951"/>
<rect x="692.957" y="65.212" fill="#1D1D1B" width="4.218" height="2.953"/>
<rect x="882.74" y="209.869" fill="#1D1D1B" width="4.217" height="2.951"/>
<rect x="878.522" y="206.916" fill="#1D1D1B" width="4.218" height="2.953"/>
<rect x="874.304" y="203.965" fill="#1D1D1B" width="4.219" height="2.951"/>
<rect x="870.087" y="201.012" fill="#1D1D1B" width="4.217" height="2.953"/>
<rect x="865.869" y="198.06" fill="#1D1D1B" width="4.218" height="2.952"/>
<rect x="861.652" y="195.108" fill="#1D1D1B" width="4.217" height="2.951"/>
<rect x="857.436" y="192.155" fill="#1D1D1B" width="4.217" height="2.953"/>
<rect x="853.218" y="189.204" fill="#1D1D1B" width="4.218" height="2.951"/>
<rect x="849" y="186.251" fill="#1D1D1B" width="4.218" height="2.953"/>
<rect x="844.782" y="183.3" fill="#1D1D1B" width="4.218" height="2.951"/>
<polygon fill="#1D1D1B" points="798.174,217.005 798.174,214.052 798.174,211.101 793.957,211.101 789.739,211.101 789.739,214.052 
	789.739,217.005 793.957,217.005 "/>
<rect x="840.565" y="180.347" fill="#1D1D1B" width="4.217" height="2.953"/>
<rect x="836.348" y="177.395" fill="#1D1D1B" width="4.218" height="2.952"/>
<rect x="832.131" y="174.442" fill="#1D1D1B" width="4.217" height="2.952"/>
<rect x="827.914" y="171.491" fill="#1D1D1B" width="4.217" height="2.951"/>
<rect x="823.696" y="168.538" fill="#1D1D1B" width="4.218" height="2.953"/>
<rect x="819.479" y="165.586" fill="#1D1D1B" width="4.218" height="2.952"/>
<rect x="815.262" y="162.634" fill="#1D1D1B" width="4.217" height="2.952"/>
<rect x="811.045" y="159.682" fill="#1D1D1B" width="4.217" height="2.952"/>
<rect x="806.825" y="156.729" fill="#1D1D1B" width="4.22" height="2.952"/>
<rect x="802.608" y="153.777" fill="#1D1D1B" width="4.217" height="2.952"/>
<rect x="798.392" y="150.825" fill="#1D1D1B" width="4.217" height="2.952"/>
<rect x="794.175" y="147.873" fill="#1D1D1B" width="4.217" height="2.952"/>
<rect x="789.957" y="144.921" fill="#1D1D1B" width="4.218" height="2.952"/>
<rect x="785.739" y="141.969" fill="#1D1D1B" width="4.218" height="2.952"/>
<rect x="781.521" y="139.017" fill="#1D1D1B" width="4.219" height="2.952"/>
<rect x="777.304" y="136.064" fill="#1D1D1B" width="4.217" height="2.952"/>
<rect x="773.087" y="133.112" fill="#1D1D1B" width="4.217" height="2.952"/>
<rect x="768.87" y="130.16" fill="#1D1D1B" width="4.217" height="2.952"/>
<rect x="764.652" y="127.208" fill="#1D1D1B" width="4.218" height="2.952"/>
<rect x="760.436" y="124.256" fill="#1D1D1B" width="4.217" height="2.952"/>
<rect x="756.219" y="121.304" fill="#1D1D1B" width="4.217" height="2.952"/>
<rect x="752" y="118.352" fill="#1D1D1B" width="4.219" height="2.952"/>
<rect x="747.782" y="115.399" fill="#1D1D1B" width="4.218" height="2.952"/>
<rect x="743.565" y="112.447" fill="#1D1D1B" width="4.217" height="2.952"/>
<rect x="739.348" y="109.495" fill="#1D1D1B" width="4.218" height="2.952"/>
<rect x="735.131" y="106.543" fill="#1D1D1B" width="4.217" height="2.952"/>
<rect x="730.913" y="103.591" fill="#1D1D1B" width="4.218" height="2.952"/>
<rect x="726.696" y="100.639" fill="#1D1D1B" width="4.217" height="2.952"/>
<rect x="722.479" y="97.687" fill="#1D1D1B" width="4.218" height="2.952"/>
<rect x="718.262" y="94.733" fill="#1D1D1B" width="4.217" height="2.953"/>
<rect x="714.044" y="91.782" fill="#1D1D1B" width="4.218" height="2.951"/>
<rect x="709.825" y="88.829" fill="#1D1D1B" width="4.219" height="2.953"/>
<rect x="705.608" y="85.878" fill="#1D1D1B" width="4.217" height="2.951"/>
<rect x="701.392" y="82.925" fill="#1D1D1B" width="4.217" height="2.953"/>
<rect x="697.175" y="79.974" fill="#1D1D1B" width="4.217" height="2.951"/>
<rect x="692.957" y="77.021" fill="#1D1D1B" width="4.218" height="2.953"/>
<rect x="882.74" y="357.478" fill="#1D1D1B" width="4.217" height="2.952"/>
<rect x="878.522" y="354.525" fill="#1D1D1B" width="4.218" height="2.952"/>
<rect x="874.304" y="351.573" fill="#1D1D1B" width="4.219" height="2.952"/>
<rect x="870.087" y="348.621" fill="#1D1D1B" width="4.217" height="2.952"/>
<rect x="865.869" y="345.669" fill="#1D1D1B" width="4.218" height="2.952"/>
<rect x="861.652" y="342.717" fill="#1D1D1B" width="4.217" height="2.952"/>
<rect x="857.436" y="339.765" fill="#1D1D1B" width="4.217" height="2.952"/>
<rect x="853.218" y="336.812" fill="#1D1D1B" width="4.218" height="2.952"/>
<rect x="849" y="333.86" fill="#1D1D1B" width="4.218" height="2.952"/>
<rect x="844.782" y="330.908" fill="#1D1D1B" width="4.218" height="2.952"/>
<rect x="840.565" y="327.956" fill="#1D1D1B" width="4.217" height="2.952"/>
<rect x="836.348" y="325.004" fill="#1D1D1B" width="4.218" height="2.952"/>
<rect x="832.131" y="322.051" fill="#1D1D1B" width="4.217" height="2.953"/>
<rect x="827.914" y="319.1" fill="#1D1D1B" width="4.217" height="2.951"/>
<rect x="823.696" y="316.147" fill="#1D1D1B" width="4.218" height="2.952"/>
<rect x="819.479" y="313.195" fill="#1D1D1B" width="4.218" height="2.952"/>
<rect x="815.262" y="310.242" fill="#1D1D1B" width="4.217" height="2.953"/>
<rect x="811.045" y="307.291" fill="#1D1D1B" width="4.217" height="2.951"/>
<rect x="806.825" y="304.339" fill="#1D1D1B" width="4.22" height="2.952"/>
<rect x="802.608" y="301.386" fill="#1D1D1B" width="4.217" height="2.953"/>
<rect x="798.392" y="298.434" fill="#1D1D1B" width="4.217" height="2.952"/>
<rect x="794.175" y="295.481" fill="#1D1D1B" width="4.217" height="2.952"/>
<rect x="789.957" y="292.529" fill="#1D1D1B" width="4.218" height="2.952"/>
<rect x="785.739" y="289.577" fill="#1D1D1B" width="4.218" height="2.952"/>
<rect x="781.521" y="286.625" fill="#1D1D1B" width="4.219" height="2.952"/>
<rect x="777.304" y="283.673" fill="#1D1D1B" width="4.217" height="2.952"/>
<rect x="773.087" y="280.721" fill="#1D1D1B" width="4.217" height="2.952"/>
<rect x="768.87" y="277.769" fill="#1D1D1B" width="4.217" height="2.952"/>
<rect x="764.652" y="274.816" fill="#1D1D1B" width="4.218" height="2.952"/>
<rect x="760.436" y="271.864" fill="#1D1D1B" width="4.217" height="2.952"/>
<rect x="756.219" y="268.912" fill="#1D1D1B" width="4.217" height="2.952"/>
<rect x="752" y="265.96" fill="#1D1D1B" width="4.219" height="2.952"/>
<rect x="747.782" y="263.008" fill="#1D1D1B" width="4.218" height="2.952"/>
<rect x="743.565" y="260.056" fill="#1D1D1B" width="4.217" height="2.952"/>
<rect x="739.348" y="257.104" fill="#1D1D1B" width="4.218" height="2.952"/>
<rect x="735.131" y="254.151" fill="#1D1D1B" width="4.217" height="2.952"/>
<rect x="730.913" y="251.199" fill="#1D1D1B" width="4.218" height="2.952"/>
<rect x="726.696" y="248.247" fill="#1D1D1B" width="4.217" height="2.952"/>
<rect x="722.479" y="245.295" fill="#1D1D1B" width="4.218" height="2.952"/>
<rect x="718.262" y="242.343" fill="#1D1D1B" width="4.217" height="2.952"/>
<rect x="714.044" y="239.391" fill="#1D1D1B" width="4.218" height="2.952"/>
<rect x="709.825" y="236.438" fill="#1D1D1B" width="4.219" height="2.952"/>
<rect x="705.608" y="233.486" fill="#1D1D1B" width="4.217" height="2.952"/>
<rect x="701.392" y="230.534" fill="#1D1D1B" width="4.217" height="2.952"/>
<rect x="697.175" y="227.582" fill="#1D1D1B" width="4.217" height="2.952"/>
<rect x="692.957" y="224.63" fill="#1D1D1B" width="4.218" height="2.952"/>
<rect x="688.739" y="62.26" fill="#1D1D1B" width="4.218" height="2.952"/>
<rect x="886.957" y="372.238" fill="#1D1D1B" width="4.218" height="2.952"/>
<rect x="882.74" y="369.286" fill="#1D1D1B" width="4.217" height="2.952"/>
<rect x="878.522" y="366.334" fill="#1D1D1B" width="4.218" height="2.952"/>
<rect x="874.304" y="363.382" fill="#1D1D1B" width="4.219" height="2.952"/>
<rect x="870.087" y="360.43" fill="#1D1D1B" width="4.217" height="2.952"/>
<rect x="865.869" y="357.478" fill="#1D1D1B" width="4.218" height="2.952"/>
<rect x="861.652" y="354.525" fill="#1D1D1B" width="4.217" height="2.952"/>
<rect x="857.436" y="351.573" fill="#1D1D1B" width="4.217" height="2.952"/>
<rect x="853.218" y="348.621" fill="#1D1D1B" width="4.218" height="2.952"/>
<rect x="849" y="345.669" fill="#1D1D1B" width="4.218" height="2.952"/>
<rect x="844.782" y="342.717" fill="#1D1D1B" width="4.218" height="2.952"/>
<rect x="840.565" y="339.765" fill="#1D1D1B" width="4.217" height="2.952"/>
<rect x="836.348" y="336.812" fill="#1D1D1B" width="4.218" height="2.952"/>
<rect x="832.131" y="333.86" fill="#1D1D1B" width="4.217" height="2.952"/>
<rect x="827.914" y="330.908" fill="#1D1D1B" width="4.217" height="2.952"/>
<rect x="823.696" y="327.956" fill="#1D1D1B" width="4.218" height="2.952"/>
<rect x="819.479" y="325.004" fill="#1D1D1B" width="4.218" height="2.952"/>
<rect x="815.262" y="322.051" fill="#1D1D1B" width="4.217" height="2.953"/>
<rect x="811.045" y="319.1" fill="#1D1D1B" width="4.217" height="2.951"/>
<rect x="806.825" y="316.147" fill="#1D1D1B" width="4.22" height="2.952"/>
<rect x="802.608" y="313.195" fill="#1D1D1B" width="4.217" height="2.952"/>
<rect x="798.392" y="310.242" fill="#1D1D1B" width="4.217" height="2.953"/>
<rect x="794.175" y="307.291" fill="#1D1D1B" width="4.217" height="2.951"/>
<rect x="789.957" y="304.339" fill="#1D1D1B" width="4.218" height="2.952"/>
<rect x="785.739" y="301.386" fill="#1D1D1B" width="4.218" height="2.953"/>
<rect x="781.521" y="298.434" fill="#1D1D1B" width="4.219" height="2.952"/>
<rect x="777.304" y="295.481" fill="#1D1D1B" width="4.217" height="2.952"/>
<rect x="773.087" y="292.529" fill="#1D1D1B" width="4.217" height="2.952"/>
<rect x="768.87" y="289.577" fill="#1D1D1B" width="4.217" height="2.952"/>
<rect x="764.652" y="286.625" fill="#1D1D1B" width="4.218" height="2.952"/>
<rect x="760.436" y="283.673" fill="#1D1D1B" width="4.217" height="2.952"/>
<rect x="756.219" y="280.721" fill="#1D1D1B" width="4.217" height="2.952"/>
<rect x="752" y="277.769" fill="#1D1D1B" width="4.219" height="2.952"/>
<rect x="747.782" y="274.816" fill="#1D1D1B" width="4.218" height="2.952"/>
<rect x="743.565" y="271.864" fill="#1D1D1B" width="4.217" height="2.952"/>
<rect x="739.348" y="268.912" fill="#1D1D1B" width="4.218" height="2.952"/>
<rect x="735.131" y="265.96" fill="#1D1D1B" width="4.217" height="2.952"/>
<rect x="730.913" y="263.008" fill="#1D1D1B" width="4.218" height="2.952"/>
<rect x="726.696" y="260.056" fill="#1D1D1B" width="4.217" height="2.952"/>
<rect x="722.479" y="257.104" fill="#1D1D1B" width="4.218" height="2.952"/>
<rect x="718.262" y="254.151" fill="#1D1D1B" width="4.217" height="2.952"/>
<rect x="714.044" y="251.199" fill="#1D1D1B" width="4.218" height="2.952"/>
<rect x="709.825" y="248.247" fill="#1D1D1B" width="4.219" height="2.952"/>
<rect x="705.608" y="245.295" fill="#1D1D1B" width="4.217" height="2.952"/>
<rect x="701.392" y="242.343" fill="#1D1D1B" width="4.217" height="2.952"/>
<rect x="697.175" y="239.391" fill="#1D1D1B" width="4.217" height="2.952"/>
<rect x="692.957" y="236.438" fill="#1D1D1B" width="4.218" height="2.952"/>
<rect x="688.739" y="233.486" fill="#1D1D1B" width="4.218" height="2.952"/>
<rect x="684.521" y="230.534" fill="#1D1D1B" width="4.219" height="2.952"/>
<polygon fill="#1D1D1B" points="895.392,206.916 895.392,209.869 895.392,212.82 895.392,215.773 895.392,218.725 895.392,221.678 
	895.392,224.63 895.392,227.582 895.392,230.534 895.392,233.486 895.392,236.438 895.392,239.391 895.392,242.343 895.392,245.295 
	895.392,248.247 895.392,251.199 895.392,254.151 895.392,257.104 895.392,260.056 895.392,263.008 895.392,265.96 895.392,268.912 
	895.392,271.864 895.392,274.816 895.392,277.769 895.392,280.721 895.392,283.673 895.392,286.625 895.392,289.577 
	895.392,292.529 895.392,295.481 895.392,298.434 895.392,301.386 895.392,304.339 895.392,307.291 895.392,310.242 
	895.392,313.195 895.392,316.147 895.392,319.1 895.392,322.051 895.392,325.004 895.392,327.956 895.392,330.908 895.392,333.86 
	895.392,336.812 895.392,339.765 895.392,342.717 895.392,345.669 895.392,348.621 895.392,351.573 895.392,354.525 
	895.392,357.478 895.392,360.43 895.392,363.382 895.392,366.334 895.392,369.286 895.392,372.238 895.392,375.19 891.175,375.19 
	891.175,378.143 895.392,378.143 895.392,381.095 899.608,381.095 899.608,378.143 899.608,375.19 899.608,372.238 899.608,369.286 
	899.608,366.334 899.608,363.382 899.608,360.43 899.608,357.478 899.608,354.525 899.608,351.573 899.608,348.621 899.608,345.669 
	899.608,342.717 899.608,339.765 899.608,336.812 899.608,333.86 899.608,330.908 899.608,327.956 899.608,325.004 899.608,322.051 
	899.608,319.1 899.608,316.147 899.608,313.195 899.608,310.242 899.608,307.291 899.608,304.339 899.608,301.386 899.608,298.434 
	899.608,295.481 899.608,292.529 899.608,289.577 899.608,286.625 899.608,283.673 899.608,280.721 899.608,277.769 
	899.608,274.816 899.608,271.864 899.608,268.912 899.608,265.96 899.608,263.008 899.608,260.056 899.608,257.104 899.608,254.151 
	899.608,251.199 899.608,248.247 899.608,245.295 899.608,242.343 899.608,239.391 899.608,236.438 899.608,233.486 
	899.608,230.534 899.608,227.582 899.608,224.63 899.608,221.678 899.608,218.725 899.608,215.773 899.608,212.82 899.608,209.869 
	899.608,206.916 "/>
<polygon fill="#1D1D1B" points="684.521,224.63 684.521,221.678 684.521,218.725 684.521,215.773 684.521,212.82 684.521,209.869 
	684.521,206.916 684.521,203.965 684.521,201.012 684.521,198.06 684.521,195.108 684.521,192.155 684.521,189.204 684.521,186.251 
	684.521,183.3 684.521,180.347 684.521,177.395 684.521,174.442 684.521,171.491 684.521,168.538 684.521,165.586 684.521,162.634 
	684.521,159.682 684.521,156.729 684.521,153.777 684.521,150.825 684.521,147.873 684.521,144.921 684.521,141.969 
	684.521,139.017 684.521,136.064 684.521,133.112 684.521,130.16 684.521,127.208 684.521,124.256 684.521,121.304 684.521,118.352 
	684.521,115.399 684.521,112.447 684.521,109.495 684.521,106.543 684.521,103.591 684.521,100.639 684.521,97.687 684.521,94.733 
	684.521,91.782 684.521,88.829 684.521,85.878 684.521,82.925 684.521,79.974 684.521,77.021 684.521,74.068 684.521,71.116 
	684.521,68.165 684.521,65.212 684.521,62.26 688.739,62.26 688.739,59.308 684.521,59.308 684.521,56.355 680.304,56.355 
	680.304,59.308 680.304,62.26 680.304,65.212 680.304,68.165 680.304,71.116 680.304,74.068 680.304,77.021 680.304,79.974 
	680.304,82.925 680.304,85.878 680.304,88.829 680.304,91.782 680.304,94.733 680.304,97.687 680.304,100.639 680.304,103.591 
	680.304,106.543 680.304,109.495 680.304,112.447 680.304,115.399 680.304,118.352 680.304,121.304 680.304,124.256 
	680.304,127.208 680.304,130.16 680.304,133.112 680.304,136.064 680.304,139.017 680.304,141.969 680.304,144.921 680.304,147.873 
	680.304,150.825 680.304,153.777 680.304,156.729 680.304,159.682 680.304,162.634 680.304,165.586 680.304,168.538 
	680.304,171.491 680.304,174.442 680.304,177.395 680.304,180.347 680.304,183.3 680.304,186.251 680.304,189.204 680.304,192.155 
	680.304,195.108 680.304,198.06 680.304,201.012 680.304,203.965 680.304,206.916 680.304,209.869 680.304,212.82 680.304,215.773 
	680.304,218.725 680.304,221.678 680.304,224.63 680.304,227.582 680.304,230.534 684.521,230.534 684.521,227.582 "/>
</svg>
