<?xml version="1.0" encoding="utf-8"?>
<!-- Generator: Adobe Illustrator 16.0.0, SVG Export Plug-In . SVG Version: 6.00 Build 0)  -->
<!DOCTYPE svg PUBLIC "-//W3C//DTD SVG 1.1//EN" "http://www.w3.org/Graphics/SVG/1.1/DTD/svg11.dtd">
<svg version="1.1" id="Layer_1" xmlns="http://www.w3.org/2000/svg" xmlns:xlink="http://www.w3.org/1999/xlink" x="0px" y="0px"
	 width="954px" height="810px" viewBox="0 0 954 810" enable-background="new 0 0 954 810" xml:space="preserve">
<polygon fill="#F5F5F5" points="902.498,312 893.498,312 884.498,312 875.498,312 875.498,303 875.498,294 875.498,285 875.498,276 
	875.498,267 875.498,258 875.498,249 875.498,240 875.498,231 875.498,222 875.498,213 875.498,204 875.498,195 875.498,186 
	875.498,177 875.498,168 875.498,159 875.498,150 875.498,141 875.498,132 875.498,123 866.498,123 866.498,132 866.498,141 
	866.498,150 866.498,159 866.498,168 866.498,177 866.498,186 866.498,195 866.498,204 866.498,213 866.498,222 866.498,231 
	866.498,240 866.498,249 866.498,258 866.498,267 866.498,276 866.498,285 866.498,294 866.498,303 866.498,312 866.498,321 
	875.498,321 884.498,321 893.498,321 902.498,321 902.498,330 902.498,339 902.498,348 902.498,357 902.498,366 902.498,375 
	911.498,375 911.498,366 911.498,357 911.498,348 911.498,339 911.498,330 911.498,321 911.498,312 "/>
<polygon fill="#F5F5F5" points="803.498,231 803.498,222 803.498,213 803.498,204 803.498,195 803.498,186 803.498,177 803.498,168 
	803.498,159 803.498,150 803.498,141 803.498,132 812.498,132 821.498,132 830.498,132 839.498,132 848.498,132 857.498,132 
	866.498,132 866.498,123 857.498,123 848.498,123 839.498,123 830.498,123 821.498,123 812.498,123 803.498,123 794.498,123 
	794.498,132 794.498,141 794.498,150 794.498,159 794.498,168 794.498,177 794.498,186 794.498,195 794.498,204 794.498,213 
	794.498,222 794.498,231 794.498,240 794.498,249 785.498,249 776.498,249 767.498,249 758.498,249 758.498,258 758.498,267 
	758.498,276 758.498,285 758.498,294 749.498,294 740.498,294 731.498,294 731.498,303 740.498,303 749.498,303 758.498,303 
	758.498,312 758.498,321 758.498,330 758.498,339 758.498,348 758.498,357 758.498,366 758.498,375 767.498,375 767.498,366 
	767.498,357 767.498,348 767.498,339 767.498,330 767.498,321 767.498,312 767.498,303 767.498,294 767.498,285 767.498,276 
	767.498,267 767.498,258 776.498,258 785.498,258 794.498,258 803.498,258 812.498,258 821.498,258 830.498,258 830.498,267 
	830.498,276 830.498,285 830.498,294 830.498,303 830.498,312 821.498,312 812.498,312 803.498,312 794.498,312 794.498,321 
	794.498,330 794.498,339 794.498,348 794.498,357 794.498,366 794.498,375 803.498,375 803.498,366 803.498,357 803.498,348 
	803.498,339 803.498,330 803.498,321 812.498,321 821.498,321 830.498,321 839.498,321 848.498,321 857.498,321 866.498,321 
	866.498,312 857.498,312 848.498,312 839.498,312 839.498,303 839.498,294 839.498,285 839.498,276 839.498,267 839.498,258 
	839.498,249 830.498,249 821.498,249 812.498,249 803.498,249 803.498,240 "/>
<polygon fill="#F5F5F5" points="722.498,294 713.498,294 713.498,285 713.498,276 713.498,267 713.498,258 713.498,249 713.498,240 
	713.498,231 713.498,222 713.498,213 704.498,213 695.498,213 686.498,213 677.498,213 668.498,213 663.998,213 663.998,208.5 
	663.998,199.5 663.998,190.5 663.998,181.5 663.998,172.5 663.998,163.5 663.998,154.5 663.998,145.5 663.998,136.5 663.998,127.5 
	663.998,118.5 663.998,109.5 663.998,100.5 663.998,91.5 663.998,82.5 654.998,82.5 645.998,82.5 636.998,82.5 627.998,82.5 
	618.998,82.5 609.998,82.5 600.998,82.5 591.998,82.5 582.998,82.5 582.998,91.5 582.998,100.5 582.998,109.5 582.998,118.5 
	582.998,127.5 582.998,136.5 582.998,145.5 582.998,154.5 582.998,163.5 582.998,172.5 582.998,181.5 582.998,190.5 582.998,199.5 
	582.998,208.5 582.998,217.5 582.998,226.5 582.998,235.5 582.998,244.5 582.998,253.5 582.998,262.5 582.998,267 578.498,267 
	569.498,267 560.498,267 551.498,267 542.498,267 533.498,267 524.498,267 524.498,276 524.498,285 524.498,294 524.498,303 
	524.498,312 524.498,321 524.498,330 524.498,339 524.498,348 524.498,357 524.498,366 524.498,375 533.498,375 533.498,366 
	533.498,357 533.498,348 533.498,339 533.498,330 533.498,321 533.498,312 533.498,303 533.498,294 533.498,285 533.498,276 
	542.498,276 551.498,276 560.498,276 569.498,276 578.498,276 587.498,276 596.498,276 596.498,285 596.498,294 596.498,303 
	596.498,312 596.498,321 596.498,330 596.498,339 596.498,348 596.498,357 596.498,366 596.498,375 605.498,375 605.498,366 
	605.498,357 605.498,348 605.498,339 605.498,330 605.498,321 605.498,312 605.498,303 605.498,294 605.498,285 605.498,276 
	605.498,267 596.498,267 591.998,267 591.998,262.5 591.998,253.5 591.998,244.5 591.998,235.5 591.998,226.5 591.998,217.5 
	591.998,208.5 591.998,199.5 591.998,190.5 591.998,181.5 591.998,172.5 591.998,163.5 591.998,154.5 591.998,145.5 591.998,136.5 
	591.998,127.5 591.998,118.5 591.998,109.5 591.998,100.5 591.998,91.5 600.998,91.5 609.998,91.5 618.998,91.5 627.998,91.5 
	636.998,91.5 645.998,91.5 654.998,91.5 654.998,100.5 654.998,109.5 654.998,118.5 654.998,127.5 654.998,136.5 654.998,145.5 
	654.998,154.5 654.998,163.5 654.998,172.5 654.998,181.5 654.998,190.5 654.998,199.5 654.998,208.5 654.998,213 650.498,213 
	641.498,213 632.498,213 632.498,222 632.498,231 632.498,240 632.498,249 632.498,258 632.498,267 632.498,276 632.498,285 
	632.498,294 632.498,303 632.498,312 632.498,321 632.498,330 632.498,339 632.498,348 632.498,357 632.498,366 632.498,375 
	641.498,375 641.498,366 641.498,357 641.498,348 641.498,339 641.498,330 641.498,321 641.498,312 641.498,303 641.498,294 
	641.498,285 641.498,276 641.498,267 641.498,258 641.498,249 641.498,240 641.498,231 641.498,222 650.498,222 659.498,222 
	668.498,222 677.498,222 686.498,222 695.498,222 704.498,222 704.498,231 704.498,240 704.498,249 704.498,258 704.498,267 
	704.498,276 704.498,285 704.498,294 704.498,303 704.498,312 704.498,321 704.498,330 704.498,339 704.498,348 704.498,357 
	704.498,366 704.498,375 713.498,375 713.498,366 713.498,357 713.498,348 713.498,339 713.498,330 713.498,321 713.498,312 
	713.498,303 722.498,303 731.498,303 731.498,294 "/>
<g>
	<rect x="429.998" y="586.5" fill="#F5F5F5" width="9" height="9"/>
	<rect x="420.996" y="595.5" fill="#F5F5F5" width="9.002" height="9"/>
	<polygon fill="#F5F5F5" points="403,604.499 402.996,613.5 411.998,613.499 420.996,613.499 420.996,604.499 411.998,604.5 	"/>
	<polygon fill="#F5F5F5" points="402.998,586.499 393.998,586.499 393.998,595.499 393.996,604.499 403,604.499 402.998,595.499 	
		"/>
	<path fill="#F5F5F5" d="M411.998,577.5H412l8.998,0v9h9v-9H430v-9h-9v0h-9h-9l-9,0l-9,0h-9l-9,0h-9h-9h-9h-9h-9l-9,0.001h-9l-9,0
		l-9,0h-9.002l-8.998,0h-9l-9,0h-9l-9,0v-4.5l4.5,0l9,0l9,0h9l9,0l9,0h9l9,0l9,0l9,0l9-0.001h9h9h9h9l9,0l9,0h9l9,0h9l4.5,0v-9V546
		v-8.999v-9v-9v-9v-9l-0.002-9v-9v-9v-9v-8.999v-9h-4.502h-8.998h-9l-9,0.001h-9h-9h-9h-9h-9h-9l-9,0.001h-9h-9.002h-9h-8.998h-9
		l-9,0l-9,0h-9l-9,0l-4.502,0l0.002,9v9v9v9v9l0.002,9v9v9l-0.002,9l0.002,9v9v9v4.5l-0.002-9H223v9v9v9l9,0v9h9v-9l9,0l9,0h9l9,0h9
		h9h9h9h9l9.002-0.001H340h9l9,0h9l9,0l9,0l9,0l8.998,0v8.999h9V577.5z M236.5,546.004v-9l-0.002-9l0.002-9v-9v-9l-0.002-9v-9v-9v-9
		v-9v-4.5l9,0h9l9,0l9,0l8.998,0h9.002h9l9-0.001h9h9h9h9h9h9l9-0.001h9l9,0l9,0h8.999l0.001,4.499v9.001v9v9v9v9l0.002,9v9
		l-0.002,9l0.002,9v9v9v4.5h-9h-9l-9,0h-9l-9,0l-9,0.001h-9l-9,0h-9l-9,0h-9l-9,0l-9.002,0H281.5l-9,0l-9,0h-9h-9h-9v-4.5V546.004z"
		/>
	<rect x="438.998" y="595.5" fill="#F5F5F5" width="9" height="9"/>
	<rect x="447.998" y="604.5" fill="#F5F5F5" width="9" height="9"/>
	<polygon fill="#F5F5F5" points="465.998,613.5 456.998,613.5 456.998,622.5 456.998,631.5 465.998,631.5 465.998,622.5 	"/>
	<polygon fill="#F5F5F5" points="474.996,640.5 474.996,631.5 465.998,631.5 465.998,640.5 465.996,649.5 465.996,658.5 
		474.996,658.5 474.996,649.5 	"/>
	<polygon fill="#F5F5F5" points="483.996,667.5 483.996,658.5 474.996,658.5 474.998,667.5 474.996,676.5 474.996,685.5 
		483.996,685.501 483.996,676.5 	"/>
	<polygon fill="#F5F5F5" points="492.996,685.501 483.996,685.501 483.996,694.501 492.996,694.501 501.996,694.501 
		501.995,685.501 	"/>
	<polygon fill="#F5F5F5" points="501.996,712.501 502,712.501 502,721.5 511.002,721.5 511.002,712.5 510.994,712.5 
		510.995,703.501 510.996,694.501 501.996,694.501 501.996,703.501 	"/>
	<rect x="502" y="721.5" fill="#F5F5F5" width="9" height="9"/>
	<polygon fill="#F5F5F5" points="438.998,541.5 429.998,541.5 429.998,550.5 421,550.5 421,559.5 421,568.5 430,568.5 430,559.5 
		430,559.5 430,550.5 429.999,550.5 439,550.5 447.998,550.5 447.998,541.5 	"/>
	<polygon fill="#F5F5F5" points="483.998,568.501 483.998,559.5 474.998,559.5 465.998,559.5 457,559.5 456.998,559.5 
		456.998,568.5 465.998,568.5 465.998,577.5 474.998,577.5 474.998,568.5 	"/>
	<polygon fill="#F5F5F5" points="492.998,577.501 501.998,577.501 501.998,568.501 492.998,568.501 483.998,568.501 
		483.998,577.501 	"/>
	<polygon fill="#F5F5F5" points="501.998,568.501 510.998,568.501 511,559.501 510.998,550.501 502,550.501 501.996,559.501 	"/>
	<polygon fill="#F5F5F5" points="483.998,541.5 493,541.501 493,532.5 493,523.5 484,523.501 484,532.5 	"/>
	<rect x="493" y="541.501" fill="#F5F5F5" width="9" height="9"/>
	<polygon fill="#F5F5F5" points="510.996,586.501 519.998,586.501 519.998,577.501 520,568.501 510.998,568.501 510.998,577.501 	
		"/>
	<rect x="501.995" y="586.501" fill="#F5F5F5" width="9.002" height="9"/>
	<rect x="519.998" y="595.502" fill="#F5F5F5" width="9" height="8.999"/>
	<rect x="510.998" y="604.501" fill="#F5F5F5" width="9" height="9"/>
	<polygon fill="#F5F5F5" points="475,469.5 466,469.5 466,478.5 475,478.501 484,478.501 484,469.501 	"/>
	<polygon fill="#F5F5F5" points="493,478.501 484,478.501 484,487.5 493,487.501 502,487.501 502,478.501 	"/>
	<rect x="502" y="487.501" fill="#F5F5F5" width="9" height="9"/>
	<rect x="511" y="496.502" fill="#F5F5F5" width="9" height="9"/>
	<rect x="520" y="505.501" fill="#F5F5F5" width="8.998" height="9"/>
	<rect x="528.998" y="514.502" fill="#F5F5F5" width="9.002" height="9"/>
	<rect x="538" y="523.502" fill="#F5F5F5" width="8.998" height="9"/>
	<rect x="546.998" y="532.501" fill="#F5F5F5" width="9" height="9"/>
	<rect x="555.999" y="541.502" fill="#F5F5F5" width="8.998" height="9"/>
	<rect x="564.998" y="550.502" fill="#F5F5F5" width="9.002" height="9"/>
	<polygon fill="#F5F5F5" points="582.998,568.503 582.998,559.502 574,559.502 574,568.502 573.998,577.502 573.998,586.502 
		582.996,586.502 582.998,577.503 	"/>
	<polygon fill="#F5F5F5" points="591.996,604.503 591.996,595.503 591.998,586.502 582.996,586.502 582.996,595.502 
		582.996,604.503 582.996,613.502 582.998,622.502 591.998,622.502 591.996,613.503 	"/>
	<polygon fill="#F5F5F5" points="600.994,703.503 600.996,694.503 600.996,685.503 600.994,676.503 600.996,667.503 
		600.996,658.503 600.996,649.503 600.996,640.503 600.996,631.503 600.998,622.503 591.998,622.502 591.996,631.503 
		591.996,640.502 591.996,649.503 591.996,658.503 591.996,667.503 591.995,676.503 591.995,685.503 591.994,694.503 
		591.996,703.503 591.994,712.503 592,712.503 600.994,712.503 	"/>
	<polygon fill="#F5F5F5" points="592,712.503 592,721.503 583,721.503 574,721.503 565,721.502 556,721.502 556,730.502 
		565,730.502 574,730.503 583,730.503 592,730.502 601.001,730.503 601.001,721.503 601.001,712.504 	"/>
	<polygon fill="#F5F5F5" points="538,730.501 529,730.501 520,730.501 511,730.501 511,739.501 520,739.501 529,739.501 
		538,739.501 547,739.502 556,739.502 556,730.502 547,730.502 	"/>
	<polygon fill="#F5F5F5" points="483.998,577.501 474.998,577.5 474.998,586.5 474.996,595.501 483.998,595.501 483.998,586.501 	
		"/>
	<polygon fill="#F5F5F5" points="483.998,595.501 483.998,604.5 492.998,604.501 492.998,613.501 501.998,613.501 501.998,604.501 
		501.996,595.501 492.998,595.501 	"/>
	<rect x="501.998" y="613.501" fill="#F5F5F5" width="9" height="9.001"/>
	<rect x="510.999" y="622.501" fill="#F5F5F5" width="8.998" height="9"/>
	<rect x="447.998" y="550.5" fill="#F5F5F5" width="9" height="9"/>
	<rect x="205" y="586.505" fill="#F5F5F5" width="9" height="9"/>
	<rect x="214" y="595.505" fill="#F5F5F5" width="9.002" height="9"/>
	<polygon fill="#F5F5F5" points="223.002,604.504 223.002,613.504 232,613.504 241.002,613.504 241,604.504 232,604.504 	"/>
	<polygon fill="#F5F5F5" points="241,604.504 250.002,604.504 250,595.504 250,586.504 241,586.504 241,595.504 	"/>
	<rect x="196" y="595.505" fill="#F5F5F5" width="9" height="9"/>
	<rect x="187" y="604.505" fill="#F5F5F5" width="9" height="9"/>
	<polygon fill="#F5F5F5" points="178,622.505 178,631.505 187,631.505 187,622.505 187,613.505 178,613.505 	"/>
	<polygon fill="#F5F5F5" points="169.002,640.505 169.002,649.505 169.002,658.505 178.002,658.505 178.002,649.505 178,640.505 
		178,631.505 169.002,631.505 	"/>
	<polygon fill="#F5F5F5" points="160.002,667.505 160.002,676.505 160.002,685.506 169.002,685.505 169.002,676.505 169,667.505 
		169.002,658.505 160.002,658.505 	"/>
	<polygon fill="#F5F5F5" points="142.003,685.506 142.002,694.506 151.002,694.506 160.002,694.506 160.002,685.506 
		151.002,685.506 	"/>
	<polygon fill="#F5F5F5" points="133.003,703.506 133.004,712.506 142.002,712.506 142.002,703.506 142.002,694.506 
		133.002,694.506 	"/>
	<rect x="124.002" y="712.506" fill="#F5F5F5" width="9.002" height="9"/>
	<polygon fill="#F5F5F5" points="115.003,730.506 106.004,730.506 97.002,730.506 88.002,730.507 79.004,730.507 79.002,739.507 
		88.004,739.507 97.004,739.506 106.003,739.506 115.003,739.506 124.002,739.506 124.002,730.506 124.002,721.506 115.002,721.506 
			"/>
	<polygon fill="#F5F5F5" points="169,577.505 178,577.505 178,568.505 187,568.505 187,559.505 196,559.505 196,550.505 
		187,550.505 187,541.505 187,532.505 178,532.506 178,541.505 178,550.505 178,559.505 169,559.505 160,559.505 160,568.506 
		169,568.505 	"/>
	<polygon fill="#F5F5F5" points="151,577.506 160,577.506 160,568.506 151,568.506 142,568.506 142,577.506 	"/>
	<polygon fill="#F5F5F5" points="177.998,478.505 177.998,478.505 186.998,478.505 186.998,469.505 186.998,460.505 
		186.998,451.505 177.998,451.505 177.998,460.504 177.998,469.505 177.998,469.505 168.998,469.505 159.998,469.506 
		159.998,478.506 168.998,478.506 	"/>
	<polygon fill="#F5F5F5" points="151,532.505 151,541.506 160,541.505 160,532.505 160,523.506 150.998,523.505 	"/>
	<rect x="142" y="541.506" fill="#F5F5F5" width="9" height="9"/>
	<polygon fill="#F5F5F5" points="133,559.506 133,568.506 142,568.506 142.002,559.506 142,550.506 133,550.506 	"/>
	<polygon fill="#F5F5F5" points="133,568.506 124,568.506 124,577.506 124,586.506 133.002,586.506 133,577.506 	"/>
	<rect x="133.001" y="586.506" fill="#F5F5F5" width="9.002" height="9"/>
	<polygon fill="#F5F5F5" points="142.002,595.506 142,604.506 142,613.506 151,613.506 151,604.506 160,604.505 160,595.506 
		151,595.506 	"/>
	<polygon fill="#F5F5F5" points="115,595.507 106.002,595.507 106,604.507 115,604.507 124,604.506 124,595.507 	"/>
	<rect x="124" y="604.505" fill="#F5F5F5" width="9" height="9.001"/>
	<polygon fill="#F5F5F5" points="159.998,487.505 159.998,478.506 150.998,478.506 141.998,478.506 141.998,487.506 
		150.998,487.506 	"/>
	<rect x="132.998" y="487.506" fill="#F5F5F5" width="9" height="9"/>
	<rect x="124" y="496.507" fill="#F5F5F5" width="8.998" height="9"/>
	<rect x="114.999" y="505.506" fill="#F5F5F5" width="9.002" height="9"/>
	<rect x="105.999" y="514.507" fill="#F5F5F5" width="9" height="9"/>
	<rect x="97" y="523.507" fill="#F5F5F5" width="8.998" height="9"/>
	<rect x="88" y="532.507" fill="#F5F5F5" width="9" height="9"/>
	<rect x="78.999" y="541.507" fill="#F5F5F5" width="9.002" height="9"/>
	<rect x="69.999" y="550.507" fill="#F5F5F5" width="9" height="9"/>
	<polygon fill="#F5F5F5" points="70,577.507 69.998,568.507 69.998,559.507 61,559.507 61,568.508 61,577.508 61.002,586.507 
		70,586.507 	"/>
	<polygon fill="#F5F5F5" points="61.002,613.507 61.002,604.508 61.002,595.507 61.002,586.507 52,586.507 52.002,595.508 
		52.002,604.508 52.002,613.508 52,622.507 61,622.507 	"/>
	<polygon fill="#F5F5F5" points="52.002,703.508 52.004,694.508 52.003,685.508 52.003,676.508 52.002,667.508 52.002,658.508 
		52.002,649.508 52.002,640.507 52.002,631.508 52,622.507 43,622.508 43.002,631.508 43.002,640.508 43.002,649.508 
		43.002,658.508 43.002,667.508 43.003,676.508 43.002,685.508 43.002,694.508 43.004,703.508 43.004,712.508 52.004,712.508 	"/>
	<polygon fill="#F5F5F5" points="70.004,721.507 61.004,721.508 52.004,721.508 43.004,721.508 43.004,712.508 34.002,712.509 
		34.002,721.508 34.002,730.508 43.003,730.507 52.004,730.508 61.004,730.508 70.002,730.507 79.004,730.507 79.004,721.507 	"/>
	<polygon fill="#F5F5F5" points="160,586.506 160,595.506 169.002,595.506 169,586.505 169,577.505 160,577.506 	"/>
	<rect x="133" y="613.506" fill="#F5F5F5" width="9" height="9"/>
	<rect x="123.999" y="622.507" fill="#F5F5F5" width="9.002" height="8.999"/>
	<polygon fill="#F5F5F5" points="214,550.505 223,550.504 223,541.504 214,541.505 205,541.505 196,541.505 196,550.505 
		205,550.504 	"/>
	<rect x="214" y="577.504" fill="#F5F5F5" width="9" height="9"/>
	<rect x="186.998" y="442.505" fill="#F5F5F5" width="9" height="9"/>
	<polygon fill="#F5F5F5" points="213.998,442.504 222.998,442.505 231.998,442.504 240.998,442.504 249.998,442.503 
		258.998,442.503 267.998,442.503 276.996,442.503 285.998,442.503 294.998,442.503 303.996,442.503 312.998,442.503 322,442.502 
		330.998,442.502 339.996,442.502 348.998,442.502 357.998,442.502 366.998,442.502 375.998,442.502 384.998,442.501 
		393.998,442.501 402.998,442.5 411.998,442.501 420.996,442.5 429.998,442.5 438.998,442.5 447.998,442.5 447.996,433.5 
		438.998,433.5 429.998,433.5 420.998,433.501 411.998,433.501 402.998,433.501 393.998,433.501 384.998,433.501 375.998,433.501 
		366.998,433.502 357.998,433.502 348.996,433.502 339.998,433.502 330.996,433.502 321.998,433.502 312.998,433.502 
		303.996,433.503 294.998,433.503 285.998,433.503 276.996,433.503 267.998,433.503 258.998,433.503 249.998,433.504 
		240.998,433.504 231.998,433.504 222.998,433.504 213.998,433.505 204.998,433.504 195.998,433.505 195.998,442.505 
		204.998,442.504 	"/>
	<rect x="447.998" y="442.5" fill="#F5F5F5" width="9" height="9"/>
	<polygon fill="#F5F5F5" points="443.5,496.5 443.498,487.5 434.498,487.5 434.498,496.5 434.5,505.5 434.5,514.5 434.5,523.5 
		443.5,523.5 443.498,514.5 443.5,505.5 	"/>
	<polygon fill="#F5F5F5" points="258.998,460.504 267.998,460.503 276.998,460.503 285.998,460.503 294.996,460.503 304,460.502 
		312.998,460.503 321.998,460.503 330.998,460.502 339.998,460.502 348.998,460.502 357.998,460.502 366.998,460.501 
		375.998,460.501 384.998,460.501 393.998,460.501 398.498,460.5 398.498,456.001 393.998,456.001 384.998,456.001 375.998,456.002 
		366.998,456.002 357.998,456.002 348.998,456.002 339.998,456.002 330.998,456.002 321.998,456.002 313,456.003 303.996,456.003 
		294.998,456.003 285.998,456.003 276.998,456.003 267.996,456.004 258.998,456.003 249.998,456.003 245.498,456.004 
		245.498,460.504 249.998,460.504 	"/>
	<path fill="#F5F5F5" d="M380.5,550.501h-8.817v-1.078v-2.642v-2.64v-2.64v-2.64v-2.641h-2.639H366.4h-2.64h-2.638v-2.641v-2.641
		v-2.64v-2.641v-2.64v-2.641v-2.641v-2.64v-2.64v-2.641v-2.64v-2.64v-2.641v-2.64v-2.641v-2.641v-2.64v-2.64v-2.64v-2.642v-2.64
		h-2.643h-2.641h-2.641h-2.641h-2.641h-2.64h-2.641h-2.64h-2.641v2.64v2.642v2.64v2.64v2.64v2.641v2.641v2.64v2.641v2.64v2.64v2.641
		v2.64v2.64h-2.641h-2.641h-2.64h-2.641v2.641v2.641v2.64v2.641v2.64h-2.641h-2.641h-2.64h-2.643h-2.641v-2.64v-2.641v-2.64v-2.641
		v-2.641v-2.64v-2.64v-2.641v-2.64h-2.639h-2.641h-2.64h-2.644h-2.637h-1.322v-1.32v-2.641v-2.641v-2.64v-2.64v-2.64v-2.641v-2.641
		v-2.64v-2.641v-2.64v-2.641v-2.64v-2.64v-2.641h-2.64h-2.64h-2.643h-2.639h-2.641h-2.643h-2.638h-2.641h-2.641v2.641v2.64v2.64
		v2.641v2.64v2.641v2.64v2.641v2.641v2.64v2.64v2.64v2.641v2.641v2.64v2.641v2.64v2.64v2.641v2.64v1.321h-1.32h-2.641h-2.64h-2.643
		h-2.64h-2.642h-2.639v2.64v2.641v2.64v2.641v2.641v2.641v2.64v2.64v2.64v2.642v1.08H254.5h-9v4.5l9,0h9l9,0l8.998,0l9.002,0h9h9
		l9-0.001h9h9h9h9h9l9,0h9l9,0l8.998,0l0.002-4.5h-9L380.5,550.501z M339.998,515.098v-2.64v-2.641v-2.64v-2.64v-2.641v-2.64v-2.641
		v-2.641v-2.64v-2.64v-2.64v-2.642h2.64h2.641h2.64h2.641h2.641h2.641h2.641v2.642v2.64v2.64v2.64v2.641v2.641v2.64v2.641v2.64v2.64
		v2.641v2.64v2.64v2.641v2.641v2.64v2.641v2.64v2.641v2.641h-2.641h-2.641h-2.641v-2.641v-2.641v-2.64v-2.641v-2.64v-2.641v-2.641
		h-2.641h-2.64h-2.641h-2.64V515.098z M277.948,519.059v-2.641v-2.64v-2.64v-2.641v-2.64v-2.641v-2.641v-2.64v-2.64v-2.64v-2.641
		v-2.641v-2.64v-2.641v-2.64v-2.641v-2.64v-2.64h2.641h2.638h2.643h2.641h2.639h2.643h2.64v2.64v2.64v2.641v2.64v2.641v2.64v2.641
		v2.641v2.64v2.64v2.64v2.641v2.641v1.32h-1.321h-2.639h-2.642v2.64v2.641v2.64v2.64v2.641v2.641v2.64v2.641v2.64v2.641v2.641v2.641
		v2.64v2.64v2.64v2.642v1.079h-7.92v-1.079v-2.642v-2.64v-2.64v-2.64v-2.641v-2.641v-2.641v-2.64v-2.641v-2.64h-2.642h-1.319v-1.321
		V519.059z M263.498,550.504h-2.715v-1.08v-2.642v-2.64v-2.64v-2.64v-2.641v-2.641v-2.641v-2.64v-2.641h2.642h2.64h2.643h2.64h2.641
		h2.64h2.641v2.641v2.64v2.641v2.641v2.641v2.64v2.64v2.64v2.642v1.079H272.5L263.498,550.504z M299.5,550.503h-7.029v-1.079v-2.642
		v-2.64v-2.64v-2.64v-2.641v-2.641v-2.641v-2.64v-2.641v-2.64v-2.641v-2.641v-2.64v-2.64v-2.641h2.639h2.641h2.643h2.637h2.644h2.64
		h2.641v2.641v2.64v2.64v2.641v2.641v2.64v2.641v2.64v2.641v2.641v2.641v2.64v2.64v2.64v2.642v1.079H308.5H299.5z M317.5,550.502
		l-3.908,0v-1.079v-2.642v-2.64v-2.64v-2.64v-2.641v-2.641h2.641h2.643h2.64h2.641h2.641v2.641v2.641v2.64v2.64v2.64v2.642v1.079
		H326.5H317.5z M329.437,550.502v-1.078v-2.642v-2.64v-2.64v-2.64v-2.641v-2.641v-2.641v-2.64v-2.641v-2.64v-2.641h2.64h2.641h2.641
		h2.641h2.64h2.641h2.64v2.641v2.64v2.641v2.64v2.641v2.641h-2.64h-2.641h-2.64h-2.641v2.641v2.64v2.64v2.64v2.642v1.078H335.5
		H329.437z M353.5,550.501l-9,0h-4.502v-1.078v-2.642v-2.64v-2.64v-2.64h2.64h2.641h2.64h2.641h2.641h2.641h2.641h2.643h2.638h2.64
		h2.644v2.64v2.64v2.64v2.642v1.078l-6.544,0L353.5,550.501z"/>
	<polygon fill="#F5F5F5" points="195.998,496.505 195.998,505.505 196,514.505 205,514.505 214,514.505 214,505.505 214,496.505 
		204.998,496.505 	"/>
	<polygon fill="#F5F5F5" points="178,487.505 177.998,496.505 177.998,505.505 177.998,514.505 169,514.505 159.998,514.506 
		160,523.506 169,523.506 178,523.505 178,532.505 186.998,532.505 187,523.504 186.998,514.504 186.998,505.505 186.998,496.505 
		186.998,487.505 186.998,478.505 177.998,478.505 	"/>
	<polygon fill="#F5F5F5" points="456.998,460.5 456.998,469.5 456.998,478.499 465.998,478.499 465.996,469.499 465.998,460.5 
		465.998,460.5 465.998,451.5 456.998,451.5 456.998,460.499 	"/>
	<polygon fill="#F5F5F5" points="466,487.5 465.998,478.5 456.998,478.5 457,487.5 456.998,496.5 456.998,505.5 457,514.5 
		456.998,523.5 456.998,532.5 456.998,541.5 457,550.499 457,559.5 466,559.499 465.998,550.5 466,541.5 466,532.5 466,523.5 
		475,523.501 484,523.501 484,514.501 474.998,514.5 466,514.5 465.998,505.5 465.998,496.5 	"/>
	<rect x="324.295" y="474.099" fill="#F5F5F5" width="6.699" height="6.701"/>
</g>
</svg>
