<?xml version="1.0" encoding="utf-8"?>
<!-- Generator: Adobe Illustrator 16.0.0, SVG Export Plug-In . SVG Version: 6.00 Build 0)  -->
<!DOCTYPE svg PUBLIC "-//W3C//DTD SVG 1.1//EN" "http://www.w3.org/Graphics/SVG/1.1/DTD/svg11.dtd">
<svg version="1.1" id="Layer_1" xmlns="http://www.w3.org/2000/svg" xmlns:xlink="http://www.w3.org/1999/xlink" x="0px" y="0px"
	 width="954px" height="810px" viewBox="0 0 954 810" enable-background="new 0 0 954 810" xml:space="preserve">
<polygon fill="#1D1D1B" points="693,448 684,448 675,448 666,448 657,448 648,448 639,448 630,448 621,448 612,448 603,448 594,448 
	585,448 576,448 567,448 558,448 549,448 540,448 540,457 549,457 558,457 567,457 576,457 585,457 594,457 603,457 612,457 
	621,457 630,457 639,457 648,457 657,457 666,457 675,457 684,457 693,457 702,457 702,448 "/>
<g>
	<polygon fill="#1D1D1B" points="99,466 99,475 99,484 99,493 99,502 99,511 99,520 99,529 99,538 99,547 99,556 103.5,556 
		103.5,560.5 112.5,560.5 121.5,560.5 126,560.5 126,565 126,565 126,574 135,574 144,574 144,583 152.998,583 153,574 152.998,565 
		152.998,556 152.998,547 152.997,538 152.998,529 143.998,529 144,538 135,538 126,538 126,547 126,551.5 121.5,551.5 112.5,551.5 
		108,551.5 108,547 108,538 108,529 108,520 108,511 108,502 108,493 108,484 108,475 108,466 108,457 99,457 	"/>
	<polygon fill="#1D1D1B" points="522,448 513,448 504,448 495,448 486,448 477,448 468,448 459,448 450,448 441,448 432,448 
		423,448 414,448 405,448 396,448 387,448 378,448 369,448 360,448 351,448 342,448 333,448 324,448 315,448 306,448 297,448 
		288,448 279,448 270,448 261,448 252,448 243,448 234,448 225,448 216,448 207,448 198,448 189,448 180,448 171,448 162,448 
		153,448 144,448 135,448 126,448 117,448 108,448 108,457 117,457 126,457 135,457 144,457 153,457 162,457 171,457 180,457 
		189,457 198,457 207,457 216,457 225,457 234,457 243,457 252,457 261,457 270,457 279,457 288,457 297,457 306,457 315,457 
		324,457 333,457 342,457 351,457 360,457 369,457 378,457 387,457 396,457 405,457 414,457 423,457 432,457 441,457 450,457 
		459,457 468,457 477,457 486,457 495,457 504,457 513,457 522,457 531,457 531,448 	"/>
	<polygon fill="#1D1D1B" points="263.639,592.935 263.64,591.045 261.75,591.045 261.75,592.935 261.75,594.825 261.752,596.715 
		263.639,596.715 263.64,594.825 	"/>
	<polygon fill="#1D1D1B" points="261.75,587.265 261.752,585.375 259.86,585.375 259.859,587.265 259.861,589.155 259.859,591.045 
		261.75,591.045 261.752,589.155 	"/>
	<polygon fill="#1D1D1B" points="259.859,581.596 259.859,579.706 259.86,577.816 257.969,577.816 257.969,579.706 257.969,581.596 
		257.969,583.486 257.969,585.375 259.86,585.375 259.859,583.485 	"/>
	<rect x="256.079" y="575.927" fill="#1D1D1B" width="1.89" height="1.889"/>
	<polygon fill="#1D1D1B" points="256.078,572.146 256.077,570.256 257.968,570.256 259.859,570.256 261.75,570.255 263.639,570.256 
		263.639,568.367 261.752,568.367 259.86,568.367 257.969,568.367 256.079,568.367 254.189,568.367 254.188,570.256 
		254.189,572.146 254.19,574.037 254.189,575.926 256.078,575.927 256.078,574.036 	"/>
	<polygon fill="#1D1D1B" points="265.529,572.146 265.529,574.036 265.527,575.926 265.529,577.815 265.529,579.706 267.42,579.706 
		267.418,577.815 267.418,575.926 267.418,574.036 267.418,572.146 267.42,570.255 267.418,568.367 267.418,566.475 
		267.418,564.586 267.418,562.697 267.418,560.807 267.418,558.917 267.418,557.026 267.418,555.136 267.418,553.248 
		267.418,551.357 267.418,549.467 267.418,547.577 267.418,545.687 267.418,543.797 267.418,541.907 265.528,541.907 
		265.528,543.797 265.529,545.687 265.529,547.577 265.529,549.467 265.528,551.357 265.529,553.248 265.529,555.136 
		265.529,557.026 265.529,558.916 265.528,560.806 265.529,562.697 265.528,564.586 265.529,566.476 265.528,568.366 
		265.529,570.255 263.639,570.256 263.639,572.146 	"/>
	<polygon fill="#1D1D1B" points="293.879,587.264 293.879,589.155 293.877,591.045 293.879,592.934 293.878,594.825 
		295.768,594.825 295.768,592.934 295.768,591.044 295.768,589.155 295.768,587.264 295.766,585.375 293.879,585.375 	"/>
	<polygon fill="#1D1D1B" points="295.768,570.255 295.768,572.146 295.768,574.035 295.766,575.925 295.766,577.815 
		295.768,579.706 295.768,581.595 295.768,583.485 295.766,585.375 297.656,585.375 297.656,583.485 297.656,581.595 
		297.656,579.705 297.656,577.815 297.655,575.925 297.656,574.035 297.656,572.146 297.656,570.255 297.655,568.365 
		297.656,566.475 295.768,566.475 295.766,568.365 	"/>
	<rect x="293.879" y="564.586" fill="#1D1D1B" width="1.888" height="1.889"/>
	<polygon fill="#1D1D1B" points="273.089,545.687 273.088,547.577 273.088,549.466 273.088,551.357 273.088,553.248 273.09,555.136 
		273.088,557.026 273.089,558.917 273.088,560.806 273.088,562.697 273.088,564.586 273.09,566.476 273.089,568.367 273.09,570.255 
		274.979,570.255 274.978,568.367 274.979,566.476 274.979,564.586 274.979,562.697 274.98,560.806 276.867,560.807 
		278.758,560.806 280.648,560.807 280.647,558.916 278.757,558.917 276.866,558.916 274.979,558.917 274.979,557.026 
		274.979,555.136 274.979,553.247 274.979,551.357 274.979,549.466 274.979,547.578 274.979,545.687 274.979,543.797 
		274.979,541.907 273.089,541.907 273.088,543.797 	"/>
	<polygon fill="#1D1D1B" points="271.198,541.907 273.089,541.907 273.088,540.017 271.197,540.018 269.309,540.018 
		267.418,540.018 267.418,541.907 269.308,541.907 	"/>
	<polygon fill="#1D1D1B" points="280.648,564.586 280.649,566.475 280.647,568.366 280.648,570.255 280.648,572.146 
		282.539,572.145 282.539,570.255 282.539,568.366 282.54,566.475 282.539,564.586 282.539,562.697 284.427,562.697 
		286.318,562.696 288.209,562.697 288.209,560.806 286.318,560.806 284.428,560.806 282.539,560.806 280.648,560.807 
		280.648,562.697 	"/>
	<polygon fill="#1D1D1B" points="288.21,566.475 288.209,568.366 288.209,570.255 288.209,572.145 288.209,574.036 290.098,574.036 
		290.098,572.146 290.098,570.255 290.098,568.366 290.097,566.475 290.098,564.586 291.986,564.586 293.878,564.586 
		293.877,562.697 291.988,562.697 290.098,562.696 288.209,562.697 288.209,564.585 	"/>
	<rect x="152.998" y="493" fill="#1D1D1B" width="9.001" height="9"/>
	<polygon fill="#1D1D1B" points="179.998,492.999 188.998,493 197.998,493 206.998,492.999 215.997,492.998 224.998,492.998 
		233.998,492.998 242.996,492.998 251.998,492.998 260.998,492.998 269.996,492.998 278.998,492.998 288,492.998 296.998,492.998 
		305.996,492.997 314.998,492.998 323.997,492.997 332.997,492.997 341.998,492.996 350.997,492.996 359.997,492.996 
		368.998,492.995 377.998,492.996 386.996,492.995 395.998,492.995 404.998,492.995 413.998,492.995 413.996,483.995 
		404.998,483.995 395.997,483.995 386.998,483.996 377.998,483.996 368.998,483.996 359.997,483.996 350.997,483.996 
		341.998,483.996 332.997,483.996 323.997,483.997 314.996,483.997 305.998,483.997 296.996,483.997 287.998,483.997 
		278.998,483.998 269.996,483.998 260.998,483.998 251.998,483.998 242.996,483.998 233.997,483.998 224.998,483.998 
		215.998,483.999 206.998,483.999 197.998,483.999 188.998,484 179.998,484 170.998,483.999 161.997,484 161.998,493 170.998,493 	
		"/>
	<rect x="413.998" y="492.995" fill="#1D1D1B" width="9" height="9"/>
	<polygon fill="#1D1D1B" points="153,609.998 153,601 153,592 153,583 144,583 144,592 144,601 144,610 152.998,610 
		152.998,618.998 161.998,618.998 161.998,609.998 	"/>
	<polygon fill="#1D1D1B" points="170.998,618.998 161.998,618.998 161.998,627.998 170.998,627.998 179.998,627.998 
		188.998,627.998 188.998,618.998 179.998,618.998 	"/>
	<polygon fill="#1D1D1B" points="409.5,546.995 409.498,537.995 400.498,537.995 400.498,546.995 400.5,555.995 400.5,564.995 
		400.5,573.995 409.5,573.995 409.498,564.995 409.5,555.995 	"/>
	<polygon fill="#1D1D1B" points="224.998,510.999 233.998,510.998 242.998,510.998 251.998,510.998 260.996,510.998 270,510.998 
		278.998,510.998 287.997,510.998 296.998,510.997 305.997,510.997 314.997,510.997 323.998,510.996 332.998,510.996 
		341.998,510.996 350.998,510.996 359.998,510.996 364.498,510.995 364.498,506.496 359.998,506.496 350.998,506.496 
		341.998,506.496 332.998,506.497 323.998,506.497 314.997,506.497 305.998,506.497 296.997,506.498 287.998,506.497 279,506.498 
		269.996,506.498 260.998,506.498 251.998,506.498 242.997,506.498 233.996,506.499 224.998,506.498 215.998,506.498 
		211.497,506.499 211.498,510.999 215.998,510.999 	"/>
	<polygon fill="#1D1D1B" points="346.5,600.996 337.5,600.996 328.5,600.997 319.5,600.996 310.5,600.997 301.5,600.997 
		293.879,600.998 293.879,600.494 293.879,598.604 293.879,596.714 293.878,594.825 291.988,594.825 291.988,596.715 
		291.988,598.604 291.989,600.494 290.097,600.494 288.21,600.494 286.317,600.494 284.429,600.494 282.539,600.495 
		280.648,600.494 278.758,600.494 276.867,600.495 274.979,600.494 273.09,600.494 271.199,600.495 269.309,600.495 
		267.418,600.495 265.529,600.495 265.529,598.604 265.529,596.715 263.639,596.715 263.64,598.605 263.639,600.495 
		263.639,600.998 256.498,600.998 247.5,600.998 238.5,600.998 229.498,600.999 220.5,600.999 211.5,600.999 211.5,605.499 
		220.5,605.498 229.5,605.498 238.5,605.498 247.498,605.498 256.5,605.498 265.5,605.498 274.502,605.498 283.5,605.497 
		292.5,605.497 301.5,605.497 310.5,605.497 319.5,605.497 328.5,605.497 337.5,605.496 346.5,605.496 355.5,605.496 
		364.498,605.495 364.5,600.996 355.5,600.996 	"/>
	<path fill="#1D1D1B" d="M377.998,524.495v-9v-8.999v-9h-4.502h-8.998h-9.001l-9,0h-8.999l-9.001,0l-9,0l-9,0h-8.999h-9.001
		l-8.999,0.001h-9h-9.002h-9h-8.999h-8.999l-9,0l-9.001,0h-8.999l-9,0.001l-4.502-0.001l0.002,9v9v9v9v9.001l0.002,9v9v8.999
		l-0.002,9l0.002,9v9.001v8.999v9l4.5,0.001l9-0.001l9,0h9l9.002,0l8.998,0h9l9,0h9.002h8.998l9-0.001h9.002h8.998h9h9l9,0l9,0h9
		l9,0h9l4.5,0v-9v-9.001v-8.999v-9v-9v-9v-9l-0.002-9v-9V524.495z M373.498,542.496v9l0.002,9v9l-0.002,9l0.002,9v9v9v4.5h-9h-9
		l-9,0h-9l-9,0l-9,0.001h-9l-9,0.001h-9h-9h-9h-9h-9.002H247.5l-9,0l-9,0h-9h-9h-9V605.5v-9.001v-9l-0.002-8.999l0.002-9.001v-9v-9
		l-0.002-9v-9v-9v-9v-9v-4.5l9,0h8.999l9.001,0l9,0l8.998,0h9.002h9l9-0.001h9h9h8.999h9h9h9.001l9-0.001h8.999l9.001,0l9,0h8.999
		l0.001,4.499v9.001v9v9V542.496z"/>
	<polygon fill="#1D1D1B" points="180,565 180,556 180,547 170.998,547 161.998,547 161.998,556 162,565 171,565 	"/>
	<polygon fill="#1D1D1B" points="152.998,511 152.998,502 143.997,502 143.998,510.999 143.998,520 143.998,529 152.998,529 
		152.998,520 	"/>
	<polygon fill="#1D1D1B" points="396,618.995 387,618.995 378,618.995 369,618.995 360,618.996 351,618.996 342,618.996 
		333,618.997 324,618.997 315,618.997 306,618.997 297,618.997 288,618.997 279,618.998 270,618.998 261.002,618.998 252,618.998 
		242.998,618.998 234,618.998 225,618.998 216,618.999 207,618.999 198,619 189,619 189,628 198,627.999 207,628 216.002,627.999 
		225,627.998 234.002,627.998 243.002,627.998 252,627.998 261,627.998 270,627.998 279,627.998 288,627.998 297.002,627.997 
		306,627.997 315,627.997 324.002,627.996 333,627.996 342,627.996 351,627.996 360,627.996 369,627.995 378,627.995 387,627.995 
		396,627.995 405,627.995 414,627.995 414,618.995 405,618.995 	"/>
	<rect x="414" y="609.995" fill="#1D1D1B" width="9" height="9"/>
	<polygon fill="#1D1D1B" points="422.998,519.994 422.998,528.994 431.998,528.994 431.996,519.994 431.998,510.995 
		431.998,510.995 431.998,501.994 422.997,501.995 422.998,510.995 	"/>
	<polygon fill="#1D1D1B" points="432,537.994 431.998,528.995 422.998,528.994 423,537.994 422.997,546.995 422.998,555.995 
		423,564.994 422.998,573.995 422.998,582.995 422.998,591.995 423,600.994 423,609.995 432,609.994 431.998,600.995 432,591.995 
		432,582.995 432,573.994 432,564.995 431.998,555.994 431.998,546.994 	"/>
	<rect x="283.439" y="525.368" fill="#1D1D1B" width="6.702" height="6.701"/>
</g>
<g>
	<polygon fill="#1D1D1B" points="414,403 414,394 414,385 414,376 414,367 414,358 414,349 414,340 414,331 414,322 414,313 
		414,304 414,295 414,286 414,277 414,268 414,259 414,250 414,241 414,232 414,223 414,214 414,205 414,196 414,187 414,178 
		414,169 414,160 414,151 405,151 405,160 405,169 405,178 405,187 405,196 405,205 405,214 405,223 405,232 405,241 405,250 
		405,259 405,268 405,277 405,286 405,295 405,304 405,313 405,322 405,331 405,340 405,349 405,358 405,367 405,376 405,385 
		405,394 405,403 405,412 405,421 414,421 414,412 	"/>
	<polygon fill="#1D1D1B" points="432,385 432,376 432,367 432,358 432,349 432,340 432,331 432,322 432,313 432,304 432,295 
		432,286 432,277 432,268 432,259 432,250 432,241 432,232 432,223 432,214 432,205 432,196 432,187 432,178 432,169 423,169 
		423,178 423,187 423,196 423,205 423,214 423,223 423,232 423,241 423,250 423,259 423,268 423,277 423,286 423,295 423,304 
		423,313 423,322 423,331 423,340 423,349 423,358 423,367 423,376 423,385 423,394 423,403 432,403 432,394 	"/>
	<polygon fill="#1D1D1B" points="432,151 441,151 450,151 459,151 468,151 477,151 486,151 495,151 504,151 513,151 522,151 
		531,151 540,151 549,151 558,151 567,151 576,151 585,151 594,151 603,151 612,151 621,151 630,151 639,151 648,151 657,151 
		666,151 675,151 684,151 693,151 702,151 711,151 720,151 729,151 738,151 747,151 756,151 765,151 774,151 783,151 792,151 
		801,151 810,151 819,151 828,151 828,142 819,142 810,142 801,142 792,142 783,142 774,142 765,142 756,142 747,142 738,142 
		729,142 720,142 711,142 702,142 693,142 684,142 675,142 666,142 657,142 648,142 639,142 630,142 621,142 612,142 603,142 
		594,142 585,142 576,142 567,142 558,142 549,142 540,142 531,142 522,142 513,142 504,142 495,142 486,142 477,142 468,142 
		459,142 450,142 441,142 432,142 423,142 414,142 414,151 423,151 	"/>
	<polygon fill="#1D1D1B" points="450,169 459,169 468,169 477,169 486,169 495,169 504,169 513,169 522,169 531,169 540,169 
		549,169 558,169 567,169 576,169 585,169 594,169 603,169 612,169 621,169 630,169 639,169 648,169 657,169 666,169 675,169 
		684,169 693,169 702,169 711,169 720,169 729,169 738,169 747,169 756,169 765,169 774,169 783,169 792,169 801,169 810,169 
		810,160 801,160 792,160 783,160 774,160 765,160 756,160 747,160 738,160 729,160 720,160 711,160 702,160 693,160 684,160 
		675,160 666,160 657,160 648,160 639,160 630,160 621,160 612,160 603,160 594,160 585,160 576,160 567,160 558,160 549,160 
		540,160 531,160 522,160 513,160 504,160 495,160 486,160 477,160 468,160 459,160 450,160 441,160 432,160 432,169 441,169 	"/>
	<polygon fill="#1D1D1B" points="810,421 801,421 792,421 783,421 774,421 765,421 756,421 747,421 738,421 729,421 720,421 
		711,421 702,421 693,421 684,421 675,421 666,421 657,421 648,421 639,421 630,421 621,421 612,421 603,421 594,421 585,421 
		576,421 567,421 558,421 549,421 540,421 531,421 522,421 513,421 504,421 495,421 486,421 477,421 468,421 459,421 450,421 
		441,421 432,421 423,421 414,421 414,430 423,430 432,430 441,430 450,430 459,430 468,430 477,430 486,430 495,430 504,430 
		513,430 522,430 531,430 540,430 549,430 558,430 567,430 576,430 585,430 594,430 603,430 612,430 612,439 612,448 621,448 
		630,448 630,439 630,430 639,430 648,430 657,430 666,430 675,430 684,430 693,430 702,430 711,430 720,430 729,430 738,430 
		747,430 756,430 765,430 774,430 783,430 792,430 801,430 810,430 819,430 828,430 828,421 819,421 	"/>
	<polygon fill="#1D1D1B" points="783,389.5 774,389.5 765,389.5 756,389.5 747,389.5 738,389.5 729,389.5 720,389.5 711,389.5 
		702,389.5 693,389.5 684,389.5 675,389.5 666,389.5 657,389.5 648,389.5 639,389.5 630,389.5 621,389.5 613.812,389.5 
		613.812,386.038 613.812,382.058 613.811,378.08 609.834,378.08 609.834,382.059 609.834,386.038 609.834,389.5 603,389.5 
		594,389.5 585,389.5 576,389.5 567,389.5 558,389.5 554.115,389.5 554.115,386.039 554.115,382.061 550.135,382.061 
		550.137,386.04 550.135,389.5 549,389.5 540,389.5 531,389.5 522,389.5 513,389.5 504,389.5 495,389.5 486,389.5 477,389.5 
		468,389.5 459,389.5 450,389.5 441,389.5 441,394 450,394 459,394 468,394 477,394 486,394 495,394 504,394 513,394 522,394 
		531,394 540,394 549,394 550.137,394 554.117,394 558,394 558.093,394 566.055,394 567,394 570.033,394 576,394 585,394 594,394 
		603,394 612,394 621,394 630,394 639,394 648,394 657,394 666,394 675,394 684,394 693,394 702,394 711,394 720,394 729,394 
		738,394 747,394 756,394 765,394 774,394 783,394 792,394 801,394 801,389.5 792,389.5 	"/>
	<polygon fill="#1D1D1B" points="783,178 774,178 765,178 756,178 747,178 738,178 729,178 720,178 711,178 702,178 693,178 
		684,178 675,178 666,178 657,178 648,178 639,178 630,178 621,178 612,178 603,178 594,178 585,178 576,178 567,178 558,178 
		549,178 540,178 531,178 522,178 513,178 504,178 495,178 486,178 477,178 468,178 459,178 450,178 441,178 441,182.5 450,182.5 
		459,182.5 468,182.5 477,182.5 486,182.5 495,182.5 504,182.5 513,182.5 522,182.5 531,182.5 540,182.5 549,182.5 558,182.5 
		567,182.5 576,182.5 585,182.5 594,182.5 603,182.5 612,182.5 621,182.5 630,182.5 639,182.5 648,182.5 657,182.5 666,182.5 
		675,182.5 684,182.5 693,182.5 702,182.5 711,182.5 720,182.5 729,182.5 738,182.5 747,182.5 756,182.5 765,182.5 774,182.5 
		783,182.5 792,182.5 801,182.5 801,178 792,178 	"/>
	<polygon fill="#1D1D1B" points="792,403 783,403 774,403 765,403 756,403 747,403 738,403 729,403 720,403 711,403 702,403 
		693,403 684,403 675,403 666,403 657,403 648,403 639,403 630,403 621,403 612,403 603,403 594,403 585,403 576,403 567,403 
		558,403 549,403 540,403 531,403 522,403 513,403 504,403 495,403 486,403 477,403 468,403 459,403 450,403 441,403 432,403 
		432,412 441,412 450,412 459,412 468,412 477,412 486,412 495,412 504,412 513,412 522,412 531,412 540,412 549,412 558,412 
		567,412 576,412 585,412 594,412 603,412 612,412 621,412 630,412 639,412 648,412 657,412 666,412 675,412 684,412 693,412 
		702,412 711,412 720,412 729,412 738,412 747,412 756,412 765,412 774,412 783,412 792,412 801,412 810,412 810,403 801,403 	"/>
	<polygon fill="#1D1D1B" points="810,178 810,187 810,196 810,205 810,214 810,223 810,232 810,241 810,250 810,259 810,268 
		810,277 810,286 810,295 810,304 810,313 810,322 810,331 810,340 810,349 810,358 810,367 810,376 810,385 810,394 810,403 
		819,403 819,394 819,385 819,376 819,367 819,358 819,349 819,340 819,331 819,322 819,313 819,304 819,295 819,286 819,277 
		819,268 819,259 819,250 819,241 819,232 819,223 819,214 819,205 819,196 819,187 819,178 819,169 810,169 	"/>
	<polygon fill="#1D1D1B" points="828,151 828,160 828,169 828,178 828,187 828,196 828,205 828,214 828,223 828,232 828,241 
		828,250 828,259 828,268 828,277 828,286 828,295 828,304 828,313 828,322 828,331 828,340 828,349 828,358 828,367 828,376 
		828,385 828,394 828,403 828,412 828,421 837,421 837,412 837,403 837,394 837,385 837,376 837,367 837,358 837,349 837,340 
		837,331 837,322 837,313 837,304 837,295 837,286 837,277 837,268 837,259 837,250 837,241 837,232 837,223 837,214 837,205 
		837,196 837,187 837,178 837,169 837,160 837,151 	"/>
	<polygon fill="#1D1D1B" points="550.135,374.101 550.137,370.121 546.157,370.121 546.157,374.101 546.157,378.08 546.161,382.061 
		550.135,382.061 550.137,378.081 	"/>
	<polygon fill="#1D1D1B" points="546.157,362.161 546.161,358.18 542.176,358.182 542.175,362.161 542.18,366.141 542.175,370.121 
		546.157,370.121 546.161,366.141 	"/>
	<polygon fill="#1D1D1B" points="542.175,350.222 542.175,346.242 542.176,342.262 538.194,342.262 538.194,346.242 
		538.194,350.222 538.194,354.202 538.194,358.182 542.176,358.182 542.175,354.201 	"/>
	<rect x="534.212" y="338.284" fill="#1D1D1B" width="3.981" height="3.979"/>
	<polygon fill="#1D1D1B" points="534.211,330.322 534.209,326.343 538.19,326.343 542.175,326.343 546.157,326.342 550.135,326.343 
		550.135,322.365 546.161,322.365 542.176,322.365 538.194,322.365 534.213,322.365 530.234,322.365 530.232,326.343 
		530.234,330.322 530.234,334.304 530.234,338.283 534.211,338.284 534.211,334.303 	"/>
	<polygon fill="#1D1D1B" points="554.115,330.322 554.115,334.303 554.112,338.282 554.115,342.26 554.115,346.242 558.096,346.242 
		558.093,342.26 558.093,338.283 558.093,334.303 558.093,330.322 558.096,326.342 558.093,322.365 558.093,318.381 
		558.093,314.402 558.093,310.425 558.093,306.445 558.093,302.464 558.093,298.484 558.093,294.502 558.093,290.526 
		558.093,286.545 558.093,282.566 558.093,278.585 558.093,274.605 558.093,270.625 558.093,266.646 554.113,266.645 
		554.113,270.625 554.115,274.605 554.115,278.584 554.115,282.566 554.113,286.545 554.115,290.526 554.115,294.503 
		554.115,298.484 554.115,302.463 554.113,306.443 554.115,310.425 554.113,314.404 554.115,318.383 554.113,322.361 
		554.115,326.342 550.135,326.343 550.135,330.322 	"/>
	<polygon fill="#1D1D1B" points="613.812,362.158 613.812,366.14 613.811,370.121 613.812,374.098 613.811,378.08 617.791,378.081 
		617.791,374.098 617.791,370.119 617.791,366.14 617.791,362.158 617.785,358.179 613.812,358.179 	"/>
	<polygon fill="#1D1D1B" points="617.791,326.342 617.791,330.322 617.791,334.301 617.785,338.281 617.785,342.26 617.791,346.242 
		617.791,350.221 617.791,354.201 617.785,358.179 621.766,358.179 621.766,354.201 621.766,350.221 621.766,346.24 621.766,342.26 
		621.765,338.281 621.766,334.301 621.766,330.322 621.766,326.34 621.765,322.361 621.766,318.381 617.791,318.381 
		617.785,322.361 	"/>
	<polygon fill="#1D1D1B" points="617.791,318.381 617.785,314.402 613.811,314.402 613.811,318.381 	"/>
	<polygon fill="#1D1D1B" points="570.033,274.605 570.031,278.584 570.031,282.563 570.031,286.545 570.031,290.526 
		570.035,294.503 570.031,298.483 570.033,302.464 570.031,306.443 570.031,310.425 570.031,314.404 570.035,318.383 
		570.033,322.365 570.035,326.342 574.012,326.342 574.011,322.365 574.012,318.383 574.012,314.404 574.012,310.425 
		574.016,306.443 577.99,306.445 581.971,306.443 585.953,306.445 585.949,302.463 581.969,302.464 577.988,302.463 
		574.012,302.464 574.012,298.483 574.012,294.503 574.012,290.524 574.012,286.545 574.012,282.563 574.012,278.586 
		574.012,274.605 574.012,270.625 574.012,266.645 570.033,266.645 570.031,270.625 	"/>
	<polygon fill="#1D1D1B" points="566.053,266.646 570.033,266.645 570.031,262.666 566.051,262.667 562.074,262.667 
		558.093,262.667 558.093,266.646 562.07,266.645 	"/>
	<polygon fill="#1D1D1B" points="585.953,314.402 585.955,318.381 585.949,322.361 585.953,326.34 585.953,330.322 589.934,330.32 
		589.934,326.342 589.934,322.361 589.936,318.381 589.934,314.404 589.934,310.425 593.91,310.425 597.894,310.422 
		601.875,310.425 601.875,306.443 597.894,306.443 593.912,306.442 589.934,306.443 585.953,306.445 585.953,310.425 	"/>
	<polygon fill="#1D1D1B" points="601.877,318.381 601.875,322.361 601.875,326.342 601.875,330.32 601.875,334.302 605.852,334.302 
		605.852,330.322 605.852,326.342 605.852,322.361 605.85,318.381 605.852,314.402 609.828,314.402 613.811,314.402 
		613.811,310.425 609.834,310.425 605.852,310.422 601.875,310.425 601.875,314.402 	"/>
	<polygon fill="#1D1D1B" points="611.996,223 600.16,223 600.158,234.839 612,234.839 	"/>
</g>
</svg>
