<?xml version="1.0" encoding="utf-8"?>
<!-- Generator: Adobe Illustrator 16.0.0, SVG Export Plug-In . SVG Version: 6.00 Build 0)  -->
<!DOCTYPE svg PUBLIC "-//W3C//DTD SVG 1.1//EN" "http://www.w3.org/Graphics/SVG/1.1/DTD/svg11.dtd">
<svg version="1.1" id="Layer_1" xmlns="http://www.w3.org/2000/svg" xmlns:xlink="http://www.w3.org/1999/xlink" x="0px" y="0px"
	 width="954px" height="810px" viewBox="0 0 954 810" enable-background="new 0 0 954 810" xml:space="preserve">
<polygon fill="#F5F5F5" points="689.797,448 680.797,448 671.797,448 662.797,448 653.797,448 644.797,448 635.797,448 626.797,448 
	617.797,448 608.797,448 599.797,448 590.797,448 581.797,448 572.797,448 563.797,448 554.797,448 545.797,448 536.797,448 
	536.797,457 545.797,457 554.797,457 563.797,457 572.797,457 581.797,457 590.797,457 599.797,457 608.797,457 617.797,457 
	626.797,457 635.797,457 644.797,457 653.797,457 662.797,457 671.797,457 680.797,457 689.797,457 698.797,457 698.797,448 "/>
<g>
	<polygon fill="#F5F5F5" points="95.797,466 95.797,475 95.797,484 95.797,493 95.797,502 95.797,511 95.797,520 95.797,529 
		95.797,538 95.797,547 95.797,556 100.297,556 100.297,560.5 109.297,560.5 118.297,560.5 122.797,560.5 122.797,565 122.797,565 
		122.797,574 131.797,574 140.797,574 140.797,583 149.795,583 149.797,574 149.795,565 149.795,556 149.795,547 149.794,538 
		149.795,529 140.795,529 140.797,538 131.797,538 122.797,538 122.797,547 122.797,551.5 118.297,551.5 109.297,551.5 
		104.797,551.5 104.797,547 104.797,538 104.797,529 104.797,520 104.797,511 104.797,502 104.797,493 104.797,484 104.797,475 
		104.797,466 104.797,457 95.797,457 	"/>
	<polygon fill="#F5F5F5" points="518.797,448 509.797,448 500.797,448 491.797,448 482.797,448 473.797,448 464.797,448 
		455.797,448 446.797,448 437.797,448 428.797,448 419.797,448 410.797,448 401.797,448 392.797,448 383.797,448 374.797,448 
		365.797,448 356.797,448 347.797,448 338.797,448 329.797,448 320.797,448 311.797,448 302.797,448 293.797,448 284.797,448 
		275.797,448 266.797,448 257.797,448 248.797,448 239.797,448 230.797,448 221.797,448 212.797,448 203.797,448 194.797,448 
		185.797,448 176.797,448 167.797,448 158.797,448 149.797,448 140.797,448 131.797,448 122.797,448 113.797,448 104.797,448 
		104.797,457 113.797,457 122.797,457 131.797,457 140.797,457 149.797,457 158.797,457 167.797,457 176.797,457 185.797,457 
		194.797,457 203.797,457 212.797,457 221.797,457 230.797,457 239.797,457 248.797,457 257.797,457 266.797,457 275.797,457 
		284.797,457 293.797,457 302.797,457 311.797,457 320.797,457 329.797,457 338.797,457 347.797,457 356.797,457 365.797,457 
		374.797,457 383.797,457 392.797,457 401.797,457 410.797,457 419.797,457 428.797,457 437.797,457 446.797,457 455.797,457 
		464.797,457 473.797,457 482.797,457 491.797,457 500.797,457 509.797,457 518.797,457 527.797,457 527.797,448 	"/>
	<polygon fill="#F5F5F5" points="260.436,592.935 260.437,591.045 258.547,591.045 258.547,592.935 258.547,594.825 
		258.549,596.715 260.436,596.715 260.437,594.825 	"/>
	<polygon fill="#F5F5F5" points="258.547,587.265 258.549,585.375 256.657,585.375 256.656,587.265 256.658,589.155 
		256.656,591.045 258.547,591.045 258.549,589.155 	"/>
	<polygon fill="#F5F5F5" points="256.656,581.596 256.656,579.706 256.657,577.816 254.766,577.816 254.766,579.706 
		254.766,581.596 254.766,583.486 254.766,585.375 256.657,585.375 256.656,583.485 	"/>
	<rect x="252.875" y="575.927" fill="#F5F5F5" width="1.89" height="1.889"/>
	<polygon fill="#F5F5F5" points="252.875,572.146 252.874,570.256 254.765,570.256 256.656,570.256 258.547,570.255 
		260.436,570.256 260.436,568.367 258.549,568.367 256.657,568.367 254.766,568.367 252.876,568.367 250.986,568.367 
		250.985,570.256 250.986,572.146 250.987,574.037 250.986,575.926 252.875,575.927 252.875,574.036 	"/>
	<polygon fill="#F5F5F5" points="262.326,572.146 262.326,574.036 262.324,575.926 262.326,577.815 262.326,579.706 
		264.217,579.706 264.215,577.815 264.215,575.926 264.215,574.036 264.215,572.146 264.217,570.255 264.215,568.367 
		264.215,566.475 264.215,564.586 264.215,562.697 264.215,560.807 264.215,558.917 264.215,557.026 264.215,555.136 
		264.215,553.248 264.215,551.357 264.215,549.467 264.215,547.577 264.215,545.687 264.215,543.797 264.215,541.907 
		262.325,541.907 262.325,543.797 262.326,545.687 262.326,547.577 262.326,549.467 262.325,551.357 262.326,553.248 
		262.326,555.136 262.326,557.026 262.326,558.916 262.325,560.806 262.326,562.697 262.325,564.586 262.326,566.476 
		262.325,568.366 262.326,570.255 260.436,570.256 260.436,572.146 	"/>
	<polygon fill="#F5F5F5" points="290.676,587.264 290.676,589.155 290.674,591.045 290.676,592.934 290.675,594.825 
		292.564,594.825 292.564,592.934 292.564,591.044 292.564,589.155 292.564,587.264 292.562,585.375 290.676,585.375 	"/>
	<polygon fill="#F5F5F5" points="292.564,570.255 292.564,572.146 292.564,574.035 292.562,575.925 292.562,577.815 
		292.564,579.706 292.564,581.595 292.564,583.485 292.562,585.375 294.453,585.375 294.453,583.485 294.453,581.595 
		294.453,579.705 294.453,577.815 294.452,575.925 294.453,574.035 294.453,572.146 294.453,570.255 294.452,568.365 
		294.453,566.475 292.564,566.475 292.562,568.365 	"/>
	<rect x="290.676" y="564.586" fill="#F5F5F5" width="1.888" height="1.889"/>
	<polygon fill="#F5F5F5" points="269.886,545.687 269.885,547.577 269.885,549.466 269.885,551.357 269.885,553.248 
		269.887,555.136 269.885,557.026 269.886,558.917 269.885,560.806 269.885,562.697 269.885,564.586 269.887,566.476 
		269.886,568.367 269.887,570.255 271.775,570.255 271.774,568.367 271.775,566.476 271.775,564.586 271.775,562.697 
		271.777,560.806 273.664,560.807 275.555,560.806 277.445,560.807 277.444,558.916 275.554,558.917 273.663,558.916 
		271.775,558.917 271.775,557.026 271.775,555.136 271.775,553.247 271.775,551.357 271.775,549.466 271.775,547.578 
		271.775,545.687 271.775,543.797 271.775,541.907 269.886,541.907 269.885,543.797 	"/>
	<polygon fill="#F5F5F5" points="267.995,541.907 269.886,541.907 269.885,540.017 267.994,540.018 266.105,540.018 
		264.215,540.018 264.215,541.907 266.104,541.907 	"/>
	<polygon fill="#F5F5F5" points="277.445,564.586 277.446,566.475 277.444,568.366 277.445,570.255 277.445,572.146 
		279.336,572.145 279.336,570.255 279.336,568.366 279.337,566.475 279.336,564.586 279.336,562.697 281.224,562.697 
		283.115,562.696 285.006,562.697 285.006,560.806 283.115,560.806 281.225,560.806 279.336,560.806 277.445,560.807 
		277.445,562.697 	"/>
	<polygon fill="#F5F5F5" points="285.007,566.475 285.006,568.366 285.006,570.255 285.006,572.145 285.006,574.036 
		286.895,574.036 286.895,572.146 286.895,570.255 286.895,568.366 286.894,566.475 286.895,564.586 288.783,564.586 
		290.675,564.586 290.674,562.697 288.785,562.697 286.895,562.696 285.006,562.697 285.006,564.585 	"/>
	<rect x="149.794" y="493" fill="#F5F5F5" width="9.001" height="9"/>
	<polygon fill="#F5F5F5" points="176.795,492.999 185.795,493 194.795,493 203.795,492.999 212.794,492.998 221.795,492.998 
		230.795,492.998 239.793,492.998 248.795,492.998 257.795,492.998 266.793,492.998 275.795,492.998 284.797,492.998 
		293.795,492.998 302.793,492.997 311.795,492.998 320.794,492.997 329.794,492.997 338.795,492.996 347.794,492.996 
		356.794,492.996 365.795,492.995 374.795,492.996 383.793,492.995 392.795,492.995 401.795,492.995 410.795,492.995 
		410.793,483.995 401.795,483.995 392.794,483.995 383.795,483.996 374.795,483.996 365.795,483.996 356.794,483.996 
		347.794,483.996 338.795,483.996 329.794,483.996 320.794,483.997 311.793,483.997 302.795,483.997 293.793,483.997 
		284.795,483.997 275.795,483.998 266.793,483.998 257.795,483.998 248.795,483.998 239.793,483.998 230.794,483.998 
		221.795,483.998 212.795,483.999 203.795,483.999 194.795,483.999 185.795,484 176.795,484 167.795,483.999 158.794,484 
		158.795,493 167.795,493 	"/>
	<rect x="410.794" y="492.995" fill="#F5F5F5" width="9" height="9"/>
	<polygon fill="#F5F5F5" points="149.797,609.998 149.797,601 149.797,592 149.797,583 140.797,583 140.797,592 140.797,601 
		140.797,610 149.795,610 149.795,618.998 158.795,618.998 158.795,609.998 	"/>
	<polygon fill="#F5F5F5" points="167.795,618.998 158.795,618.998 158.795,627.998 167.795,627.998 176.795,627.998 
		185.795,627.998 185.795,618.998 176.795,618.998 	"/>
	<polygon fill="#F5F5F5" points="406.297,546.995 406.295,537.995 397.295,537.995 397.295,546.995 397.297,555.995 
		397.297,564.995 397.297,573.995 406.297,573.995 406.295,564.995 406.297,555.995 	"/>
	<polygon fill="#F5F5F5" points="221.795,510.999 230.795,510.998 239.795,510.998 248.795,510.998 257.793,510.998 
		266.797,510.998 275.795,510.998 284.794,510.998 293.795,510.997 302.794,510.997 311.794,510.997 320.795,510.996 
		329.795,510.996 338.795,510.996 347.795,510.996 356.795,510.996 361.295,510.995 361.295,506.496 356.795,506.496 
		347.795,506.496 338.795,506.496 329.795,506.497 320.795,506.497 311.794,506.497 302.795,506.497 293.794,506.498 
		284.795,506.497 275.797,506.498 266.793,506.498 257.795,506.498 248.795,506.498 239.794,506.498 230.793,506.499 
		221.795,506.498 212.795,506.498 208.294,506.499 208.295,510.999 212.795,510.999 	"/>
	<polygon fill="#F5F5F5" points="343.297,600.996 334.297,600.996 325.297,600.997 316.297,600.996 307.297,600.997 
		298.297,600.997 290.676,600.998 290.676,600.494 290.676,598.604 290.676,596.714 290.675,594.825 288.785,594.825 
		288.785,596.715 288.785,598.604 288.786,600.494 286.894,600.494 285.007,600.494 283.114,600.494 281.226,600.494 
		279.336,600.495 277.445,600.494 275.555,600.494 273.664,600.495 271.775,600.494 269.887,600.494 267.996,600.495 
		266.105,600.495 264.215,600.495 262.326,600.495 262.326,598.604 262.326,596.715 260.436,596.715 260.437,598.605 
		260.436,600.495 260.436,600.998 253.295,600.998 244.297,600.998 235.297,600.998 226.295,600.999 217.297,600.999 
		208.297,600.999 208.297,605.499 217.297,605.498 226.297,605.498 235.297,605.498 244.295,605.498 253.297,605.498 
		262.297,605.498 271.299,605.498 280.297,605.497 289.297,605.497 298.297,605.497 307.297,605.497 316.297,605.497 
		325.297,605.497 334.297,605.496 343.297,605.496 352.297,605.496 361.295,605.495 361.297,600.996 352.297,600.996 	"/>
	<path fill="#F5F5F5" d="M374.795,524.495v-9v-8.999v-9h-4.502h-8.998h-9.001l-9,0h-8.999l-9.001,0l-9,0l-9,0h-8.999h-9.001
		l-8.999,0.001h-9h-9.002h-9h-8.999h-8.999l-9,0l-9.001,0h-8.999l-9,0.001l-4.502-0.001l0.002,9v9v9v9v9.001l0.002,9v9v8.999
		l-0.002,9l0.002,9v9.001v8.999v9l4.5,0.001l9-0.001l9,0h9l9.002,0l8.998,0h9l9,0h9.002h8.998l9-0.001h9.002h8.998h9h9l9,0l9,0h9
		l9,0h9l4.5,0v-9v-9.001v-8.999v-9v-9v-9v-9l-0.002-9v-9V524.495z M370.295,542.496v9l0.002,9v9l-0.002,9l0.002,9v9v9v4.5h-9h-9
		l-9,0h-9l-9,0l-9,0.001h-9l-9,0.001h-9h-9h-9h-9h-9.002h-8.998l-9,0l-9,0h-9h-9h-9V605.5v-9.001v-9l-0.002-8.999l0.002-9.001v-9v-9
		l-0.002-9v-9v-9v-9v-9v-4.5l9,0h8.999l9.001,0l9,0l8.998,0h9.002h9l9-0.001h9h9h8.999h9h9h9.001l9-0.001h8.999l9.001,0l9,0h8.999
		l0.001,4.499v9.001v9v9V542.496z"/>
	<polygon fill="#F5F5F5" points="176.797,565 176.797,556 176.797,547 167.795,547 158.795,547 158.795,556 158.797,565 
		167.797,565 	"/>
	<polygon fill="#F5F5F5" points="149.795,511 149.795,502 140.794,502 140.795,510.999 140.795,520 140.795,529 149.795,529 
		149.795,520 	"/>
	<polygon fill="#F5F5F5" points="392.797,618.995 383.797,618.995 374.797,618.995 365.797,618.995 356.797,618.996 
		347.797,618.996 338.797,618.996 329.797,618.997 320.797,618.997 311.797,618.997 302.797,618.997 293.797,618.997 
		284.797,618.997 275.797,618.998 266.797,618.998 257.799,618.998 248.797,618.998 239.795,618.998 230.797,618.998 
		221.797,618.998 212.797,618.999 203.797,618.999 194.797,619 185.797,619 185.797,628 194.797,627.999 203.797,628 
		212.799,627.999 221.797,627.998 230.799,627.998 239.799,627.998 248.797,627.998 257.797,627.998 266.797,627.998 
		275.797,627.998 284.797,627.998 293.799,627.997 302.797,627.997 311.797,627.997 320.799,627.996 329.797,627.996 
		338.797,627.996 347.797,627.996 356.797,627.996 365.797,627.995 374.797,627.995 383.797,627.995 392.797,627.995 
		401.797,627.995 410.797,627.995 410.797,618.995 401.797,618.995 	"/>
	<rect x="410.797" y="609.995" fill="#F5F5F5" width="9" height="9"/>
	<polygon fill="#F5F5F5" points="419.795,519.994 419.795,528.994 428.795,528.994 428.793,519.994 428.795,510.995 
		428.795,510.995 428.795,501.994 419.794,501.995 419.795,510.995 	"/>
	<polygon fill="#F5F5F5" points="428.797,537.994 428.795,528.995 419.795,528.994 419.797,537.994 419.794,546.995 
		419.795,555.995 419.797,564.994 419.795,573.995 419.795,582.995 419.795,591.995 419.797,600.994 419.797,609.995 
		428.797,609.994 428.795,600.995 428.797,591.995 428.797,582.995 428.797,573.994 428.797,564.995 428.795,555.994 
		428.795,546.994 	"/>
	<rect x="280.236" y="525.368" fill="#F5F5F5" width="6.702" height="6.701"/>
</g>
<g>
	<polygon fill="#F5F5F5" points="410.797,403 410.797,394 410.797,385 410.797,376 410.797,367 410.797,358 410.797,349 
		410.797,340 410.797,331 410.797,322 410.797,313 410.797,304 410.797,295 410.797,286 410.797,277 410.797,268 410.797,259 
		410.797,250 410.797,241 410.797,232 410.797,223 410.797,214 410.797,205 410.797,196 410.797,187 410.797,178 410.797,169 
		410.797,160 410.797,151 401.797,151 401.797,160 401.797,169 401.797,178 401.797,187 401.797,196 401.797,205 401.797,214 
		401.797,223 401.797,232 401.797,241 401.797,250 401.797,259 401.797,268 401.797,277 401.797,286 401.797,295 401.797,304 
		401.797,313 401.797,322 401.797,331 401.797,340 401.797,349 401.797,358 401.797,367 401.797,376 401.797,385 401.797,394 
		401.797,403 401.797,412 401.797,421 410.797,421 410.797,412 	"/>
	<polygon fill="#F5F5F5" points="428.797,385 428.797,376 428.797,367 428.797,358 428.797,349 428.797,340 428.797,331 
		428.797,322 428.797,313 428.797,304 428.797,295 428.797,286 428.797,277 428.797,268 428.797,259 428.797,250 428.797,241 
		428.797,232 428.797,223 428.797,214 428.797,205 428.797,196 428.797,187 428.797,178 428.797,169 419.797,169 419.797,178 
		419.797,187 419.797,196 419.797,205 419.797,214 419.797,223 419.797,232 419.797,241 419.797,250 419.797,259 419.797,268 
		419.797,277 419.797,286 419.797,295 419.797,304 419.797,313 419.797,322 419.797,331 419.797,340 419.797,349 419.797,358 
		419.797,367 419.797,376 419.797,385 419.797,394 419.797,403 428.797,403 428.797,394 	"/>
	<polygon fill="#F5F5F5" points="428.797,151 437.797,151 446.797,151 455.797,151 464.797,151 473.797,151 482.797,151 
		491.797,151 500.797,151 509.797,151 518.797,151 527.797,151 536.797,151 545.797,151 554.797,151 563.797,151 572.797,151 
		581.797,151 590.797,151 599.797,151 608.797,151 617.797,151 626.797,151 635.797,151 644.797,151 653.797,151 662.797,151 
		671.797,151 680.797,151 689.797,151 698.797,151 707.797,151 716.797,151 725.797,151 734.797,151 743.797,151 752.797,151 
		761.797,151 770.797,151 779.797,151 788.797,151 797.797,151 806.797,151 815.797,151 824.797,151 824.797,142 815.797,142 
		806.797,142 797.797,142 788.797,142 779.797,142 770.797,142 761.797,142 752.797,142 743.797,142 734.797,142 725.797,142 
		716.797,142 707.797,142 698.797,142 689.797,142 680.797,142 671.797,142 662.797,142 653.797,142 644.797,142 635.797,142 
		626.797,142 617.797,142 608.797,142 599.797,142 590.797,142 581.797,142 572.797,142 563.797,142 554.797,142 545.797,142 
		536.797,142 527.797,142 518.797,142 509.797,142 500.797,142 491.797,142 482.797,142 473.797,142 464.797,142 455.797,142 
		446.797,142 437.797,142 428.797,142 419.797,142 410.797,142 410.797,151 419.797,151 	"/>
	<polygon fill="#F5F5F5" points="446.797,169 455.797,169 464.797,169 473.797,169 482.797,169 491.797,169 500.797,169 
		509.797,169 518.797,169 527.797,169 536.797,169 545.797,169 554.797,169 563.797,169 572.797,169 581.797,169 590.797,169 
		599.797,169 608.797,169 617.797,169 626.797,169 635.797,169 644.797,169 653.797,169 662.797,169 671.797,169 680.797,169 
		689.797,169 698.797,169 707.797,169 716.797,169 725.797,169 734.797,169 743.797,169 752.797,169 761.797,169 770.797,169 
		779.797,169 788.797,169 797.797,169 806.797,169 806.797,160 797.797,160 788.797,160 779.797,160 770.797,160 761.797,160 
		752.797,160 743.797,160 734.797,160 725.797,160 716.797,160 707.797,160 698.797,160 689.797,160 680.797,160 671.797,160 
		662.797,160 653.797,160 644.797,160 635.797,160 626.797,160 617.797,160 608.797,160 599.797,160 590.797,160 581.797,160 
		572.797,160 563.797,160 554.797,160 545.797,160 536.797,160 527.797,160 518.797,160 509.797,160 500.797,160 491.797,160 
		482.797,160 473.797,160 464.797,160 455.797,160 446.797,160 437.797,160 428.797,160 428.797,169 437.797,169 	"/>
	<polygon fill="#F5F5F5" points="806.797,421 797.797,421 788.797,421 779.797,421 770.797,421 761.797,421 752.797,421 
		743.797,421 734.797,421 725.797,421 716.797,421 707.797,421 698.797,421 689.797,421 680.797,421 671.797,421 662.797,421 
		653.797,421 644.797,421 635.797,421 626.797,421 617.797,421 608.797,421 599.797,421 590.797,421 581.797,421 572.797,421 
		563.797,421 554.797,421 545.797,421 536.797,421 527.797,421 518.797,421 509.797,421 500.797,421 491.797,421 482.797,421 
		473.797,421 464.797,421 455.797,421 446.797,421 437.797,421 428.797,421 419.797,421 410.797,421 410.797,430 419.797,430 
		428.797,430 437.797,430 446.797,430 455.797,430 464.797,430 473.797,430 482.797,430 491.797,430 500.797,430 509.797,430 
		518.797,430 527.797,430 536.797,430 545.797,430 554.797,430 563.797,430 572.797,430 581.797,430 590.797,430 599.797,430 
		608.797,430 608.797,439 608.797,448 617.797,448 626.797,448 626.797,439 626.797,430 635.797,430 644.797,430 653.797,430 
		662.797,430 671.797,430 680.797,430 689.797,430 698.797,430 707.797,430 716.797,430 725.797,430 734.797,430 743.797,430 
		752.797,430 761.797,430 770.797,430 779.797,430 788.797,430 797.797,430 806.797,430 815.797,430 824.797,430 824.797,421 
		815.797,421 	"/>
	<polygon fill="#F5F5F5" points="779.797,389.5 770.797,389.5 761.797,389.5 752.797,389.5 743.797,389.5 734.797,389.5 
		725.797,389.5 716.797,389.5 707.797,389.5 698.797,389.5 689.797,389.5 680.797,389.5 671.797,389.5 662.797,389.5 653.797,389.5 
		644.797,389.5 635.797,389.5 626.797,389.5 617.797,389.5 610.609,389.5 610.609,386.038 610.609,382.058 610.607,378.08 
		606.631,378.08 606.631,382.059 606.631,386.038 606.631,389.5 599.797,389.5 590.797,389.5 581.797,389.5 572.797,389.5 
		563.797,389.5 554.797,389.5 550.912,389.5 550.912,386.039 550.912,382.061 546.932,382.061 546.934,386.04 546.932,389.5 
		545.797,389.5 536.797,389.5 527.797,389.5 518.797,389.5 509.797,389.5 500.797,389.5 491.797,389.5 482.797,389.5 473.797,389.5 
		464.797,389.5 455.797,389.5 446.797,389.5 437.797,389.5 437.797,394 446.797,394 455.797,394 464.797,394 473.797,394 
		482.797,394 491.797,394 500.797,394 509.797,394 518.797,394 527.797,394 536.797,394 545.797,394 546.934,394 550.914,394 
		554.797,394 554.89,394 562.852,394 563.797,394 566.83,394 572.797,394 581.797,394 590.797,394 599.797,394 608.797,394 
		617.797,394 626.797,394 635.797,394 644.797,394 653.797,394 662.797,394 671.797,394 680.797,394 689.797,394 698.797,394 
		707.797,394 716.797,394 725.797,394 734.797,394 743.797,394 752.797,394 761.797,394 770.797,394 779.797,394 788.797,394 
		797.797,394 797.797,389.5 788.797,389.5 	"/>
	<polygon fill="#F5F5F5" points="779.797,178 770.797,178 761.797,178 752.797,178 743.797,178 734.797,178 725.797,178 
		716.797,178 707.797,178 698.797,178 689.797,178 680.797,178 671.797,178 662.797,178 653.797,178 644.797,178 635.797,178 
		626.797,178 617.797,178 608.797,178 599.797,178 590.797,178 581.797,178 572.797,178 563.797,178 554.797,178 545.797,178 
		536.797,178 527.797,178 518.797,178 509.797,178 500.797,178 491.797,178 482.797,178 473.797,178 464.797,178 455.797,178 
		446.797,178 437.797,178 437.797,182.5 446.797,182.5 455.797,182.5 464.797,182.5 473.797,182.5 482.797,182.5 491.797,182.5 
		500.797,182.5 509.797,182.5 518.797,182.5 527.797,182.5 536.797,182.5 545.797,182.5 554.797,182.5 563.797,182.5 572.797,182.5 
		581.797,182.5 590.797,182.5 599.797,182.5 608.797,182.5 617.797,182.5 626.797,182.5 635.797,182.5 644.797,182.5 653.797,182.5 
		662.797,182.5 671.797,182.5 680.797,182.5 689.797,182.5 698.797,182.5 707.797,182.5 716.797,182.5 725.797,182.5 734.797,182.5 
		743.797,182.5 752.797,182.5 761.797,182.5 770.797,182.5 779.797,182.5 788.797,182.5 797.797,182.5 797.797,178 788.797,178 	"/>
	<polygon fill="#F5F5F5" points="788.797,403 779.797,403 770.797,403 761.797,403 752.797,403 743.797,403 734.797,403 
		725.797,403 716.797,403 707.797,403 698.797,403 689.797,403 680.797,403 671.797,403 662.797,403 653.797,403 644.797,403 
		635.797,403 626.797,403 617.797,403 608.797,403 599.797,403 590.797,403 581.797,403 572.797,403 563.797,403 554.797,403 
		545.797,403 536.797,403 527.797,403 518.797,403 509.797,403 500.797,403 491.797,403 482.797,403 473.797,403 464.797,403 
		455.797,403 446.797,403 437.797,403 428.797,403 428.797,412 437.797,412 446.797,412 455.797,412 464.797,412 473.797,412 
		482.797,412 491.797,412 500.797,412 509.797,412 518.797,412 527.797,412 536.797,412 545.797,412 554.797,412 563.797,412 
		572.797,412 581.797,412 590.797,412 599.797,412 608.797,412 617.797,412 626.797,412 635.797,412 644.797,412 653.797,412 
		662.797,412 671.797,412 680.797,412 689.797,412 698.797,412 707.797,412 716.797,412 725.797,412 734.797,412 743.797,412 
		752.797,412 761.797,412 770.797,412 779.797,412 788.797,412 797.797,412 806.797,412 806.797,403 797.797,403 	"/>
	<polygon fill="#F5F5F5" points="806.797,178 806.797,187 806.797,196 806.797,205 806.797,214 806.797,223 806.797,232 
		806.797,241 806.797,250 806.797,259 806.797,268 806.797,277 806.797,286 806.797,295 806.797,304 806.797,313 806.797,322 
		806.797,331 806.797,340 806.797,349 806.797,358 806.797,367 806.797,376 806.797,385 806.797,394 806.797,403 815.797,403 
		815.797,394 815.797,385 815.797,376 815.797,367 815.797,358 815.797,349 815.797,340 815.797,331 815.797,322 815.797,313 
		815.797,304 815.797,295 815.797,286 815.797,277 815.797,268 815.797,259 815.797,250 815.797,241 815.797,232 815.797,223 
		815.797,214 815.797,205 815.797,196 815.797,187 815.797,178 815.797,169 806.797,169 	"/>
	<polygon fill="#F5F5F5" points="824.797,151 824.797,160 824.797,169 824.797,178 824.797,187 824.797,196 824.797,205 
		824.797,214 824.797,223 824.797,232 824.797,241 824.797,250 824.797,259 824.797,268 824.797,277 824.797,286 824.797,295 
		824.797,304 824.797,313 824.797,322 824.797,331 824.797,340 824.797,349 824.797,358 824.797,367 824.797,376 824.797,385 
		824.797,394 824.797,403 824.797,412 824.797,421 833.797,421 833.797,412 833.797,403 833.797,394 833.797,385 833.797,376 
		833.797,367 833.797,358 833.797,349 833.797,340 833.797,331 833.797,322 833.797,313 833.797,304 833.797,295 833.797,286 
		833.797,277 833.797,268 833.797,259 833.797,250 833.797,241 833.797,232 833.797,223 833.797,214 833.797,205 833.797,196 
		833.797,187 833.797,178 833.797,169 833.797,160 833.797,151 	"/>
	<polygon fill="#F5F5F5" points="546.932,374.101 546.934,370.121 542.954,370.121 542.954,374.101 542.954,378.08 542.958,382.061 
		546.932,382.061 546.934,378.081 	"/>
	<polygon fill="#F5F5F5" points="542.954,362.161 542.958,358.18 538.973,358.182 538.972,362.161 538.977,366.141 538.972,370.121 
		542.954,370.121 542.958,366.141 	"/>
	<polygon fill="#F5F5F5" points="538.972,350.222 538.972,346.242 538.973,342.262 534.991,342.262 534.991,346.242 
		534.991,350.222 534.991,354.202 534.991,358.182 538.973,358.182 538.972,354.201 	"/>
	<rect x="531.009" y="338.284" fill="#F5F5F5" width="3.981" height="3.979"/>
	<polygon fill="#F5F5F5" points="531.008,330.322 531.006,326.343 534.987,326.343 538.972,326.343 542.954,326.342 
		546.932,326.343 546.932,322.365 542.958,322.365 538.973,322.365 534.991,322.365 531.01,322.365 527.031,322.365 
		527.029,326.343 527.031,330.322 527.031,334.304 527.031,338.283 531.008,338.284 531.008,334.303 	"/>
	<polygon fill="#F5F5F5" points="550.912,330.322 550.912,334.303 550.909,338.282 550.912,342.26 550.912,346.242 554.893,346.242 
		554.89,342.26 554.89,338.283 554.89,334.303 554.89,330.322 554.893,326.342 554.89,322.365 554.89,318.381 554.89,314.402 
		554.89,310.425 554.89,306.445 554.89,302.464 554.89,298.484 554.89,294.502 554.89,290.526 554.89,286.545 554.89,282.566 
		554.89,278.585 554.89,274.605 554.89,270.625 554.89,266.646 550.91,266.645 550.91,270.625 550.912,274.605 550.912,278.584 
		550.912,282.566 550.91,286.545 550.912,290.526 550.912,294.503 550.912,298.484 550.912,302.463 550.91,306.443 550.912,310.425 
		550.91,314.404 550.912,318.383 550.91,322.361 550.912,326.342 546.932,326.343 546.932,330.322 	"/>
	<polygon fill="#F5F5F5" points="610.609,362.158 610.609,366.14 610.607,370.121 610.609,374.098 610.607,378.08 614.588,378.081 
		614.588,374.098 614.588,370.119 614.588,366.14 614.588,362.158 614.582,358.179 610.609,358.179 	"/>
	<polygon fill="#F5F5F5" points="614.588,326.342 614.588,330.322 614.588,334.301 614.582,338.281 614.582,342.26 614.588,346.242 
		614.588,350.221 614.588,354.201 614.582,358.179 618.562,358.179 618.562,354.201 618.562,350.221 618.562,346.24 618.562,342.26 
		618.562,338.281 618.562,334.301 618.562,330.322 618.562,326.34 618.562,322.361 618.562,318.381 614.588,318.381 
		614.582,322.361 	"/>
	<polygon fill="#F5F5F5" points="614.588,318.381 614.582,314.402 610.607,314.402 610.607,318.381 	"/>
	<polygon fill="#F5F5F5" points="566.83,274.605 566.828,278.584 566.828,282.563 566.828,286.545 566.828,290.526 566.832,294.503 
		566.828,298.483 566.83,302.464 566.828,306.443 566.828,310.425 566.828,314.404 566.832,318.383 566.83,322.365 566.832,326.342 
		570.809,326.342 570.808,322.365 570.809,318.383 570.809,314.404 570.809,310.425 570.812,306.443 574.787,306.445 
		578.768,306.443 582.75,306.445 582.746,302.463 578.766,302.464 574.785,302.463 570.809,302.464 570.809,298.483 
		570.809,294.503 570.809,290.524 570.809,286.545 570.809,282.563 570.809,278.586 570.809,274.605 570.809,270.625 
		570.809,266.645 566.83,266.645 566.828,270.625 	"/>
	<polygon fill="#F5F5F5" points="562.85,266.646 566.83,266.645 566.828,262.666 562.848,262.667 558.871,262.667 554.89,262.667 
		554.89,266.646 558.867,266.645 	"/>
	<polygon fill="#F5F5F5" points="582.75,314.402 582.752,318.381 582.746,322.361 582.75,326.34 582.75,330.322 586.73,330.32 
		586.73,326.342 586.73,322.361 586.732,318.381 586.73,314.404 586.73,310.425 590.707,310.425 594.69,310.422 598.672,310.425 
		598.672,306.443 594.69,306.443 590.709,306.442 586.73,306.443 582.75,306.445 582.75,310.425 	"/>
	<polygon fill="#F5F5F5" points="598.674,318.381 598.672,322.361 598.672,326.342 598.672,330.32 598.672,334.302 602.648,334.302 
		602.648,330.322 602.648,326.342 602.648,322.361 602.646,318.381 602.648,314.402 606.625,314.402 610.607,314.402 
		610.607,310.425 606.631,310.425 602.648,310.422 598.672,310.425 598.672,314.402 	"/>
	<polygon fill="#F5F5F5" points="608.793,223 596.957,223 596.955,234.839 608.797,234.839 	"/>
</g>
</svg>
