<?xml version="1.0" encoding="utf-8"?>
<!-- Generator: Adobe Illustrator 16.0.0, SVG Export Plug-In . SVG Version: 6.00 Build 0)  -->
<!DOCTYPE svg PUBLIC "-//W3C//DTD SVG 1.1//EN" "http://www.w3.org/Graphics/SVG/1.1/DTD/svg11.dtd">
<svg version="1.1" id="Layer_1" xmlns="http://www.w3.org/2000/svg" xmlns:xlink="http://www.w3.org/1999/xlink" x="0px" y="0px"
	 width="954px" height="810px" viewBox="0 0 954 810" enable-background="new 0 0 954 810" xml:space="preserve">
<polygon fill="#1D1D1B" points="909,312 900,312 891,312 882,312 882,303 882,294 882,285 882,276 882,267 882,258 882,249 882,240 
	882,231 882,222 882,213 882,204 882,195 882,186 882,177 882,168 882,159 882,150 882,141 882,132 882,123 873,123 873,132 
	873,141 873,150 873,159 873,168 873,177 873,186 873,195 873,204 873,213 873,222 873,231 873,240 873,249 873,258 873,267 
	873,276 873,285 873,294 873,303 873,312 873,321 882,321 891,321 900,321 909,321 909,330 909,339 909,348 909,357 909,366 
	909,375 918,375 918,366 918,357 918,348 918,339 918,330 918,321 918,312 "/>
<polygon fill="#1D1D1B" points="810,231 810,222 810,213 810,204 810,195 810,186 810,177 810,168 810,159 810,150 810,141 810,132 
	819,132 828,132 837,132 846,132 855,132 864,132 873,132 873,123 864,123 855,123 846,123 837,123 828,123 819,123 810,123 
	801,123 801,132 801,141 801,150 801,159 801,168 801,177 801,186 801,195 801,204 801,213 801,222 801,231 801,240 801,249 
	792,249 783,249 774,249 765,249 765,258 765,267 765,276 765,285 765,294 756,294 747,294 738,294 738,303 747,303 756,303 
	765,303 765,312 765,321 765,330 765,339 765,348 765,357 765,366 765,375 774,375 774,366 774,357 774,348 774,339 774,330 
	774,321 774,312 774,303 774,294 774,285 774,276 774,267 774,258 783,258 792,258 801,258 810,258 819,258 828,258 837,258 
	837,267 837,276 837,285 837,294 837,303 837,312 828,312 819,312 810,312 801,312 801,321 801,330 801,339 801,348 801,357 
	801,366 801,375 810,375 810,366 810,357 810,348 810,339 810,330 810,321 819,321 828,321 837,321 846,321 855,321 864,321 
	873,321 873,312 864,312 855,312 846,312 846,303 846,294 846,285 846,276 846,267 846,258 846,249 837,249 828,249 819,249 
	810,249 810,240 "/>
<polygon fill="#1D1D1B" points="729,294 720,294 720,285 720,276 720,267 720,258 720,249 720,240 720,231 720,222 720,213 711,213 
	702,213 693,213 684,213 675,213 670.5,213 670.5,208.5 670.5,199.5 670.5,190.5 670.5,181.5 670.5,172.5 670.5,163.5 670.5,154.5 
	670.5,145.5 670.5,136.5 670.5,127.5 670.5,118.5 670.5,109.5 670.5,100.5 670.5,91.5 670.5,82.5 661.5,82.5 652.5,82.5 643.5,82.5 
	634.5,82.5 625.5,82.5 616.5,82.5 607.5,82.5 598.5,82.5 589.5,82.5 589.5,91.5 589.5,100.5 589.5,109.5 589.5,118.5 589.5,127.5 
	589.5,136.5 589.5,145.5 589.5,154.5 589.5,163.5 589.5,172.5 589.5,181.5 589.5,190.5 589.5,199.5 589.5,208.5 589.5,217.5 
	589.5,226.5 589.5,235.5 589.5,244.5 589.5,253.5 589.5,262.5 589.5,267 585,267 576,267 567,267 558,267 549,267 540,267 531,267 
	531,276 531,285 531,294 531,303 531,312 531,321 531,330 531,339 531,348 531,357 531,366 531,375 540,375 540,366 540,357 
	540,348 540,339 540,330 540,321 540,312 540,303 540,294 540,285 540,276 549,276 558,276 567,276 576,276 585,276 594,276 
	603,276 603,285 603,294 603,303 603,312 603,321 603,330 603,339 603,348 603,357 603,366 603,375 612,375 612,366 612,357 
	612,348 612,339 612,330 612,321 612,312 612,303 612,294 612,285 612,276 612,267 603,267 598.5,267 598.5,262.5 598.5,253.5 
	598.5,244.5 598.5,235.5 598.5,226.5 598.5,217.5 598.5,208.5 598.5,199.5 598.5,190.5 598.5,181.5 598.5,172.5 598.5,163.5 
	598.5,154.5 598.5,145.5 598.5,136.5 598.5,127.5 598.5,118.5 598.5,109.5 598.5,100.5 598.5,91.5 607.5,91.5 616.5,91.5 
	625.5,91.5 634.5,91.5 643.5,91.5 652.5,91.5 661.5,91.5 661.5,100.5 661.5,109.5 661.5,118.5 661.5,127.5 661.5,136.5 661.5,145.5 
	661.5,154.5 661.5,163.5 661.5,172.5 661.5,181.5 661.5,190.5 661.5,199.5 661.5,208.5 661.5,213 657,213 648,213 639,213 639,222 
	639,231 639,240 639,249 639,258 639,267 639,276 639,285 639,294 639,303 639,312 639,321 639,330 639,339 639,348 639,357 
	639,366 639,375 648,375 648,366 648,357 648,348 648,339 648,330 648,321 648,312 648,303 648,294 648,285 648,276 648,267 
	648,258 648,249 648,240 648,231 648,222 657,222 666,222 675,222 684,222 693,222 702,222 711,222 711,231 711,240 711,249 
	711,258 711,267 711,276 711,285 711,294 711,303 711,312 711,321 711,330 711,339 711,348 711,357 711,366 711,375 720,375 
	720,366 720,357 720,348 720,339 720,330 720,321 720,312 720,303 729,303 738,303 738,294 "/>
<g>
	<rect x="436.5" y="586.5" fill="#1D1D1B" width="9" height="9"/>
	<rect x="427.498" y="595.5" fill="#1D1D1B" width="9.002" height="9"/>
	<polygon fill="#1D1D1B" points="409.502,604.499 409.498,613.5 418.5,613.499 427.498,613.499 427.498,604.499 418.5,604.5 	"/>
	<polygon fill="#1D1D1B" points="409.5,586.499 400.5,586.499 400.5,595.499 400.498,604.499 409.502,604.499 409.5,595.499 	"/>
	<path fill="#1D1D1B" d="M418.5,577.5h0.002l8.998,0v9h9v-9h0.002v-9h-9v0h-9h-9l-9,0l-9,0h-9l-9,0h-9h-9h-9h-9h-9l-9,0.001h-9l-9,0
		l-9,0H283.5l-8.998,0h-9l-9,0h-9l-9,0v-4.5l4.5,0l9,0l9,0h9l9,0l9,0h9l9,0l9,0l9,0l9-0.001h9h9h9h9l9,0l9,0h9l9,0h9l4.5,0v-9V546
		v-8.999v-9v-9v-9v-9l-0.002-9v-9v-9v-9v-8.999v-9h-4.502H405h-9l-9,0.001h-9h-9h-9h-9h-9h-9l-9,0.001h-9h-9.002h-9H288h-9l-9,0
		l-9,0h-9l-9,0l-4.502,0l0.002,9v9v9v9v9l0.002,9v9v9l-0.002,9l0.002,9v9v9v4.5l-0.002-9h-8.998v9v9v9l9,0v9h9v-9l9,0l9,0h9l9,0h9h9
		h9h9h9l9.002-0.001h8.998h9l9,0h9l9,0l9,0l9,0l8.998,0v8.999h9V577.5z M243.002,546.004v-9l-0.002-9l0.002-9v-9v-9l-0.002-9v-9v-9
		v-9v-9v-4.5l9,0h9l9,0l9,0l8.998,0H297h9l9-0.001h9h9h9h9h9h9l9-0.001h9l9,0l9,0h8.999L414,456v9.001v9v9v9v9l0.002,9v9L414,528
		l0.002,9v9v9v4.5h-9h-9l-9,0h-9l-9,0l-9,0.001h-9l-9,0h-9l-9,0h-9l-9,0l-9.002,0h-8.998l-9,0l-9,0h-9h-9h-9v-4.5V546.004z"/>
	<rect x="445.5" y="595.5" fill="#1D1D1B" width="9" height="9"/>
	<rect x="454.5" y="604.5" fill="#1D1D1B" width="9" height="9"/>
	<polygon fill="#1D1D1B" points="472.5,613.5 463.5,613.5 463.5,622.5 463.5,631.5 472.5,631.5 472.5,622.5 	"/>
	<polygon fill="#1D1D1B" points="481.498,640.5 481.498,631.5 472.5,631.5 472.5,640.5 472.498,649.5 472.498,658.5 481.498,658.5 
		481.498,649.5 	"/>
	<polygon fill="#1D1D1B" points="490.498,667.5 490.498,658.5 481.498,658.5 481.5,667.5 481.498,676.5 481.498,685.5 
		490.498,685.501 490.498,676.5 	"/>
	<polygon fill="#1D1D1B" points="499.498,685.501 490.498,685.501 490.498,694.501 499.498,694.501 508.498,694.501 
		508.497,685.501 	"/>
	<polygon fill="#1D1D1B" points="508.498,712.501 508.502,712.501 508.502,721.5 517.504,721.5 517.504,712.5 517.496,712.5 
		517.497,703.501 517.498,694.501 508.498,694.501 508.498,703.501 	"/>
	<rect x="508.502" y="721.5" fill="#1D1D1B" width="9" height="9"/>
	<polygon fill="#1D1D1B" points="445.5,541.5 436.5,541.5 436.5,550.5 427.502,550.5 427.502,559.5 427.502,568.5 436.502,568.5 
		436.502,559.5 436.502,559.5 436.502,550.5 436.501,550.5 445.502,550.5 454.5,550.5 454.5,541.5 	"/>
	<polygon fill="#1D1D1B" points="490.5,568.501 490.5,559.5 481.5,559.5 472.5,559.5 463.502,559.5 463.5,559.5 463.5,568.5 
		472.5,568.5 472.5,577.5 481.5,577.5 481.5,568.5 	"/>
	<polygon fill="#1D1D1B" points="499.5,577.501 508.5,577.501 508.5,568.501 499.5,568.501 490.5,568.501 490.5,577.501 	"/>
	<polygon fill="#1D1D1B" points="508.5,568.501 517.5,568.501 517.502,559.501 517.5,550.501 508.502,550.501 508.498,559.501 	"/>
	<polygon fill="#1D1D1B" points="490.5,541.5 499.502,541.501 499.502,532.5 499.502,523.5 490.502,523.501 490.502,532.5 	"/>
	<rect x="499.502" y="541.501" fill="#1D1D1B" width="9" height="9"/>
	<polygon fill="#1D1D1B" points="517.498,586.501 526.5,586.501 526.5,577.501 526.502,568.501 517.5,568.501 517.5,577.501 	"/>
	<rect x="508.497" y="586.501" fill="#1D1D1B" width="9.002" height="9"/>
	<rect x="526.5" y="595.502" fill="#1D1D1B" width="9" height="8.999"/>
	<rect x="517.5" y="604.501" fill="#1D1D1B" width="9" height="9"/>
	<polygon fill="#1D1D1B" points="481.502,469.5 472.502,469.5 472.502,478.5 481.502,478.501 490.502,478.501 490.502,469.501 	"/>
	<polygon fill="#1D1D1B" points="499.502,478.501 490.502,478.501 490.502,487.5 499.502,487.501 508.502,487.501 508.502,478.501 	
		"/>
	<rect x="508.502" y="487.501" fill="#1D1D1B" width="9" height="9"/>
	<rect x="517.502" y="496.502" fill="#1D1D1B" width="9" height="9"/>
	<rect x="526.502" y="505.501" fill="#1D1D1B" width="8.998" height="9"/>
	<rect x="535.5" y="514.502" fill="#1D1D1B" width="9.002" height="9"/>
	<rect x="544.502" y="523.502" fill="#1D1D1B" width="8.998" height="9"/>
	<rect x="553.5" y="532.501" fill="#1D1D1B" width="9" height="9"/>
	<rect x="562.501" y="541.502" fill="#1D1D1B" width="8.998" height="9"/>
	<rect x="571.5" y="550.502" fill="#1D1D1B" width="9.002" height="9"/>
	<polygon fill="#1D1D1B" points="589.5,568.503 589.5,559.502 580.502,559.502 580.502,568.502 580.5,577.502 580.5,586.502 
		589.498,586.502 589.5,577.503 	"/>
	<polygon fill="#1D1D1B" points="598.498,604.503 598.498,595.503 598.5,586.502 589.498,586.502 589.498,595.502 589.498,604.503 
		589.498,613.502 589.5,622.502 598.5,622.502 598.498,613.503 	"/>
	<polygon fill="#1D1D1B" points="607.496,703.503 607.498,694.503 607.498,685.503 607.496,676.503 607.498,667.503 
		607.498,658.503 607.498,649.503 607.498,640.503 607.498,631.503 607.5,622.503 598.5,622.502 598.498,631.503 598.498,640.502 
		598.498,649.503 598.498,658.503 598.498,667.503 598.497,676.503 598.497,685.503 598.496,694.503 598.498,703.503 
		598.496,712.503 598.502,712.503 607.496,712.503 	"/>
	<polygon fill="#1D1D1B" points="598.502,712.503 598.502,721.503 589.502,721.503 580.502,721.503 571.502,721.502 
		562.502,721.502 562.502,730.502 571.502,730.502 580.502,730.503 589.502,730.503 598.502,730.502 607.503,730.503 
		607.503,721.503 607.503,712.504 	"/>
	<polygon fill="#1D1D1B" points="544.502,730.501 535.502,730.501 526.502,730.501 517.502,730.501 517.502,739.501 
		526.502,739.501 535.502,739.501 544.502,739.501 553.502,739.502 562.502,739.502 562.502,730.502 553.502,730.502 	"/>
	<polygon fill="#1D1D1B" points="490.5,577.501 481.5,577.5 481.5,586.5 481.498,595.501 490.5,595.501 490.5,586.501 	"/>
	<polygon fill="#1D1D1B" points="490.5,595.501 490.5,604.5 499.5,604.501 499.5,613.501 508.5,613.501 508.5,604.501 
		508.498,595.501 499.5,595.501 	"/>
	<rect x="508.5" y="613.501" fill="#1D1D1B" width="9" height="9.001"/>
	<rect x="517.501" y="622.501" fill="#1D1D1B" width="8.998" height="9"/>
	<rect x="454.5" y="550.5" fill="#1D1D1B" width="9" height="9"/>
	<rect x="211.502" y="586.505" fill="#1D1D1B" width="9" height="9"/>
	<rect x="220.502" y="595.505" fill="#1D1D1B" width="9.002" height="9"/>
	<polygon fill="#1D1D1B" points="229.504,604.504 229.504,613.504 238.502,613.504 247.504,613.504 247.502,604.504 
		238.502,604.504 	"/>
	<polygon fill="#1D1D1B" points="247.502,604.504 256.504,604.504 256.502,595.504 256.502,586.504 247.502,586.504 
		247.502,595.504 	"/>
	<rect x="202.502" y="595.505" fill="#1D1D1B" width="9" height="9"/>
	<rect x="193.502" y="604.505" fill="#1D1D1B" width="9" height="9"/>
	<polygon fill="#1D1D1B" points="184.502,622.505 184.502,631.505 193.502,631.505 193.502,622.505 193.502,613.505 
		184.502,613.505 	"/>
	<polygon fill="#1D1D1B" points="175.504,640.505 175.504,649.505 175.504,658.505 184.504,658.505 184.504,649.505 
		184.502,640.505 184.502,631.505 175.504,631.505 	"/>
	<polygon fill="#1D1D1B" points="166.504,667.505 166.504,676.505 166.504,685.506 175.504,685.505 175.504,676.505 
		175.502,667.505 175.504,658.505 166.504,658.505 	"/>
	<polygon fill="#1D1D1B" points="148.505,685.506 148.504,694.506 157.504,694.506 166.504,694.506 166.504,685.506 
		157.504,685.506 	"/>
	<polygon fill="#1D1D1B" points="139.505,703.506 139.506,712.506 148.504,712.506 148.504,703.506 148.504,694.506 
		139.504,694.506 	"/>
	<rect x="130.504" y="712.506" fill="#1D1D1B" width="9.002" height="9"/>
	<polygon fill="#1D1D1B" points="121.505,730.506 112.506,730.506 103.504,730.506 94.504,730.507 85.506,730.507 85.504,739.507 
		94.506,739.507 103.506,739.506 112.505,739.506 121.505,739.506 130.504,739.506 130.504,730.506 130.504,721.506 
		121.504,721.506 	"/>
	<polygon fill="#1D1D1B" points="175.502,577.505 184.502,577.505 184.502,568.505 193.502,568.505 193.502,559.505 
		202.502,559.505 202.502,550.505 193.502,550.505 193.502,541.505 193.502,532.505 184.502,532.506 184.502,541.505 
		184.502,550.505 184.502,559.505 175.502,559.505 166.502,559.505 166.502,568.506 175.502,568.505 	"/>
	<polygon fill="#1D1D1B" points="157.502,577.506 166.502,577.506 166.502,568.506 157.502,568.506 148.502,568.506 
		148.502,577.506 	"/>
	<polygon fill="#1D1D1B" points="184.5,478.505 184.5,478.505 193.5,478.505 193.5,469.505 193.5,460.505 193.5,451.505 
		184.5,451.505 184.5,460.504 184.5,469.505 184.5,469.505 175.5,469.505 166.5,469.506 166.5,478.506 175.5,478.506 	"/>
	<polygon fill="#1D1D1B" points="157.502,532.505 157.502,541.506 166.502,541.505 166.502,532.505 166.502,523.506 157.5,523.505 	
		"/>
	<rect x="148.502" y="541.506" fill="#1D1D1B" width="9" height="9"/>
	<polygon fill="#1D1D1B" points="139.502,559.506 139.502,568.506 148.502,568.506 148.504,559.506 148.502,550.506 
		139.502,550.506 	"/>
	<polygon fill="#1D1D1B" points="139.502,568.506 130.502,568.506 130.502,577.506 130.502,586.506 139.504,586.506 
		139.502,577.506 	"/>
	<rect x="139.503" y="586.506" fill="#1D1D1B" width="9.002" height="9"/>
	<polygon fill="#1D1D1B" points="148.504,595.506 148.502,604.506 148.502,613.506 157.502,613.506 157.502,604.506 
		166.502,604.505 166.502,595.506 157.502,595.506 	"/>
	<polygon fill="#1D1D1B" points="121.502,595.507 112.504,595.507 112.502,604.507 121.502,604.507 130.502,604.506 
		130.502,595.507 	"/>
	<rect x="130.502" y="604.505" fill="#1D1D1B" width="9" height="9.001"/>
	<polygon fill="#1D1D1B" points="166.5,487.505 166.5,478.506 157.5,478.506 148.5,478.506 148.5,487.506 157.5,487.506 	"/>
	<rect x="139.5" y="487.506" fill="#1D1D1B" width="9" height="9"/>
	<rect x="130.502" y="496.507" fill="#1D1D1B" width="8.998" height="9"/>
	<rect x="121.501" y="505.506" fill="#1D1D1B" width="9.002" height="9"/>
	<rect x="112.501" y="514.507" fill="#1D1D1B" width="9" height="9"/>
	<rect x="103.502" y="523.507" fill="#1D1D1B" width="8.998" height="9"/>
	<rect x="94.502" y="532.507" fill="#1D1D1B" width="9" height="9"/>
	<rect x="85.501" y="541.507" fill="#1D1D1B" width="9.002" height="9"/>
	<rect x="76.501" y="550.507" fill="#1D1D1B" width="9" height="9"/>
	<polygon fill="#1D1D1B" points="76.502,577.507 76.5,568.507 76.5,559.507 67.502,559.507 67.502,568.508 67.502,577.508 
		67.504,586.507 76.502,586.507 	"/>
	<polygon fill="#1D1D1B" points="67.504,613.507 67.504,604.508 67.504,595.507 67.504,586.507 58.502,586.507 58.504,595.508 
		58.504,604.508 58.504,613.508 58.502,622.507 67.502,622.507 	"/>
	<polygon fill="#1D1D1B" points="58.504,703.508 58.506,694.508 58.505,685.508 58.505,676.508 58.504,667.508 58.504,658.508 
		58.504,649.508 58.504,640.507 58.504,631.508 58.502,622.507 49.502,622.508 49.504,631.508 49.504,640.508 49.504,649.508 
		49.504,658.508 49.504,667.508 49.505,676.508 49.504,685.508 49.504,694.508 49.506,703.508 49.506,712.508 58.506,712.508 	"/>
	<polygon fill="#1D1D1B" points="76.506,721.507 67.506,721.508 58.506,721.508 49.506,721.508 49.506,712.508 40.504,712.509 
		40.504,721.508 40.504,730.508 49.505,730.507 58.506,730.508 67.506,730.508 76.504,730.507 85.506,730.507 85.506,721.507 	"/>
	<polygon fill="#1D1D1B" points="166.502,586.506 166.502,595.506 175.504,595.506 175.502,586.505 175.502,577.505 
		166.502,577.506 	"/>
	<rect x="139.502" y="613.506" fill="#1D1D1B" width="9" height="9"/>
	<rect x="130.501" y="622.507" fill="#1D1D1B" width="9.002" height="8.999"/>
	<polygon fill="#1D1D1B" points="220.502,550.505 229.502,550.504 229.502,541.504 220.502,541.505 211.502,541.505 
		202.502,541.505 202.502,550.505 211.502,550.504 	"/>
	<rect x="220.502" y="577.504" fill="#1D1D1B" width="9" height="9"/>
	<rect x="193.5" y="442.505" fill="#1D1D1B" width="9" height="9"/>
	<polygon fill="#1D1D1B" points="220.5,442.504 229.5,442.505 238.5,442.504 247.5,442.504 256.5,442.503 265.5,442.503 
		274.5,442.503 283.498,442.503 292.5,442.503 301.5,442.503 310.498,442.503 319.5,442.503 328.502,442.502 337.5,442.502 
		346.498,442.502 355.5,442.502 364.5,442.502 373.5,442.502 382.5,442.502 391.5,442.501 400.5,442.501 409.5,442.5 418.5,442.501 
		427.498,442.5 436.5,442.5 445.5,442.5 454.5,442.5 454.498,433.5 445.5,433.5 436.5,433.5 427.5,433.501 418.5,433.501 
		409.5,433.501 400.5,433.501 391.5,433.501 382.5,433.501 373.5,433.502 364.5,433.502 355.498,433.502 346.5,433.502 
		337.498,433.502 328.5,433.502 319.5,433.502 310.498,433.503 301.5,433.503 292.5,433.503 283.498,433.503 274.5,433.503 
		265.5,433.503 256.5,433.504 247.5,433.504 238.5,433.504 229.5,433.504 220.5,433.505 211.5,433.504 202.5,433.505 202.5,442.505 
		211.5,442.504 	"/>
	<rect x="454.5" y="442.5" fill="#1D1D1B" width="9" height="9"/>
	<polygon fill="#1D1D1B" points="450.002,496.5 450,487.5 441,487.5 441,496.5 441.002,505.5 441.002,514.5 441.002,523.5 
		450.002,523.5 450,514.5 450.002,505.5 	"/>
	<polygon fill="#1D1D1B" points="265.5,460.504 274.5,460.503 283.5,460.503 292.5,460.503 301.498,460.503 310.502,460.502 
		319.5,460.503 328.5,460.503 337.5,460.502 346.5,460.502 355.5,460.502 364.5,460.502 373.5,460.501 382.5,460.501 391.5,460.501 
		400.5,460.501 405,460.5 405,456.001 400.5,456.001 391.5,456.001 382.5,456.002 373.5,456.002 364.5,456.002 355.5,456.002 
		346.5,456.002 337.5,456.002 328.5,456.002 319.502,456.003 310.498,456.003 301.5,456.003 292.5,456.003 283.5,456.003 
		274.498,456.004 265.5,456.003 256.5,456.003 252,456.004 252,460.504 256.5,460.504 	"/>
	<path fill="#1D1D1B" d="M387.002,550.501h-8.817v-1.078v-2.642v-2.64v-2.64v-2.64v-2.641h-2.639h-2.644h-2.64h-2.638v-2.641v-2.641
		v-2.64v-2.641v-2.64v-2.641v-2.641v-2.64v-2.64v-2.641v-2.64v-2.64v-2.641v-2.64v-2.641v-2.641v-2.64v-2.64v-2.64v-2.642v-2.64
		h-2.643h-2.641h-2.641h-2.641h-2.641h-2.64h-2.641h-2.64h-2.641v2.64v2.642v2.64v2.64v2.64v2.641v2.641v2.64v2.641v2.64v2.64v2.641
		v2.64v2.64h-2.641h-2.641h-2.64h-2.641v2.641v2.641v2.64v2.641v2.64h-2.641h-2.641h-2.64h-2.643h-2.641v-2.64v-2.641v-2.64v-2.641
		v-2.641v-2.64v-2.64v-2.641v-2.64h-2.639h-2.641h-2.64h-2.644h-2.637h-1.322v-1.32v-2.641v-2.641v-2.64v-2.64v-2.64v-2.641v-2.641
		v-2.64v-2.641v-2.64v-2.641v-2.64v-2.64v-2.641h-2.64h-2.64h-2.643h-2.639h-2.641h-2.643h-2.638h-2.641h-2.641v2.641v2.64v2.64
		v2.641v2.64v2.641v2.64v2.641v2.641v2.64v2.64v2.64v2.641v2.641v2.64v2.641v2.64v2.64v2.641v2.64v1.321h-1.32h-2.641h-2.64h-2.643
		h-2.64h-2.642h-2.639v2.64v2.641v2.64v2.641v2.641v2.641v2.64v2.64v2.64v2.642v1.08h-3.645h-9v4.5l9,0h9l9,0l8.998,0l9.002,0h9h9
		l9-0.001h9h9h9h9h9l9,0h9l9,0l8.998,0l0.002-4.5h-9L387.002,550.501z M346.5,515.098v-2.64v-2.641v-2.64v-2.64v-2.641v-2.64v-2.641
		v-2.641v-2.64v-2.64v-2.64v-2.642h2.64h2.641h2.64h2.641h2.641h2.641h2.641v2.642v2.64v2.64v2.64v2.641v2.641v2.64v2.641v2.64v2.64
		v2.641v2.64v2.64v2.641v2.641v2.64v2.641v2.64v2.641v2.641h-2.641h-2.641h-2.641v-2.641v-2.641v-2.64v-2.641v-2.64v-2.641v-2.641
		h-2.641h-2.64h-2.641h-2.64V515.098z M284.45,519.059v-2.641v-2.64v-2.64v-2.641v-2.64v-2.641v-2.641v-2.64v-2.64v-2.64v-2.641
		v-2.641v-2.64v-2.641v-2.64v-2.641v-2.64v-2.64h2.641h2.638h2.643h2.641h2.639h2.643h2.64v2.64v2.64v2.641v2.64v2.641v2.64v2.641
		v2.641v2.64v2.64v2.64v2.641v2.641v1.32h-1.321h-2.639h-2.642v2.64v2.641v2.64v2.64v2.641v2.641v2.64v2.641v2.64v2.641v2.641v2.641
		v2.64v2.64v2.64v2.642v1.079h-7.92v-1.079v-2.642v-2.64v-2.64v-2.64v-2.641v-2.641v-2.641v-2.64v-2.641v-2.64h-2.642h-1.319v-1.321
		V519.059z M270,550.504h-2.715v-1.08v-2.642v-2.64v-2.64v-2.64v-2.641v-2.641v-2.641v-2.64v-2.641h2.642h2.64h2.643h2.64h2.641
		h2.64h2.641v2.641v2.64v2.641v2.641v2.641v2.64v2.64v2.64v2.642v1.079h-6.768L270,550.504z M306.002,550.503h-7.029v-1.079v-2.642
		v-2.64v-2.64v-2.64v-2.641v-2.641v-2.641v-2.64v-2.641v-2.64v-2.641v-2.641v-2.64v-2.64v-2.641h2.639h2.641h2.643h2.637h2.644h2.64
		h2.641v2.641v2.64v2.64v2.641v2.641v2.64v2.641v2.64v2.641v2.641v2.641v2.64v2.64v2.64v2.642v1.079h-2.453H306.002z
		 M324.002,550.502l-3.908,0v-1.079v-2.642v-2.64v-2.64v-2.64v-2.641v-2.641h2.641h2.643h2.64h2.641h2.641v2.641v2.641v2.64v2.64
		v2.64v2.642v1.079h-0.296H324.002z M335.938,550.502v-1.078v-2.642v-2.64v-2.64v-2.64v-2.641v-2.641v-2.641v-2.64v-2.641v-2.64
		v-2.641h2.64h2.641h2.641h2.641h2.64h2.641h2.64v2.641v2.64v2.641v2.64v2.641v2.641h-2.64h-2.641h-2.64h-2.641v2.641v2.64v2.64
		v2.64v2.642v1.078h-1.857H335.938z M360.002,550.501l-9,0H346.5v-1.078v-2.642v-2.64v-2.64v-2.64h2.64h2.641h2.64h2.641h2.641
		h2.641h2.641h2.643h2.638h2.64h2.644v2.64v2.64v2.64v2.642v1.078l-6.544,0L360.002,550.501z"/>
	<polygon fill="#1D1D1B" points="202.5,496.505 202.5,505.505 202.502,514.505 211.502,514.505 220.502,514.505 220.502,505.505 
		220.502,496.505 211.5,496.505 	"/>
	<polygon fill="#1D1D1B" points="184.502,487.505 184.5,496.505 184.5,505.505 184.5,514.505 175.502,514.505 166.5,514.506 
		166.502,523.506 175.502,523.506 184.502,523.505 184.502,532.505 193.5,532.505 193.502,523.504 193.5,514.504 193.5,505.505 
		193.5,496.505 193.5,487.505 193.5,478.505 184.5,478.505 	"/>
	<polygon fill="#1D1D1B" points="463.5,460.5 463.5,469.5 463.5,478.499 472.5,478.499 472.498,469.499 472.5,460.5 472.5,460.5 
		472.5,451.5 463.5,451.5 463.5,460.499 	"/>
	<polygon fill="#1D1D1B" points="472.502,487.5 472.5,478.5 463.5,478.5 463.502,487.5 463.5,496.5 463.5,505.5 463.502,514.5 
		463.5,523.5 463.5,532.5 463.5,541.5 463.502,550.499 463.502,559.5 472.502,559.499 472.5,550.5 472.502,541.5 472.502,532.5 
		472.502,523.5 481.502,523.501 490.502,523.501 490.502,514.501 481.5,514.5 472.502,514.5 472.5,505.5 472.5,496.5 	"/>
	<rect x="330.797" y="474.099" fill="#1D1D1B" width="6.699" height="6.701"/>
</g>
</svg>
